<svg id="eSomTpcL8B71" xmlns="http://www.w3.org/2000/svg" xmlns:xlink="http://www.w3.org/1999/xlink" viewBox="0 0 700 300" shape-rendering="geometricPrecision" text-rendering="geometricPrecision"><path d="M0,0L87.639791,206.402237c0,0,6.848865,15.581761,16.654505,20.646348s38.624428,0,38.624428,0l557.081274-77.048586v-150Q0.000002,0.000002,0,0Z" transform="translate(.000002 0.000003)" fill="#d1d1d1" stroke="#d1d1d1" stroke-width="1.4"/><path d="M700.447692,170.116692v-20.11669L142.918726,227.048587c0,0-29.8078,4.215559-38.624428,0s-16.654505-20.646348-16.654505-20.646348L0.447692,0.000002q.000002,65.971239,0,65.971237L68.191306,229.91052c0,0,7.131149,15.581762,17.340937,20.646348s40.216372,0,40.216372,0l574.699077-80.440176" transform="translate(-.447692-.000002)" fill="#ddd" stroke="#ddd" stroke-width="1.4"/></svg>
