<svg cache-id="2b51c152a58a44769800f7de8543cae6" id="eiESj19pKg61" xmlns="http://www.w3.org/2000/svg" xmlns:xlink="http://www.w3.org/1999/xlink" viewBox="0 0 980 980" shape-rendering="geometricPrecision" text-rendering="geometricPrecision"><path d="M513.039246,156.595856c1.382263.073013,2.764587.146026,4.848327.495315c4.490784.604508,8.2771.972916,12.070008,1.253281c10.734619.793548,21.471801,1.551071,32.208007,2.322784.411133.038437.822266.076859,1.813538.405869c12.864075,2.135788,25.124084,4.161987,37.437256,5.785049c19.959167,2.630936,34.842529,14.075028,33.828796,37.926071-.27417,6.450196.412537,12.951035.863831,19.414261.094482,1.352845.820068,2.878998,1.720764,3.9236c6.852173,7.947219,14.610168,15.245071,20.563599,23.804184c8.561645,12.308837,16.797119,25.036865,23.440124,38.44403c10.593506,21.380249,18.171936,44.004486,23.829407,67.254792c1.672363,6.873016,4.091797,13.65039,6.95166,20.125885c3.353821,7.593627,3.724182,7.429138-4.371826,7.546264-.156983.002289-.312317.109467-.468445.167725-.694946-.079743-1.389954-.159485-2.706421-.545288-24.653564-3.441284-48.685669-6.576538-72.717773-9.711792-.062256.476532-.124512.953064-.186707,1.429596c5.96167,2.006775,11.851502,4.269622,17.899719,5.968383c13.632569,3.828919,27.350159,7.354432,41.021241,11.047486c22.367981,6.042267,44.726623,12.118988,67.088867,18.182495c18.251159,4.948822,36.481323,9.977966,54.77478,14.764954c2.748047.719116,3.65863,1.845001,2.745117,4.473388-2.176269,3.966675-3.982483,7.901612-6.115478,11.908844-1.72345,1.082245-4.528076,1.454407-2.179138,4.161316-.264893.530518-.529786,1.061005-1.390564,1.751709-1.059876.824585-1.523926,1.488922-2.093384,2.362641-.293884.469268-.535218.663391-1.161499.810211-.796143.666504-1.260254,1.314544-1.737915,1.945953-.01355-.016632.023132.006989-.213623.094452-.420044.359894-.603394.632355-.792481.899536-.005615-.00531-.000122.008637-.369507-.004883-3.586547,1.73346-6.909729,3.317719-9.967468,5.309479-1.184448.771515-1.768188,2.46521-2.635681,3.725372-.010071-.013366-.001526.001831-.308899-.005828-.778015.331665-1.248718.670959-1.774353,1.224487-.054993.214203-.051025.656463-.051025.656463s.088073.088105-.26709.04242c-.776123.016754-1.197022.079223-1.831604-.124634-5.450501,1.440949-10.687378,3.148193-16.2771,4.907471-1.065307.065246-1.777771.078522-2.805237-.16333-5.653625-.988922-10.972656-1.988129-16.336181-2.382447-5.444336-.400238-10.932617-.20343-16.811524-.247375-1.498169.102875-2.586487.184997-3.674743.267151c0,0,.07373-.17038.005676-.625-6.348023-.848725-12.628052-1.242829-18.90802-1.636902-1.03418-.061646-2.068298-.123291-3.487793-.400574-.385315-.215668-.498596-.520965-.396912-.798614-4.076172-1.055634-8.228088-2.091919-12.441528-2.514435-2.514587-.252167-5.125794.458465-8.049194.754333-.811951.135193-1.268128.25235-1.724366.369446-.409668-.10968-.819275-.219391-1.646484-.771545-3.881836-1.152344-7.316162-2.123688-10.815918-2.525574-13.077881-1.501831-26.177185-2.818054-39.268677-4.202026-5.725158-.605225-11.439636-1.373993-17.179687-1.756317-4.666748-.310853-9.364502-.156006-14.356934-.199646-.715454-.051972-1.122497-.111969-1.667969-.530243-5.413574-.69336-10.688659-1.028473-16.355468-1.364319-1.425782-.104096-2.4599-.207428-3.64032-.66742-3.301575-.917419-6.438294-1.776947-9.616028-1.973724-5.772095-.357452-11.568603-.32077-17.354919-.448578-1.062256.001862-2.124573.003693-3.699158-.179443-.743225-.403382-1.007691-.567932-1.536072-.979828-4.106445-.515534-7.982544-.729859-12.187927-.917084-.761536.103577-1.193848.180054-1.62616.256531c0,0,.069275-.144257-.02478-.586609-.636719-.768066-1.178711-1.377106-1.722229-1.37851-17.170532-.044494-34.342682-.136566-51.51001.10608-2.230041.031524-4.435058,1.834869-6.704162,3.000274-.052521.182709-.05716.562958-.05716.562927-.727936.028168-1.455902.056336-2.757202-.164184-1.419556.006683-2.265747.262085-3.111939.517517c0,.000031-.120971.280273-.526397.412323-1.105622.135559-1.805878.139069-2.815674-.077271-1.289703-.302001-2.29776-.575836-3.24585-.437744-15.824615,2.304779-31.034759,6.868195-45.85321,12.769013-1.398285.556793-2.39859,2.112884-3.595184,3.194885-.011536-.010193-.005219.008637-.421357-.016846-7.90274,2.458344-15.396331,4.921967-22.855133,7.486756-.365234.125641-.425964,1.136841-.628448,1.735687-.490479.287811-.980927.575653-1.983154.588348-2.226197-.028839-4.060395-.092773-5.635254.515076-8.882447,3.428375-17.668457,7.106567-26.552155,10.531433-12.243133,4.720032-25.018249,7.027069-38.040161,8.309143-2.715363.267365-5.315704,1.703034-7.969055,2.600312-.428833.07138-.857636.142761-1.916352-.093293-2.277832-.420013-3.939666-.729522-5.571441-.613983-13.040375.923401-26.068939,2.020966-39.113312,2.879456-12.401337.816162-24.819778,1.371216-37.222961,2.162262-1.1026.070312-2.148148,1.03482-3.598023,1.6492-1.397568.080933-2.417297.09668-3.762604-.148285-4.756775-.103302-9.187927.055634-13.619232.211151-6.597595.231537-13.239074,1.121491-19.433151-2.363159-2.454788-1.381012-5.18074-2.280029-7.985535-3.530426-.458404-.345581-.633362-.612427-.71669-1.341217-1.33966-10.301361-2.653183-20.199402-4.099746-30.077911-.136017-.928986-1.110062-1.73526-1.735825-2.901215-.030853-.709137-.020889-1.11557.247223-1.851776.07756-5.543091-.022247-10.760864-.305405-15.968628-.30957-5.693665-.247757-11.154663,4.7108-15.272369.979538-.813416,1.285263-2.438233,1.929932-3.716614.028183-.027771.09314-.072968.474182-.014649c4.687485-1.199737,8.987641-2.479797,13.302918-3.706695c2.191879-.6232,4.410995-1.150604,6.991912-1.797485c1.388794-.103272,2.403458-.130341,3.739045.106292c10.713363.007111,21.109069-.173156,31.493637-.614776c1.140259-.048462,2.21672-1.59668,3.322799-2.44928c0,0,.455018-.179077,1.070862-.193848c1.667664.012329,2.719498.039398,4.109589.307007c7.610748-.024048,14.88501-.253143,22.152222-.620758.580383-.029358,1.112396-1.014832,1.6669-1.556c1.044037-.08374,2.088104-.167511,3.828613.056732c10.585846.006501,20.479218-.204681,30.362214-.647766c3.255676-.145996,6.631805-.443878,9.695983-1.452606c7.151429-2.354187,14.186921-5.082397,21.17804-7.886749c1.771088-.710419,3.199799-2.274414,4.992584-3.498322.206757-.052093.630921-.095886,1.044647-.013183c1.865174-.592011,3.31659-1.266724,4.969147-2.148102.747132-.368958,1.293152-.53125,2.0578-.423798c2.051087-.616974,3.883576-1.503662,5.765534-2.601989.049469-.211609.042602-.64618.042602-.64618.557526-.141021,1.115052-.282043,2.248078-.61145c1.291046-.269989,2.006653-.351593,2.894073-.193542c1.028778-.290467,1.885712-.820588,2.742646-1.350739c0,0,.016296.144043.404235.140564c10.31308-1.254883,30.517334-9.358398,31.297364-12.945038-3.548432,0-7.052429-.42511-10.376923.163513-1.917297.339447-3.544586,2.316681-5.614593,3.614502-.735352.068268-1.158478.078797-1.855683-.155456-5.588806.622803-10.965362,1.226929-16.195953,2.453369-3.314942.777222-6.412598,2.481201-9.607697,3.769562c0,0,.0849.145508-.222808.140472-.776886.000397-1.246064.005799-1.978913-.265014-4.873443.330322-9.512054.782806-14.075226,1.637847-1.355499.254029-2.498993,1.639527-4.049011,2.564331-.728973.077363-1.148529.097016-1.808746-.164398-3.398957.61908-6.557282,1.519196-9.923554,2.470398-.207916.051056-.635956.038025-.99469-.050354-1.182769.24765-2.006805.58374-2.889557,1.113587-.058746.193756-.085693.597839-.085693.597839s.075073.082245-.344513.00473c-1.464233-.046386-2.508911-.015259-3.838287-.253845-5.425812.02475-10.569336.287384-15.703278.6763-.39447.029938-.721435.951141-1.079773,1.458069c0,.00003-.45459.152374-1.008148.132996-1.00415-.052216-1.454742-.085022-2.207458-.355347-2.826966.187073-5.351838.611694-7.876679,1.036316c0,0,.050232.165497-.299805.188934-1.382965-.006714-2.415863-.036865-3.798523-.298401-9.497406.03833-18.64656.271149-27.789581.651459-.693817.02887-1.344055,1.104889-2.014557,1.694153.000016.00003-.447525.181366-.897308.134552-.615295-.10257-.780777-.158295-1.289307-.456085-8.858978.025665-17.376724.253204-25.887222.640228-.655533.029816-1.259964,1.182587-1.888153,1.813415c0,0,.083267.14151-.271118.114502-1.142121-.051757-1.929871-.076507-3.006607-.389526-.927353-.412018-1.562622-.623718-2.20456-.646301-8.443359-.296875-9.163406-1.363861-7.820633-9.992524.358155-2.301544-.337905-4.76712-.563385-7.459167.022431-.703186.058289-1.104584.435761-1.633667.716782-4.084381,1.091949-8.041046,1.469452-12.316315.059997-.738769.11766-1.158996.529861-1.702087c1.293228-6.205048,2.231903-12.287201,3.170563-18.369354.071838-.345978.143692-.691986.614487-1.352539.464325-1.300873.529724-2.287201.625717-3.587586.118408-.724762.206207-1.135528.640137-1.664429.93692-3.210083,1.527679-6.302063,2.118438-9.394012.000016,0,.038758-.32605.487549-.513214c2.434509-6.262695,4.420227-12.338257,6.451966-18.601959.046005-.188141.14389-.562989.437332-.716889.391891-.776977.490326-1.400024.629577-2.311401.123734-.667572.206635-1.046784.645127-1.497986c1.091735-2.387878,1.82788-4.703766,2.600311-7.304871.322845-.763763.60939-1.242309,1.221451-1.839477c2.838989-5.329468,5.352462-10.540283,8.155807-15.928955c3.04773-5.452301,5.805573-10.726776,8.754212-16.130371.429718-.339173.587463-.598603.999435-.990235c4.222702-5.94162,8.110001-11.800384,12.33284-17.735901c1.700226-2.085739,3.064896-4.094711,4.468872-6.103088.039322.000595-.021301-.049515.354584-.044632c3.612106-.686645,5.272766-2.511291,4.688141-6.206558.019104-.242081-.038941-.724243-.038941-.724243s.077332.043075.39444-.021607c5.419983-5.365158,10.522827-10.665619,15.625671-15.966095c0,0,.061158.038483.385071-.021881c5.100128-4.039902,9.876343-8.019424,14.946533-12.013122.609345-.415909.924683-.817627,1.239991-1.219361c0,0,.144378-.088257.552368-.033218c1.89093-1.194733,3.373932-2.444504,5.02832-3.866226.399109-.402985.647125-.60965,1.279327-.814789c5.601532-3.13855,10.813996-6.297623,16.081452-9.362122c18.572266-10.804962,38.238129-18.992508,58.844421-25.096435c24.420685-7.23378,49.228028-12.110535,74.663666-13.795853c5.025665-.332962,10.007019-1.333694,15.00882-2.026474c1.065857-.010345,2.131713-.020676,3.845886.241425c2.27066.459747,3.892395.802932,5.515411.809372c11.56012.045959,23.121277.095489,34.680176-.031845c2.681-.029511,5.354462-.736954,8.031403-1.132477M263.641449,307.639587c0,0,.213562-.248413.731079-.250274.142151-.474335.284302-.948639.991638-1.812714c7.950775-7.49884,15.901551-14.997681,24.590821-22.527923c4.958862-1.056794,9.029296-3.267792,11.098053-8.913422.633453-.407471,1.266906-.814911,2.218994-.80014.899566-.456116,1.799164-.912232,3.442291-1.377259c2.992126-1.614959,6.134277-3.010406,8.925842-4.918701c2.007019-1.371979,3.546082-3.428497,5.673645-5.618866.543305-.18808,1.086579-.37616,2.0177-.016266c3.207337.009247,5.945649-.692108,7.039338-4.53775c0,0,.368682-.038025,1.129119.067413.825959-.674164,1.651917-1.348358,2.820984-2.150284c0,0,.357727-.077926,1.151032.081559c1.27594-.281723,2.614014-.40358,3.817718-.871247c7.468415-2.901809,14.95929-5.758621,22.320496-8.915359c2.009552-.861755,3.599396-2.702316,5.351135-4.264465c0,0-.001739-.173508.447815.05159.164856.029495.329743.058975,1.374634.139068c2.917175-.446976,5.8815-.696167,8.742798-1.37764c8.946411-2.130722,17.861999-4.393188,26.773193-6.668457c4.60495-1.175766,9.175446-2.486541,14.536865-3.86586c1.046936-.023574,2.093872-.047149,3.733368.503037c5.089875-.204804,10.17804-.487839,15.269959-.600998c23.202698-.515671,46.251343.848144,68.960785,5.984482c3.64682.824814,7.184295,2.130401,10.828582,2.969726c4.785767,1.102234,9.614136,2.038056,14.452393,2.884095c1.603577.280395,3.294251.062072,5.587647.115097.420654.083526.841308.167068,1.395324.92482c2.32666,1.651962,4.471009,3.804565,7.056336,4.746429c1.30896.476837,3.4823-1.113205,5.116455-2.032394.456726-.256882.659973-2.056595.514038-2.122834-1.36731-.620559-2.825928-1.053604-4.281006-1.458923-.455566-.126907-.980347-.005234-1.937927-.166107-.281494-.202271-.459168-.472733-.522278-1.298172-.365723-.156494-.731506-.312973-1.648254-.581696-.471802-.282867-.943543-.56575-1.449463-1.570389-3.762635-2.040252-7.525208-4.080505-11.63208-6.101211c0,0-.320252-.127564-.551209-.666931-.349548-.143479-.699158-.286972-1.396973-.471863c0,0-.318481-.147003-.375854-.741486-.664429-.100448-1.328796-.200912-2.569031-.382064-.498169-.276291-.996338-.552598-1.513305-1.561661-4.62378-4.622193-10.653321-5.681702-16.985932-7.298004-2.48465-.590882-4.96933-1.181763-8.088653-1.746415-.631958-.032821-1.263916-.065643-2.2883-.723358-8.322845-2.035888-16.566589-4.536285-24.99176-5.971405-7.759186-1.321625-15.71341-1.49826-24.479401-2.443222-5.994659.021912-11.989349.043808-18.893616-.160126-24.893371.151185-48.762817,5.552994-71.981201,14.167649-29.888733,11.089508-55.455017,28.629989-76.781036,52.258087-3.944458,4.370209-6.913849,9.620483-10.701843,14.949158-.547303.850433-1.094574,1.700866-2.305115,2.629943-.313812.705628-.627655,1.411255-1.126557,2.560639c0,0-.145355.458343-.598968.621002-.293549.229553-.376221.519379-.392243,1.239899c0,0-.017852.397156-.441467.805755-.31308.492493-.626159.984986-1.572143,1.73584-.722962,1.642884-1.445923,3.285797-2.341431,5.283783c0,0-.088013.384888-.727234.699768-1.062988,2.736786-2.125976,5.473572-3.188965,8.210327.570343.244812,1.140686.489624,1.71106.734436.465942-.970825.931915-1.94168,1.816833-3.387481.487336-.402588.974671-.805145,1.779816-1.097473c0,0,.233795-.238434.233795-.238434s-.114136-.31482.193695-.818848c.091431-.174347.182862-.348663.809479-.553039.288849-.353852.577728-.707703,1.10849-1.282441Z" transform="translate(6.602745-6.982452)" fill="#fab044"/><path d="M354.546326,706.030396c-.435456,31.639648-.811035,62.808593-6.67865,93.542724-1.490021,7.804749-4.241242,15.366272-6.354889,23.055542-.739899,2.69165-2.318787,3.553772-5.118805,3.456421-6.276825-.218201-12.566498-.068237-19.268951-.068237c9.389953-22.352051,10.809509-45.568604,11.705352-68.886902.284607-7.408997-1.259826-13.422058-6.139953-19.886353-13.919525-18.438171-27.105225-37.517639-39.356781-57.109497-25.320038-40.490173-46.505112-83.026977-59.539994-129.219604-2.87857-10.200989-4.991424-20.617981-7.594635-31.511963c11.140534-.834046,21.384858-1.592652,31.627793-2.369263c26.066192-1.976196,52.206909-3.296448,78.164703-6.232605c12.247254-1.385284,24.149902-5.850616,36.191071-8.988128c1.728637-.45044,3.357574-1.283539,5.53479-1.360322-1.632111,1.833893-3.365265,3.588349-4.879578,5.514832-8.580505,10.915771-11.644409,23.784424-12.7836,37.230591-1.913818,22.588562,1.373139,44.867126,4.295044,67.16272c3.459534,26.397644,3.188843,52.805175.334381,79.246521-.567199,5.25415-.117798,10.618042-.137298,16.423523Z" fill="#fff"/><path d="M691.916626,587.128174c-10.732788-14.046997-21.381226-27.712525-31.765564-41.575867-9.503174-12.686951-11.459351-26.621399-4.275085-40.852722c4.291992-8.502075,7.880737-16.83786,6.527587-27.203735c7.444764.801727,14.291138,1.538971,21.490113,2.314209.498108,10.011108-.702759,19.461639-5.908386,27.642608-6.900757,10.845368-5.917359,20.148102,2.098693,30.077545c13.282654,16.453064,25.882508,33.460816,38.639527,50.333496c10.017029,13.248719,6.922485,29.016541-7.344239,37.714417-8.386352,5.112915-16.867492,10.076172-25.410644,14.922363-2.798279,1.587342-4.214172,3.100342-3.048889,6.613098c4.841919,14.595826,2.863098,28.480835-6.114502,40.849732-8.927857,12.300537-8.720581,26.441955-9.910034,40.483826-.528504,6.239746-.965332,12.891479-3.426209,18.483886-6.205383,14.102173-18.47113,19.6026-33.228882,20.992737-30.754883,2.896912-60.771667-1.244385-91.210937-8.925537c2.841492,22.242981,5.668823,44.37561,8.532593,66.793457-7.231995,0-13.987244,0-21.280213,0-.999695-9.789917-2.018982-19.504456-2.978088-29.224915-1.488342-15.085022-2.831238-30.185791-4.528565-45.246887-.219421-1.946655-1.909729-3.957519-3.381164-5.496338-10.908844-11.40802-22.105408-22.54602-32.831818-34.120727-3.78186-4.080872-2.699035-9.943848,1.396271-13.372559c4.074524-3.411133,10.654449-3.32489,14.585754.667114c4.670777,4.743042,9.256501,9.622864,13.392334,14.830018c14.203064,17.882141,32.66095,27.693237,55.18219,30.887939c19.504883,2.766846,38.939148,5.521118,58.69336,3.356689c2.647033-.290039,5.333801-.434997,7.920776-1.012146c6.967651-1.554382,10.884766-6.10028,11.475159-13.233581.865661-10.459412,1.438659-20.947327,2.537414-31.380798.371521-3.527832,1.523926-7.140808,3.085999-10.340699c3.209594-6.574951,6.891479-12.922546,10.464782-19.315796c2.820923-5.04718,3.533448-10.293701,2.126526-15.909484-1.213318-4.842957-2.29779-9.720276-3.338684-14.603821-1.484375-6.964417-.108398-10.049195,6.018494-13.664734c10.753845-6.346008,21.534485-12.646851,32.28186-19.003784c5.841797-3.455323,6.26355-5.644348,2.203125-11.05597-2.797729-3.72882-5.645691-7.419921-8.670654-11.423034Z" fill="#fff"/><path d="M509.066284,581.975952c-.967102,7.203552-4.81308,11.182739-10.736145,11.495423-5.797973.30603-10.162414-2.985474-11.905517-9.257264-6.411072-23.067138-14.966645-45.214782-28.792908-64.942444-4.273224-6.097167-9.181488-11.872711-14.486481-17.097473-10.731628-10.569366-23.615631-16.588684-39.126373-16.332763c25.585358-11.792603,51.93811-20.530182,80.102417-23.536164c28.328125-3.023529,56.124695,1.510773,84.347473,5.374573-1.796143.817352-3.589783,1.640167-5.388733,2.451233-21.771484,9.815826-38.682983,24.699066-45.374573,48.18399-3.43164,12.043641-4.007385,24.916504-5.681335,37.440247-1.146362,8.576355-1.960999,17.197144-2.957825,26.220642Z" transform="translate(24.279175 10.634385)" fill="#fff"/><path d="M360.319397,539.379272c4.42865-20.69049,20.712128-36.109252,40.531097-38.709747c18.340607-2.406525,38.106964,7.946808,46.323517,24.83255c2.128388,4.374085,3.306061,9.436157,3.840546,14.300842.605499,5.51117-3.544678,9.705262-8.806732,10.219605-5.021851.490845-9.317017-2.67395-10.654145-7.850098-3.732452-14.449035-14.397644-22.886474-27.284027-21.584961-13.805847,1.39441-24.677063,13.262085-25.141082,27.828553-.450837,14.154358,3.762603,27.285034,9.664733,39.917602c7.329895,15.688599,16.651642,29.956299,30.296601,41.002869.517822.41925,1.033508.843139,1.572967,1.233337c8.048188,5.820862,10.154816,5.072998,12.762146-4.522827c1.735382-6.386902,6.287598-9.450195,12.178589-8.195496c5.377899,1.145508,8.856995,6.233582,7.256622,12.246827-1.387023,5.211792-3.317993,10.581237-6.307006,15.003357-6.936676,10.262512-19.379273,12.158813-31.611359,5.44757-11.03476-6.054321-19.489136-14.980346-26.848022-24.989502-15.138886-20.590942-25.916321-43.052917-28.302796-68.84674-.516083-5.577698.257904-11.274781.528351-17.333741Z" fill="#fff"/><path d="M196.260757,505.232178c2.474152-.593384,5.216645-.89029,8.400498-1.105133-2.416474.521911-5.274323.961731-8.400498,1.105133Z" fill="#fdf0c6"/><path d="M165.754944,468.248444c.603988,2.15036.913483,4.563659,1.154281,7.408844-.528732-2.094025-.988754-4.619965-1.154281-7.408844Z" fill="#fdf0c6"/><path d="M170.005493,494.356384c.511658.190735.999909.766022,1.734574,1.488098.340209.466858.515167.733704.973571,1.079285.929962,1.15509,1.657639,2.178223,2.482544,3.496277-3.604812.020874-5.098602-2.216431-5.190689-6.06366Z" fill="#fdf0c6"/><path d="M310.237274,497.195953c1.835541-.578765,3.923859-.86737,6.430878-1.088287-1.780213.504608-3.979157.941528-6.430878,1.088287Z" fill="#fdf0c6"/><path d="M375.403198,479.013916c2.002381-1.033844,4.408356-2.05191,7.190735-3.06366-2.011444,1.030701-4.399292,2.055054-7.190735,3.06366Z" fill="#fdf0c6"/><path d="M267.229736,500.249451c1.533905-.558869,3.312043-.838471,5.496674-1.035828-1.479797.493134-3.366119.904114-5.496674,1.035828Z" fill="#fdf0c6"/><path d="M253.220184,501.265869c1.219529-.559753,2.674637-.854858,4.519135-1.068786-1.168274.498626-2.725907.916046-4.519135,1.068786Z" fill="#fdf0c6"/><path d="M412.350098,464.969788c1.295013-.735627,3.010284-1.440674,5.076202-2.192444-1.318207.709839-2.98706,1.46643-5.076202,2.192444Z" fill="#fdf0c6"/><path d="M730.573364,467.946045c.419678.146881.429444.314484.443482.73352-1.307862.224274-2.619934.197083-4.025147-.148223.995178-.4003,2.083496-.482422,3.581665-.585297Z" fill="#fdf0c6"/><path d="M588.976379,453.675415c1.088379-.264587,2.303223-.236542,3.771546.054688-1.046021.25476-2.34552.246368-3.771546-.054688Z" fill="#fdf0c6"/><path d="M717.961792,467.6521c.783875-.26529,1.679199-.2482,2.812439.012329-.74176.252289-1.721375.2612-2.812439-.012329Z" fill="#fdf0c6"/><path d="M736.958496,469.631836c.792114-.243897,1.686646-.201172,2.816895.086731-.747681.230072-1.731018.214996-2.816895-.086731Z" fill="#fdf0c6"/><path d="M339.143921,492.151062c.364136-.497559.874603-.761444,1.683868-.955322-.313354.442993-.925476.816009-1.683868.955322Z" fill="#fdf0c6"/></svg>
