<svg version="1.1" id="Layer_1" xmlns="http://www.w3.org/2000/svg" xmlns:xlink="http://www.w3.org/1999/xlink" x="0px" y="0px"
	 width="100%" viewBox="0 0 512 512" enable-background="new 0 0 512 512" xml:space="preserve">
<path fill="#000000" opacity="0000" stroke="none" 
	d="
M292.000000,513.000000 
	C194.690292,513.000000 97.880577,513.000000 1.035435,513.000000 
	C1.035435,342.398590 1.035435,171.797195 1.035435,1.097890 
	C171.559723,1.097890 342.119537,1.097890 512.839661,1.097890 
	C512.839661,171.666550 512.839661,342.333252 512.839661,513.000000 
	C439.463837,513.000000 365.981903,513.000000 292.000000,513.000000 
M373.990051,406.992859 
	C373.990051,406.992859 374.001434,407.050903 374.703735,406.963684 
	C377.510620,404.669708 380.317474,402.375732 383.924316,400.053345 
	C386.487671,400.602295 389.047333,401.169342 391.615021,401.697174 
	C405.683289,404.588959 416.647736,396.500885 415.884155,383.098358 
	C416.402771,378.523621 413.994904,375.792328 410.272797,373.628021 
	C401.110046,368.300232 392.035950,362.820068 383.530334,356.965363 
	C385.590057,355.674438 387.795990,354.560303 389.653381,353.024658 
	C390.726013,352.137878 391.898529,350.572601 391.901855,349.309753 
	C391.969421,323.698608 391.873962,298.087036 391.890747,271.842285 
	C379.622131,264.877991 367.353485,257.913727 354.811646,250.290024 
	C351.552399,248.483551 348.293152,246.677078 344.693817,244.263672 
	C334.925293,238.565552 325.185760,232.816818 315.369843,227.201599 
	C312.596985,225.615402 309.877625,224.082993 306.352966,226.232529 
	C294.089783,233.711227 281.688934,240.965576 269.298676,248.234055 
	C259.553253,253.950989 249.746185,259.562836 239.381775,264.823273 
	C232.970917,254.538345 226.560074,244.253403 219.811996,233.325058 
	C218.939148,232.895111 217.957397,232.602737 217.211563,232.012344 
	C213.138870,228.788574 209.584961,229.356033 205.216385,232.151596 
	C197.781967,236.909073 189.799942,240.810867 182.019913,244.126205 
	C182.015518,220.660675 182.016769,197.195160 181.999313,173.729630 
	C181.997208,170.903091 181.917816,168.075882 181.832993,165.250229 
	C181.574295,156.630905 181.249100,148.013077 181.084808,139.392090 
	C181.064941,138.350098 181.646301,137.108246 182.330032,136.269699 
	C191.642838,124.848015 200.886703,113.365143 210.442200,102.148354 
	C215.435623,96.286804 218.760712,90.486191 218.219742,82.136925 
	C217.382217,69.210228 218.033447,56.189117 217.957809,43.208603 
	C217.947601,41.458321 217.382584,39.711266 216.691940,37.393196 
	C212.499664,33.542442 208.595581,33.031582 203.273666,36.302917 
	C187.506058,45.995136 171.321182,55.007576 155.321136,64.323051 
	C146.474594,69.473633 137.671417,74.698700 128.102798,80.170586 
	C127.744408,81.880363 127.052475,83.595551 127.080124,85.299065 
	C127.311981,99.586090 127.734192,113.869980 127.976814,128.156891 
	C128.109451,135.966644 128.314148,136.392029 136.621674,139.572433 
	C145.743942,140.049271 154.866226,140.526108 164.011002,141.939468 
	C164.328400,179.931976 164.645798,217.924500 164.233429,255.980515 
	C155.748596,260.869934 147.219223,265.684570 138.806534,270.695129 
	C136.338333,272.165161 134.201309,274.191254 131.267700,276.308228 
	C120.120811,305.402283 108.973915,334.496338 97.796417,363.670319 
	C101.095238,365.577454 103.895477,367.196350 107.371887,369.115601 
	C108.361053,369.701874 109.337425,370.311096 110.341431,370.870789 
	C117.614975,374.925537 124.894089,378.970306 132.104111,383.951385 
	C132.076660,391.275238 131.923080,398.602692 132.130707,405.919891 
	C132.171082,407.343018 133.270920,409.272919 134.473892,410.035645 
	C140.478729,413.842957 146.665771,417.365143 152.816849,420.939178 
	C166.805969,429.067474 180.765137,437.249115 194.830994,445.242767 
	C201.388962,448.969727 208.166611,452.310120 215.579605,455.967987 
	C222.326981,451.974457 229.074371,447.980927 236.246765,444.504303 
	C237.808746,445.350525 239.370743,446.196747 240.977386,447.956024 
	C240.008438,460.370605 244.568237,470.315552 254.407669,477.863434 
	C259.233002,481.564941 263.646210,481.867645 268.631287,478.892670 
	C269.102966,478.598785 269.574615,478.304871 269.995422,477.999207 
	C269.995422,477.999207 270.011780,478.048767 270.735107,478.023468 
	C276.152100,475.809906 278.982086,471.599182 280.931396,465.995300 
	C283.245148,465.991547 285.567993,466.119904 287.871002,465.960663 
	C296.860565,465.339020 306.670258,459.239899 303.679901,448.936066 
	C304.869110,444.377319 302.719971,441.295593 299.084808,439.050873 
	C290.370453,433.669708 281.595398,428.386780 273.140625,422.407013 
	C297.070221,408.248657 320.999786,394.090302 344.974731,380.794189 
	C345.143280,391.333862 349.733734,399.808807 357.870483,406.101257 
	C362.227264,409.470490 367.429413,411.867645 373.527252,407.847076 
	C373.701202,407.562378 373.875183,407.277649 373.990051,406.992859 
z"/>
<path fill="#FEBC1F" opacity="1.000000" stroke="none" 
	d="
M344.929352,379.931946 
	C320.999786,394.090302 297.070221,408.248657 272.628662,422.728882 
	C262.360168,428.625000 252.603638,434.199280 242.507599,439.857727 
	C240.052628,441.290375 237.937195,442.638885 235.821762,443.987396 
	C229.074371,447.980927 222.326981,451.974457 215.235443,455.439453 
	C214.972351,428.659698 215.053436,402.408478 215.464844,376.050629 
	C252.496460,354.316467 289.184784,332.666962 325.903870,311.069733 
	C347.848083,298.162659 369.840424,285.337524 391.811157,272.475555 
	C391.873962,298.087036 391.969421,323.698608 391.901855,349.309753 
	C391.898529,350.572601 390.726013,352.137878 389.653381,353.024658 
	C387.795990,354.560303 385.590057,355.674438 382.920227,357.281860 
	C372.523834,363.322113 362.737549,369.045837 352.624207,374.866943 
	C350.839142,375.918121 349.381165,376.871918 347.609253,377.887573 
	C346.506683,378.610260 345.718018,379.271088 344.929352,379.931946 
z"/>
<path fill="#FFDE9A" opacity="1.000000" stroke="none" 
	d="
M239.966507,265.221375 
	C249.746185,259.562836 259.553253,253.950989 269.298676,248.234055 
	C281.688934,240.965576 294.089783,233.711227 306.352966,226.232529 
	C309.877625,224.082993 312.596985,225.615402 315.369843,227.201599 
	C325.185760,232.816818 334.925293,238.565552 344.835144,244.926086 
	C343.119995,247.141983 341.435303,248.984848 339.380676,250.204483 
	C317.099396,263.430573 294.768677,276.573364 272.434265,289.709747 
	C249.097565,303.435669 225.707657,317.071503 202.410431,330.863983 
	C191.854904,337.113159 181.467133,343.645691 170.696167,350.066406 
	C169.981903,350.118744 169.574768,350.154388 168.864761,350.000580 
	C167.022110,348.863159 165.488922,347.904205 163.941452,346.968903 
	C153.963409,340.938141 143.982239,334.912537 134.211151,328.626648 
	C168.350861,308.349060 202.286041,288.337708 236.195984,268.283691 
	C237.574387,267.468506 238.715073,266.251282 239.966507,265.221375 
z"/>
<path fill="#FFDE9A" opacity="1.000000" stroke="none" 
	d="
M391.850952,272.158936 
	C369.840424,285.337524 347.848083,298.162659 325.903870,311.069733 
	C289.184784,332.666962 252.496460,354.316467 215.140747,375.883423 
	C202.686768,369.209137 190.887222,362.595367 179.228714,355.679626 
	C186.479935,351.098083 193.563461,346.773468 200.704803,342.546600 
	C236.757248,321.207672 272.837799,299.916321 308.880829,278.561462 
	C324.316803,269.415924 339.685547,260.156891 355.084869,250.949432 
	C367.353485,257.913727 379.622131,264.877991 391.850952,272.158936 
z"/>
<path fill="#FFD06B" opacity="1.000000" stroke="none" 
	d="
M179.087677,355.981598 
	C190.887222,362.595367 202.686768,369.209137 214.810425,375.990082 
	C215.053436,402.408478 214.972351,428.659698 214.867981,455.368286 
	C208.166611,452.310120 201.388962,448.969727 194.830994,445.242767 
	C180.765137,437.249115 166.805969,429.067474 152.816849,420.939178 
	C146.665771,417.365143 140.478729,413.842957 134.473892,410.035645 
	C133.270920,409.272919 132.171082,407.343018 132.130707,405.919891 
	C131.923080,398.602692 132.076660,391.275238 132.420746,383.187836 
	C132.715591,378.978363 132.693787,375.532471 132.761383,371.620117 
	C132.842590,362.797455 132.834427,354.441193 132.888031,345.615936 
	C133.300568,339.726379 133.651337,334.305817 134.002090,328.885254 
	C143.982239,334.912537 153.963409,340.938141 163.941452,346.968903 
	C165.488922,347.904205 167.022110,348.863159 168.831024,350.448700 
	C169.083145,358.568390 169.058685,366.050507 169.051422,373.532654 
	C169.045059,380.083282 170.402313,381.661041 178.128662,383.446136 
	C178.128662,374.204224 178.128662,365.122131 178.368561,356.027710 
	C178.608444,356.015350 179.087677,355.981598 179.087677,355.981598 
z"/>
<path fill="#5FC363" opacity="1.000000" stroke="none" 
	d="
M134.211151,328.626648 
	C133.651337,334.305817 133.300568,339.726379 132.580551,345.744446 
	C125.154411,350.256195 118.097527,354.170471 111.080391,357.709351 
	C116.723061,342.607819 122.383507,327.903259 127.909988,313.148499 
	C132.032867,302.141113 135.982620,291.068939 140.324524,279.877502 
	C144.692078,277.506653 148.835236,275.432434 152.776718,273.027649 
	C159.356415,269.013306 165.807159,264.787567 172.551361,260.625061 
	C173.189896,260.397797 173.589218,260.196259 174.336151,259.959534 
	C176.868500,258.598450 179.053268,257.272552 181.572723,255.887909 
	C194.654694,248.542267 207.401962,241.255371 220.149216,233.968475 
	C226.560074,244.253403 232.970917,254.538345 239.674133,265.022339 
	C238.715073,266.251282 237.574387,267.468506 236.195984,268.283691 
	C202.286041,288.337708 168.350861,308.349060 134.211151,328.626648 
z"/>
<path fill="#111D33" opacity="1.000000" stroke="none" 
	d="
M181.238037,255.946640 
	C179.053268,257.272552 176.868500,258.598450 174.341125,259.506165 
	C173.665665,249.142136 173.094345,239.197510 173.045761,229.250336 
	C172.912491,201.967392 173.005768,174.683380 172.993149,147.399780 
	C172.990265,141.178680 172.822693,141.043045 166.483948,141.002441 
	C165.652161,140.997116 164.820312,141.002518 163.988495,141.002945 
	C154.866226,140.526108 145.743942,140.049271 136.309296,138.829773 
	C136.008423,120.434639 136.019928,102.782143 136.338135,84.963554 
	C148.582977,77.921387 160.549347,71.093819 172.452042,64.156982 
	C187.353516,55.472477 202.202713,46.698231 217.074478,37.962715 
	C217.382584,39.711266 217.947601,41.458321 217.957809,43.208603 
	C218.033447,56.189117 217.382217,69.210228 218.219742,82.136925 
	C218.760712,90.486191 215.435623,96.286804 210.442200,102.148354 
	C200.886703,113.365143 191.642838,124.848015 182.330032,136.269699 
	C181.646301,137.108246 181.064941,138.350098 181.084808,139.392090 
	C181.249100,148.013077 181.574295,156.630905 181.832993,165.250229 
	C181.917816,168.075882 181.997208,170.903091 181.999313,173.729630 
	C182.016769,197.195160 182.015518,220.660675 181.960724,245.000137 
	C181.680374,249.231598 181.459198,252.589111 181.238037,255.946640 
M208.985855,90.115501 
	C208.985855,77.913940 208.985855,65.712387 208.985855,52.117897 
	C205.366013,54.792091 203.157227,56.423843 200.316589,58.319149 
	C195.120193,61.253719 190.009537,64.357445 184.692169,67.053413 
	C181.922684,68.457588 180.905350,70.222260 180.942535,73.286713 
	C181.091858,85.587738 181.021896,97.891434 181.042847,111.092712 
	C181.042847,115.451431 181.042847,119.810143 181.042847,125.713432 
	C183.959900,122.249825 185.885559,120.062805 187.702225,117.788727 
	C194.806763,108.895401 201.876846,99.974556 208.985855,90.115501 
M172.378876,129.463425 
	C172.455261,113.436371 172.573410,97.409279 172.559204,81.382309 
	C172.557266,79.189751 171.895935,76.997772 171.412842,74.023193 
	C168.534653,75.950844 166.247330,77.482758 163.358871,79.329628 
	C158.937683,81.878098 154.570999,84.528023 150.077682,86.942276 
	C146.608566,88.806229 144.709641,91.048248 144.881805,95.438309 
	C145.257034,105.005257 144.988281,114.597458 144.661652,124.840729 
	C145.158234,126.216934 145.565186,128.748230 146.164932,128.794769 
	C154.197128,129.418030 162.256256,129.694183 170.646301,130.044617 
	C170.646301,130.044617 170.980682,129.996399 171.140366,130.245804 
	C171.140366,130.245804 171.504868,130.360947 171.504868,130.360947 
	C171.504868,130.360947 171.771667,130.057205 172.378876,129.463425 
z"/>
<path fill="#FFBA62" opacity="1.000000" stroke="none" 
	d="
M179.228714,355.679626 
	C179.087677,355.981598 178.608444,356.015350 178.135101,355.769989 
	C175.442261,353.699646 173.222763,351.874664 171.003265,350.049683 
	C181.467133,343.645691 191.854904,337.113159 202.410431,330.863983 
	C225.707657,317.071503 249.097565,303.435669 272.434265,289.709747 
	C294.768677,276.573364 317.099396,263.430573 339.380676,250.204483 
	C341.435303,248.984848 343.119995,247.141983 345.005188,245.229553 
	C348.293152,246.677078 351.552399,248.483551 354.948242,250.619720 
	C339.685547,260.156891 324.316803,269.415924 308.880829,278.561462 
	C272.837799,299.916321 236.757248,321.207672 200.704803,342.546600 
	C193.563461,346.773468 186.479935,351.098083 179.228714,355.679626 
z"/>
<path fill="#4C5C75" opacity="1.000000" stroke="none" 
	d="
M352.951263,374.769562 
	C362.737549,369.045837 372.523834,363.322113 382.618164,357.499756 
	C392.035950,362.820068 401.110046,368.300232 410.272797,373.628021 
	C413.994904,375.792328 416.402771,378.523621 415.579773,383.705017 
	C412.281433,386.804718 409.658325,390.189240 406.221924,391.618988 
	C396.961548,395.471924 387.751373,394.412781 378.984924,389.380066 
	C370.355225,384.425964 361.632935,379.633148 352.951263,374.769562 
z"/>
<path fill="#4C5C75" opacity="1.000000" stroke="none" 
	d="
M242.847122,439.773560 
	C252.603638,434.199280 262.360168,428.625000 272.480774,423.057434 
	C281.595398,428.386780 290.370453,433.669708 299.084808,439.050873 
	C302.719971,441.295593 304.869110,444.377319 303.340088,449.484375 
	C300.840332,451.794678 298.925323,454.076752 296.478333,455.229401 
	C285.299530,460.495087 274.575439,458.965485 264.244446,452.541107 
	C257.192505,448.155853 249.985031,444.020599 242.847122,439.773560 
z"/>
<path fill="#1D2942" opacity="1.000000" stroke="none" 
	d="
M163.999756,141.471207 
	C164.820312,141.002518 165.652161,140.997116 166.483948,141.002441 
	C172.822693,141.043045 172.990265,141.178680 172.993149,147.399780 
	C173.005768,174.683380 172.912491,201.967392 173.045761,229.250336 
	C173.094345,239.197510 173.665665,249.142136 173.993515,259.541321 
	C173.589218,260.196259 173.189896,260.397797 172.312958,260.389648 
	C169.544632,258.758972 167.253922,257.337982 164.963211,255.917007 
	C164.645798,217.924500 164.328400,179.931976 163.999756,141.471207 
z"/>
<path fill="#72D561" opacity="1.000000" stroke="none" 
	d="
M140.009476,280.025604 
	C135.982620,291.068939 132.032867,302.141113 127.909988,313.148499 
	C122.383507,327.903259 116.723061,342.607819 111.047073,357.934723 
	C110.974022,358.535492 110.974861,358.991760 110.666824,359.159637 
	C109.137756,362.490082 107.916733,365.652679 106.695717,368.815247 
	C103.895477,367.196350 101.095238,365.577454 97.796417,363.670319 
	C108.973915,334.496338 120.120811,305.402283 131.959793,276.152405 
	C135.104416,277.339600 137.556946,278.682617 140.009476,280.025604 
z"/>
<path fill="#495871" opacity="1.000000" stroke="none" 
	d="
M216.883209,37.677956 
	C202.202713,46.698231 187.353516,55.472477 172.452042,64.156982 
	C160.549347,71.093819 148.582977,77.921387 136.019897,84.807159 
	C133.212845,83.174644 131.030762,81.532417 128.848679,79.890182 
	C137.671417,74.698700 146.474594,69.473633 155.321136,64.323051 
	C171.321182,55.007576 187.506058,45.995136 203.273666,36.302917 
	C208.595581,33.031582 212.499664,33.542442 216.883209,37.677956 
z"/>
<path fill="#1F2B45" opacity="1.000000" stroke="none" 
	d="
M242.507599,439.857727 
	C249.985031,444.020599 257.192505,448.155853 264.244446,452.541107 
	C274.575439,458.965485 285.299530,460.495087 296.478333,455.229401 
	C298.925323,454.076752 300.840332,451.794678 303.283203,449.883972 
	C306.670258,459.239899 296.860565,465.339020 287.871002,465.960663 
	C285.567993,466.119904 283.245148,465.991547 280.084534,465.972473 
	C276.496552,465.300751 273.755432,464.651825 270.714417,463.843323 
	C268.584625,462.795013 266.754669,461.906250 264.651062,460.824707 
	C258.920349,457.426788 253.463287,454.221588 247.793335,450.758148 
	C245.364532,449.347595 243.148636,448.195282 240.932724,447.042969 
	C239.370743,446.196747 237.808746,445.350525 236.034271,444.245850 
	C237.937195,442.638885 240.052628,441.290375 242.507599,439.857727 
z"/>
<path fill="#1F2B45" opacity="1.000000" stroke="none" 
	d="
M352.624207,374.866943 
	C361.632935,379.633148 370.355225,384.425964 378.984924,389.380066 
	C387.751373,394.412781 396.961548,395.471924 406.221924,391.618988 
	C409.658325,390.189240 412.281433,386.804718 415.525208,384.097839 
	C416.647736,396.500885 405.683289,404.588959 391.615021,401.697174 
	C389.047333,401.169342 386.487671,400.602295 383.359222,399.765015 
	C380.539124,397.987762 378.284119,396.498840 375.715729,394.870850 
	C373.572021,393.818512 371.741760,392.905243 369.646484,391.791260 
	C363.344269,388.213531 357.307007,384.836548 351.095276,381.144989 
	C349.921600,379.828857 348.922363,378.827301 347.923157,377.825714 
	C349.381165,376.871918 350.839142,375.918121 352.624207,374.866943 
z"/>
<path fill="#1D2942" opacity="1.000000" stroke="none" 
	d="
M128.475739,80.030380 
	C131.030762,81.532417 133.212845,83.174644 135.713165,84.973267 
	C136.019928,102.782143 136.008423,120.434639 135.995453,138.558929 
	C128.314148,136.392029 128.109451,135.966644 127.976814,128.156891 
	C127.734192,113.869980 127.311981,99.586090 127.080124,85.299065 
	C127.052475,83.595551 127.744408,81.880363 128.475739,80.030380 
z"/>
<path fill="#111D33" opacity="1.000000" stroke="none" 
	d="
M240.955048,447.499512 
	C243.148636,448.195282 245.364532,449.347595 247.662598,451.132965 
	C245.660873,457.846863 248.119324,462.867188 251.752426,467.389404 
	C254.363663,470.639618 257.573212,474.108429 262.239044,472.107147 
	C266.763489,470.166565 265.434601,465.775146 264.980438,462.012390 
	C264.940704,461.683319 264.942322,461.349243 264.924744,461.017487 
	C266.754669,461.906250 268.584625,462.795013 270.718445,464.238342 
	C270.685455,469.211517 270.348633,473.630127 270.011780,478.048767 
	C270.011780,478.048767 269.995422,477.999207 269.726410,477.970642 
	C268.980591,478.268616 268.503815,478.595184 268.027008,478.921783 
	C263.646210,481.867645 259.233002,481.564941 254.407669,477.863434 
	C244.568237,470.315552 240.008438,460.370605 240.955048,447.499512 
z"/>
<path fill="#78E75A" opacity="1.000000" stroke="none" 
	d="
M181.572723,255.887909 
	C181.459198,252.589111 181.680374,249.231598 181.974777,245.473129 
	C189.799942,240.810867 197.781967,236.909073 205.216385,232.151596 
	C209.584961,229.356033 213.138870,228.788574 217.211563,232.012344 
	C217.957397,232.602737 218.939148,232.895111 219.980606,233.646774 
	C207.401962,241.255371 194.654694,248.542267 181.572723,255.887909 
z"/>
<path fill="#78E75A" opacity="1.000000" stroke="none" 
	d="
M140.324524,279.877502 
	C137.556946,278.682617 135.104416,277.339600 132.282196,275.979553 
	C134.201309,274.191254 136.338333,272.165161 138.806534,270.695129 
	C147.219223,265.684570 155.748596,260.869934 164.598328,255.948761 
	C167.253922,257.337982 169.544632,258.758972 172.073761,260.415375 
	C165.807159,264.787567 159.356415,269.013306 152.776718,273.027649 
	C148.835236,275.432434 144.692078,277.506653 140.324524,279.877502 
z"/>
<path fill="#111D33" opacity="1.000000" stroke="none" 
	d="
M369.911469,391.991943 
	C371.741760,392.905243 373.572021,393.818512 375.685120,395.294922 
	C375.312408,399.589020 374.656921,403.319946 374.001404,407.050903 
	C374.001434,407.050903 373.990051,406.992859 373.761414,407.044067 
	C373.364685,407.387756 373.196625,407.680237 373.028534,407.972687 
	C367.429413,411.867645 362.227264,409.470490 357.870483,406.101257 
	C349.733734,399.808807 345.143280,391.333862 344.952026,380.363037 
	C345.718018,379.271088 346.506683,378.610260 347.609253,377.887573 
	C348.922363,378.827301 349.921600,379.828857 351.081787,381.544586 
	C350.868195,390.200195 354.145660,396.379303 360.789368,400.497253 
	C365.604004,403.481506 369.568390,401.114624 369.962830,395.443695 
	C370.042389,394.299835 369.933472,393.142853 369.911469,391.991943 
z"/>
<path fill="#1F2B45" opacity="1.000000" stroke="none" 
	d="
M107.033798,368.965424 
	C107.916733,365.652679 109.137756,362.490082 110.863785,359.436218 
	C118.469849,363.725494 125.570915,367.906006 132.671982,372.086548 
	C132.693787,375.532471 132.715591,378.978363 132.454422,382.721252 
	C124.894089,378.970306 117.614975,374.925537 110.341431,370.870789 
	C109.337425,370.311096 108.361053,369.701874 107.033798,368.965424 
z"/>
<path fill="#495871" opacity="1.000000" stroke="none" 
	d="
M270.373444,478.036133 
	C270.348633,473.630127 270.685455,469.211517 271.018311,464.397888 
	C273.755432,464.651825 276.496552,465.300751 279.626801,465.975739 
	C278.982086,471.599182 276.152100,475.809906 270.373444,478.036133 
z"/>
<path fill="#4C5C75" opacity="1.000000" stroke="none" 
	d="
M374.352570,407.007294 
	C374.656921,403.319946 375.312408,399.589020 375.998535,395.434021 
	C378.284119,396.498840 380.539124,397.987762 382.959229,399.779236 
	C380.317474,402.375732 377.510620,404.669708 374.352570,407.007294 
z"/>
<path fill="#495871" opacity="1.000000" stroke="none" 
	d="
M268.329163,478.907227 
	C268.503815,478.595184 268.980591,478.268616 269.751831,477.976501 
	C269.574615,478.304871 269.102966,478.598785 268.329163,478.907227 
z"/>
<path fill="#4C5C75" opacity="1.000000" stroke="none" 
	d="
M373.277893,407.909882 
	C373.196625,407.680237 373.364685,407.387756 373.790955,407.044128 
	C373.875183,407.277649 373.701202,407.562378 373.277893,407.909882 
z"/>
<path fill="#F9A83D" opacity="1.000000" stroke="none" 
	d="
M170.696152,350.066406 
	C173.222763,351.874664 175.442261,353.699646 177.895203,355.782349 
	C178.128662,365.122131 178.128662,374.204224 178.128662,383.446136 
	C170.402313,381.661041 169.045059,380.083282 169.051422,373.532654 
	C169.058685,366.050507 169.083145,358.568390 169.133881,350.638123 
	C169.574768,350.154388 169.981903,350.118744 170.696152,350.066406 
z"/>
<path fill="#4C5C75" opacity="1.000000" stroke="none" 
	d="
M132.761383,371.620117 
	C125.570915,367.906006 118.469849,363.725494 111.171822,359.268372 
	C110.974861,358.991760 110.974022,358.535492 111.007339,358.310120 
	C118.097527,354.170471 125.154411,350.256195 132.518768,346.213440 
	C132.834427,354.441193 132.842590,362.797455 132.761383,371.620117 
z"/>
<path fill="#000000" opacity="1.000000" stroke="none" 
	d="
M144.982697,124.179344 
	C144.988281,114.597458 145.257034,105.005257 144.881805,95.438309 
	C144.709641,91.048248 146.608566,88.806229 150.077682,86.942276 
	C154.570999,84.528023 158.937683,81.878098 163.678802,79.638931 
	C163.981125,95.272995 163.963501,110.597748 163.527496,125.949104 
	C157.066971,125.376915 151.024826,124.778130 144.982697,124.179344 
z"/>
<path fill="#000000" opacity="1.000000" stroke="none" 
	d="
M181.032990,110.194138 
	C181.021896,97.891434 181.091858,85.587738 180.942535,73.286713 
	C180.905350,70.222260 181.922684,68.457588 184.692169,67.053413 
	C190.009537,64.357445 195.120193,61.253719 200.653320,58.650269 
	C200.974640,68.299942 200.959213,77.618492 200.669922,87.130531 
	C199.645493,88.193123 198.886810,89.055374 198.145630,89.932426 
	C192.439499,96.684715 186.736771,103.439865 181.032990,110.194138 
z"/>
<path fill="#1D2942" opacity="1.000000" stroke="none" 
	d="
M163.945877,125.922501 
	C163.963501,110.597748 163.981125,95.272995 163.979370,79.481461 
	C166.247330,77.482758 168.534653,75.950844 171.412842,74.023193 
	C171.895935,76.997772 172.557266,79.189751 172.559204,81.382309 
	C172.573410,97.409279 172.455261,113.436371 171.877228,129.763046 
	C171.375565,130.062668 170.980682,129.996399 170.980682,129.996399 
	C170.980682,129.996399 170.646301,130.044617 170.222168,129.802795 
	C167.847305,128.348160 165.896591,127.135338 163.945877,125.922501 
z"/>
<path fill="#495871" opacity="1.000000" stroke="none" 
	d="
M181.037918,110.643425 
	C186.736771,103.439865 192.439499,96.684715 198.145630,89.932426 
	C198.886810,89.055374 199.645493,88.193123 201.016663,87.196480 
	C204.078079,88.400612 206.518906,89.732269 208.959717,91.063934 
	C201.876846,99.974556 194.806763,108.895401 187.702225,117.788727 
	C185.885559,120.062805 183.959900,122.249825 181.042847,125.713432 
	C181.042847,119.810143 181.042847,115.451431 181.037918,110.643425 
z"/>
<path fill="#1D2942" opacity="1.000000" stroke="none" 
	d="
M208.972778,90.589722 
	C206.518906,89.732269 204.078079,88.400612 201.290527,87.002998 
	C200.959213,77.618492 200.974640,68.299942 200.969269,58.518494 
	C203.157227,56.423843 205.366013,54.792091 208.985855,52.117897 
	C208.985855,65.712387 208.985855,77.913940 208.972778,90.589722 
z"/>
<path fill="#495871" opacity="1.000000" stroke="none" 
	d="
M163.527496,125.949112 
	C165.896591,127.135338 167.847305,128.348160 170.053375,129.808807 
	C162.256256,129.694183 154.197128,129.418030 146.164932,128.794769 
	C145.565186,128.748230 145.158234,126.216934 144.822174,124.510040 
	C151.024826,124.778130 157.066971,125.376915 163.527496,125.949112 
z"/>
<path fill="#495871" opacity="1.000000" stroke="none" 
	d="
M171.060516,130.121094 
	C170.980682,129.996399 171.375565,130.062668 171.573608,130.059937 
	C171.771667,130.057205 171.504868,130.360947 171.504868,130.360947 
	C171.504868,130.360947 171.140366,130.245804 171.060516,130.121094 
z"/>
<path fill="#CFD1D2" opacity="1.000000" stroke="none" 
	d="
M264.651062,460.824707 
	C264.942322,461.349243 264.940704,461.683319 264.980438,462.012390 
	C265.434601,465.775146 266.763489,470.166565 262.239044,472.107147 
	C257.573212,474.108429 254.363663,470.639618 251.752426,467.389404 
	C248.119324,462.867188 245.660873,457.846863 247.875488,451.391205 
	C253.463287,454.221588 258.920349,457.426788 264.651062,460.824707 
z"/>
<path fill="#F6F6F7" opacity="1.000000" stroke="none" 
	d="
M369.646484,391.791260 
	C369.933472,393.142853 370.042389,394.299835 369.962830,395.443695 
	C369.568390,401.114624 365.604004,403.481506 360.789368,400.497253 
	C354.145660,396.379303 350.868195,390.200195 351.256226,381.859131 
	C357.307007,384.836548 363.344269,388.213531 369.646484,391.791260 
z"/>
</svg>