<?xml version="1.0" encoding="UTF-8"?>
<!DOCTYPE svg PUBLIC "-//W3C//DTD SVG 1.1//EN" "http://www.w3.org/Graphics/SVG/1.1/DTD/svg11.dtd">
<svg xmlns="http://www.w3.org/2000/svg" version="1.1" width="1280px" height="475px" style="shape-rendering:geometricPrecision; text-rendering:geometricPrecision; image-rendering:optimizeQuality; fill-rule:evenodd; clip-rule:evenodd" xmlns:xlink="http://www.w3.org/1999/xlink">
<g><path style="opacity:1" fill="#fefefe" d="M -0.5,-0.5 C 426.167,-0.5 852.833,-0.5 1279.5,-0.5C 1279.5,157.833 1279.5,316.167 1279.5,474.5C 852.833,474.5 426.167,474.5 -0.5,474.5C -0.5,316.167 -0.5,157.833 -0.5,-0.5 Z"/></g>
<g><path style="opacity:1" fill="#242122" d="M 494.5,60.5 C 495.139,61.0968 495.472,61.9302 495.5,63C 494.359,69.1569 493.359,75.3236 492.5,81.5C 495.167,81.5 497.833,81.5 500.5,81.5C 500.007,83.8056 499.674,86.139 499.5,88.5C 496.5,88.5 493.5,88.5 490.5,88.5C 488.719,101.856 486.719,115.189 484.5,128.5C 484.57,129.772 484.903,130.938 485.5,132C 487.81,132.497 490.143,132.663 492.5,132.5C 492.76,140.406 489.093,143.239 481.5,141C 475.975,138.081 474.142,133.581 476,127.5C 478.6,114.565 480.767,101.565 482.5,88.5C 480.5,88.5 478.5,88.5 476.5,88.5C 475.848,82.6036 478.515,80.2703 484.5,81.5C 484.9,76.4352 485.733,71.4352 487,66.5C 489.688,64.636 492.188,62.636 494.5,60.5 Z"/></g>
<g><path style="opacity:1" fill="#242122" d="M 766.5,79.5 C 778.341,79.3293 785.508,84.996 788,96.5C 790.438,111.339 786.938,124.505 777.5,136C 769.748,141.942 761.415,142.942 752.5,139C 749.238,136.408 746.738,133.241 745,129.5C 741.797,115.85 743.464,102.85 750,90.5C 752.5,88 755,85.5 757.5,83C 760.571,81.7043 763.571,80.5377 766.5,79.5 Z"/></g>
<g><path style="opacity:1" fill="#242122" d="M 559.5,79.5 C 575.388,79.2165 582.221,86.8831 580,102.5C 578.588,110.228 576.921,117.895 575,125.5C 574.223,130.222 574.39,134.889 575.5,139.5C 572.572,140.484 569.572,140.817 566.5,140.5C 566.663,138.143 566.497,135.81 566,133.5C 558.753,141.364 550.253,143.198 540.5,139C 533.117,130.228 532.617,121.061 539,111.5C 541.251,109.623 543.751,108.123 546.5,107C 554.882,106.061 563.216,104.895 571.5,103.5C 574.347,90.8483 569.347,86.015 556.5,89C 552.167,90.6667 549.167,93.6667 547.5,98C 544.854,98.4974 542.187,98.6641 539.5,98.5C 542.34,87.9898 549.007,81.6565 559.5,79.5 Z"/></g>
<g><path style="opacity:1" fill="#fcfcfc" d="M 765.5,87.5 C 776.623,87.8031 781.623,93.6364 780.5,105C 780.69,115.614 777.023,124.614 769.5,132C 760.364,135.85 754.531,133.017 752,123.5C 750.203,112.697 752.203,102.697 758,93.5C 760.114,90.8792 762.614,88.8792 765.5,87.5 Z"/></g>
<g><path style="opacity:1" fill="#252223" d="M 529.5,79.5 C 532.475,79.7134 535.142,80.7134 537.5,82.5C 536.162,85.1756 534.829,87.8422 533.5,90.5C 527.772,88.6062 523.272,90.2728 520,95.5C 518.667,98.1667 517.333,100.833 516,103.5C 513.573,115.49 511.24,127.49 509,139.5C 506.619,140.435 504.119,140.768 501.5,140.5C 504.511,120.77 507.844,101.103 511.5,81.5C 513.833,81.5 516.167,81.5 518.5,81.5C 518.123,84.5248 517.956,87.5248 518,90.5C 521.095,85.9018 524.928,82.2352 529.5,79.5 Z"/></g>
<g><path style="opacity:1" fill="#8c191c" d="M 452.5,174.5 C 450.369,175.314 448.036,175.814 445.5,176C 440.387,179.113 435.887,182.946 432,187.5C 431.51,188.793 431.343,190.127 431.5,191.5C 430.5,191.5 429.5,191.5 428.5,191.5C 428.843,193.483 428.176,194.817 426.5,195.5C 417.43,156.197 396.097,125.364 362.5,103C 343.122,89.7541 322.122,79.7541 299.5,73C 295.148,71.4281 294.815,69.7615 298.5,68C 342.581,68.4703 381.248,83.137 414.5,112C 433.165,129.169 445.831,150.003 452.5,174.5 Z"/></g>
<g><path style="opacity:1" fill="#193d6c" d="M 226.5,65.5 C 234.201,65.3089 241.868,65.6423 249.5,66.5C 249.719,67.675 249.386,68.675 248.5,69.5C 209.766,81.4393 176.599,102.106 149,131.5C 118.117,170.742 109.117,214.742 122,263.5C 133.197,301.4 154.03,332.9 184.5,358C 201.608,371.748 220.274,383.081 240.5,392C 241.257,393.512 242.257,394.846 243.5,396C 186.95,388.48 143.45,360.646 113,312.5C 86.7588,270.756 79.4255,225.756 91,177.5C 103.192,134.626 129.358,103.459 169.5,84C 187.86,75.4667 206.86,69.3 226.5,65.5 Z"/></g>
<g><path style="opacity:1" fill="#f9f9f9" d="M 567.5,110.5 C 569.177,118.151 566.844,124.984 560.5,131C 555.384,134.053 550.217,134.22 545,131.5C 541.128,125.311 541.962,119.811 547.5,115C 554.317,113.536 560.984,112.036 567.5,110.5 Z"/></g>
<g><path style="opacity:1" fill="#242122" d="M 847.5,60.5 C 848.152,61.4486 848.486,62.6153 848.5,64C 847.658,69.8848 846.658,75.7181 845.5,81.5C 848.247,81.1866 850.914,81.52 853.5,82.5C 852.652,84.4086 852.318,86.4086 852.5,88.5C 849.552,88.2229 846.719,88.5562 844,89.5C 841.753,102.322 839.586,115.156 837.5,128C 837.559,129.436 837.892,130.769 838.5,132C 840.9,132.186 843.234,132.686 845.5,133.5C 844.499,141.58 840.166,143.747 832.5,140C 830.03,137.934 828.696,135.267 828.5,132C 830.883,117.482 833.216,102.982 835.5,88.5C 833.208,88.7564 831.041,88.4231 829,87.5C 828.167,88.5 827.333,89.5 826.5,90.5C 824.232,89.4557 821.899,89.289 819.5,90C 812.337,96.1559 808.17,103.989 807,113.5C 805.76,121.848 804.426,130.181 803,138.5C 800.53,140.487 797.697,140.987 794.5,140C 797.991,120.555 801.324,101.055 804.5,81.5C 806.833,81.5 809.167,81.5 811.5,81.5C 811.368,84.8895 811.201,88.2228 811,91.5C 813.5,86.3333 817.333,82.5 822.5,80C 827.393,80.9016 832.393,81.4016 837.5,81.5C 837.685,76.3926 838.518,71.3926 840,66.5C 842.688,64.636 845.188,62.636 847.5,60.5 Z"/></g>
<g><path style="opacity:1" fill="#242122" d="M 615.5,80.5 C 627.851,78.3529 633.851,83.5195 633.5,96C 631.379,110.223 628.879,124.39 626,138.5C 623.544,140.321 620.711,140.988 617.5,140.5C 620.541,125.423 623.208,110.256 625.5,95C 625.141,90.3049 622.641,88.1382 618,88.5C 611.704,89.4503 607.037,92.7836 604,98.5C 599.77,112.211 596.937,126.211 595.5,140.5C 592.5,140.5 589.5,140.5 586.5,140.5C 590.156,120.897 593.489,101.23 596.5,81.5C 599.167,81.5 601.833,81.5 604.5,81.5C 603.671,84.4686 603.505,87.4686 604,90.5C 607.357,86.5788 611.19,83.2454 615.5,80.5 Z"/></g>
<g><path style="opacity:1" fill="#242122" d="M 716.5,79.5 C 725.716,79.8775 731.549,84.5442 734,93.5C 736.686,107.984 734.02,121.317 726,133.5C 715.627,144.782 706.294,144.115 698,131.5C 695.841,142.121 694.008,152.788 692.5,163.5C 689.833,163.5 687.167,163.5 684.5,163.5C 688.199,136.304 692.866,109.304 698.5,82.5C 700.743,81.5258 703.076,81.1924 705.5,81.5C 705.338,83.5273 705.505,85.5273 706,87.5C 708.855,83.7893 712.355,81.1226 716.5,79.5 Z"/></g>
<g><path style="opacity:1" fill="#fbfbfb" d="M 715.5,87.5 C 719.737,87.8654 722.904,89.8654 725,93.5C 729.01,107.951 726.176,120.784 716.5,132C 709.949,134.811 705.115,132.977 702,126.5C 698.98,112.926 701.814,100.76 710.5,90C 712.315,89.2432 713.981,88.4098 715.5,87.5 Z"/></g>
<g><path style="opacity:1" fill="#252122" d="M 662.5,79.5 C 675.55,79.2186 682.55,85.5519 683.5,98.5C 680.873,99.0916 678.206,99.4249 675.5,99.5C 674.282,88.9187 668.616,85.4187 658.5,89C 654.302,93.632 654.636,97.9654 659.5,102C 667.415,105.03 673.915,109.863 679,116.5C 681.655,135.179 673.488,143.346 654.5,141C 644.215,137.617 639.548,130.45 640.5,119.5C 643.167,119.5 645.833,119.5 648.5,119.5C 648.925,131.425 654.925,135.925 666.5,133C 671.609,129.634 672.776,125.134 670,119.5C 663.748,115.625 657.581,111.625 651.5,107.5C 645.279,97.754 646.613,89.254 655.5,82C 657.927,81.0977 660.26,80.2644 662.5,79.5 Z"/></g>
<g><path style="opacity:1" fill="#252223" d="M 878.5,79.5 C 889.578,78.9517 896.745,83.9517 900,94.5C 900.5,100.825 900.666,107.158 900.5,113.5C 888.5,113.5 876.5,113.5 864.5,113.5C 863.202,121.726 865.869,128.226 872.5,133C 880.91,133.451 886.576,129.618 889.5,121.5C 891.765,120.353 894.098,120.186 896.5,121C 895.699,131.49 890.032,138.157 879.5,141C 870.328,142.83 863.495,139.664 859,131.5C 852.791,112.864 856.625,96.6971 870.5,83C 873.309,81.9066 875.976,80.7399 878.5,79.5 Z"/></g>
<g><path style="opacity:1" fill="#f9f9f9" d="M 878.5,87.5 C 889.871,87.8886 894.871,93.8886 893.5,105.5C 884.5,105.5 875.5,105.5 866.5,105.5C 867.521,97.444 871.521,91.444 878.5,87.5 Z"/></g>
<g><path style="opacity:1" fill="#231f20" d="M 347.5,300.5 C 367.004,301.167 386.671,301.833 406.5,302.5C 402.907,310.031 398.574,317.031 393.5,323.5C 372.115,322.791 350.781,321.291 329.5,319C 293.503,314.668 257.503,310.335 221.5,306C 205.427,303.569 190.427,298.236 176.5,290C 169.333,283.872 165.833,276.039 166,266.5C 165.022,234.796 165.689,203.13 168,171.5C 177.025,149.904 192.858,142.071 215.5,148C 225.761,154.926 233.927,163.76 240,174.5C 250.711,195.256 260.878,216.256 270.5,237.5C 273.482,234.217 275.982,230.551 278,226.5C 289.093,202.646 300.926,179.313 313.5,156.5C 325.825,143.797 340.492,140.297 357.5,146C 365.399,149.356 371.233,154.856 375,162.5C 376.237,173.109 376.903,183.775 377,194.5C 377.667,219.167 377.667,243.833 377,268.5C 366.088,270.464 354.922,271.131 343.5,270.5C 343.253,248.656 343.586,226.822 344.5,205C 344.569,198.579 343.403,192.412 341,186.5C 340.261,185.426 339.261,184.759 338,184.5C 334.29,186.544 331.624,189.544 330,193.5C 317.839,219.989 305.005,246.156 291.5,272C 277.833,272.667 264.167,272.667 250.5,272C 248.641,270.442 247.141,268.609 246,266.5C 234.727,243.622 223.727,220.622 213,197.5C 206.374,183.705 201.708,184.372 199,199.5C 198.333,222.5 198.333,245.5 199,268.5C 199.13,272.939 201.296,275.772 205.5,277C 221.173,283.002 237.173,288.002 253.5,292C 284.669,296.853 316.002,299.686 347.5,300.5 Z"/></g>
<g><path style="opacity:1" fill="#231f20" d="M 1116.5,157.5 C 1124.87,157.377 1133.2,157.877 1141.5,159C 1145.47,159.964 1148.64,162.131 1151,165.5C 1153.41,180.116 1153.74,194.783 1152,209.5C 1149.5,214.645 1145.34,217.478 1139.5,218C 1110.83,219.099 1082.17,219.932 1053.5,220.5C 1053.5,233.167 1053.5,245.833 1053.5,258.5C 1044.5,259.792 1035.5,259.792 1026.5,258.5C 1026.5,225.833 1026.5,193.167 1026.5,160.5C 1056.64,159.105 1086.64,158.105 1116.5,157.5 Z"/></g>
<g><path style="opacity:1" fill="#242021" d="M 1008.5,258.5 C 1000.5,258.5 992.5,258.5 984.5,258.5C 984.827,249.318 984.493,240.318 983.5,231.5C 983.698,221.796 983.198,212.13 982,202.5C 981.77,198.71 980.437,195.376 978,192.5C 974.837,196.156 972.171,200.156 970,204.5C 961.846,222.806 953.18,240.806 944,258.5C 941.734,259.956 939.234,260.79 936.5,261C 928.089,261.905 919.755,261.572 911.5,260C 900.045,240.263 889.212,220.096 879,199.5C 877.654,196.821 875.654,194.821 873,193.5C 872.228,193.645 871.561,193.978 871,194.5C 870.5,216.831 870.333,239.164 870.5,261.5C 862.833,261.5 855.167,261.5 847.5,261.5C 846.414,236.847 846.248,212.18 847,187.5C 848.311,172.188 856.645,164.522 872,164.5C 875.235,164.582 878.402,165.082 881.5,166C 890.573,171.619 897.74,179.119 903,188.5C 910.052,202.328 916.719,216.328 923,230.5C 925.135,235.325 927.801,235.659 931,231.5C 937.509,218.82 943.176,205.82 948,192.5C 951.397,185.374 955.063,178.374 959,171.5C 970.416,160.458 983.249,158.625 997.5,166C 1001.1,168.708 1003.6,172.208 1005,176.5C 1006.52,182.075 1007.52,187.742 1008,193.5C 1009.41,215.186 1009.58,236.852 1008.5,258.5 Z"/></g>
<g><path style="opacity:1" fill="#232021" d="M 803.5,166.5 C 811.5,166.5 819.5,166.5 827.5,166.5C 827.833,198.174 827.5,229.84 826.5,261.5C 818.955,264.102 811.455,264.102 804,261.5C 803.5,229.835 803.333,198.168 803.5,166.5 Z"/></g>
<g><path style="opacity:1" fill="#231f20" d="M 722.5,166.5 C 742.527,166.215 762.527,166.548 782.5,167.5C 783.546,174.13 783.713,180.797 783,187.5C 782.626,188.416 782.126,189.25 781.5,190C 756.857,191.055 732.191,192.055 707.5,193C 704,193.833 701.833,196 701,199.5C 698.603,212.017 699.269,224.35 703,236.5C 704.8,238.317 706.966,239.484 709.5,240C 734.154,239.336 758.82,239.003 783.5,239C 785.032,242.975 785.698,247.142 785.5,251.5C 785.461,254.887 785.128,258.22 784.5,261.5C 779.99,263.053 775.324,263.886 770.5,264C 745.833,264.667 721.167,264.667 696.5,264C 687.231,263.384 680.731,258.884 677,250.5C 675.083,238.09 674.249,225.59 674.5,213C 674.411,204.117 674.911,195.284 676,186.5C 680.486,174.324 689.319,168.157 702.5,168C 709.346,167.828 716.013,167.328 722.5,166.5 Z"/></g>
<g><path style="opacity:1" fill="#231f20" d="M 665.5,262.5 C 665.5,263.5 665.5,264.5 665.5,265.5C 657.5,265.5 649.5,265.5 641.5,265.5C 639.807,257.062 637.64,248.728 635,240.5C 633.561,237.397 631.727,234.564 629.5,232C 606.825,229.936 584.159,230.103 561.5,232.5C 561.602,244.183 561.269,255.85 560.5,267.5C 552.833,267.5 545.167,267.5 537.5,267.5C 536.26,235.832 536.26,204.165 537.5,172.5C 573.147,170.836 608.814,170.336 644.5,171C 650.1,171.541 653.934,174.374 656,179.5C 656.334,186.181 656.834,192.847 657.5,199.5C 657.436,208.364 654.436,216.031 648.5,222.5C 652.186,226.352 655.686,230.352 659,234.5C 662.115,243.624 664.281,252.957 665.5,262.5 Z"/></g>
<g><path style="opacity:1" fill="#f3f3f3" d="M 1052.5,180.5 C 1075.84,180.333 1099.17,180.5 1122.5,181C 1128.37,184.016 1129.87,188.516 1127,194.5C 1125.2,196.317 1123.03,197.484 1120.5,198C 1098.17,198.667 1075.83,198.667 1053.5,198C 1051.16,192.379 1050.83,186.546 1052.5,180.5 Z"/></g>
<g><path style="opacity:1" fill="#f1f3f3" d="M 309.5,154.5 C 309.714,156.144 309.38,157.644 308.5,159C 310.061,159.188 310.728,158.355 310.5,156.5C 311.5,156.5 312.5,156.5 313.5,156.5C 300.926,179.313 289.093,202.646 278,226.5C 275.982,230.551 273.482,234.217 270.5,237.5C 260.878,216.256 250.711,195.256 240,174.5C 233.927,163.76 225.761,154.926 215.5,148C 192.858,142.071 177.025,149.904 168,171.5C 165.689,203.13 165.022,234.796 166,266.5C 165.833,276.039 169.333,283.872 176.5,290C 190.427,298.236 205.427,303.569 221.5,306C 257.503,310.335 293.503,314.668 329.5,319C 350.781,321.291 372.115,322.791 393.5,323.5C 393.5,324.167 393.5,324.833 393.5,325.5C 389.845,330.486 385.845,335.153 381.5,339.5C 381.5,338.833 381.5,338.167 381.5,337.5C 384.257,334.878 386.924,332.045 389.5,329C 353.509,327.705 317.842,323.705 282.5,317C 255.584,315.107 228.917,311.441 202.5,306C 170.329,298.186 155.329,277.686 157.5,244.5C 158.301,224.145 159.468,203.811 161,183.5C 162.631,163.551 172.464,149.384 190.5,141C 203.759,137.237 215.759,139.57 226.5,148C 232.168,153.188 237.002,159.021 241,165.5C 249.333,182.833 257.667,200.167 266,217.5C 267.421,220.009 269.088,222.343 271,224.5C 274.74,220.689 277.74,216.356 280,211.5C 285.785,197.262 292.118,183.262 299,169.5C 302.03,164.084 305.53,159.084 309.5,154.5 Z"/></g>
<g><path style="opacity:1" fill="#f5f5f5" d="M 579.5,193.5 C 596.548,193.073 613.548,193.573 630.5,195C 631.456,198.394 631.789,201.894 631.5,205.5C 609.586,208.284 587.586,209.117 565.5,208C 564.234,207.691 563.067,207.191 562,206.5C 561.333,203.167 561.333,199.833 562,196.5C 562.5,196 563,195.5 563.5,195C 569.016,194.827 574.349,194.327 579.5,193.5 Z"/></g>
<g><path style="opacity:1" fill="#242122" d="M 411.5,285.5 C 412.263,286.268 413.263,286.768 414.5,287C 412.562,290.209 410.895,293.543 409.5,297C 400.892,296.591 392.226,296.424 383.5,296.5C 353.13,296.256 322.796,295.089 292.5,293C 268.797,289.663 245.297,285.497 222,280.5C 221.833,280.167 221.667,279.833 221.5,279.5C 223.766,278.686 226.1,278.186 228.5,278C 244.505,277.414 260.505,277.581 276.5,278.5C 282.232,278.562 287.898,278.062 293.5,277C 294.333,276.167 295.167,275.333 296,274.5C 308.989,247.854 322.489,221.52 336.5,195.5C 337.251,196.376 337.751,197.376 338,198.5C 338.018,224.254 338.685,249.92 340,275.5C 353.42,278.286 366.753,277.953 380,274.5C 381.895,267.125 382.729,259.625 382.5,252C 382.234,227.845 382.068,203.678 382,179.5C 382.206,153.045 369.206,138.711 343,136.5C 328.744,136.876 317.577,142.876 309.5,154.5C 305.53,159.084 302.03,164.084 299,169.5C 292.118,183.262 285.785,197.262 280,211.5C 277.74,216.356 274.74,220.689 271,224.5C 269.088,222.343 267.421,220.009 266,217.5C 257.667,200.167 249.333,182.833 241,165.5C 237.002,159.021 232.168,153.188 226.5,148C 215.759,139.57 203.759,137.237 190.5,141C 172.464,149.384 162.631,163.551 161,183.5C 159.468,203.811 158.301,224.145 157.5,244.5C 155.329,277.686 170.329,298.186 202.5,306C 228.917,311.441 255.584,315.107 282.5,317C 317.842,323.705 353.509,327.705 389.5,329C 386.924,332.045 384.257,334.878 381.5,337.5C 334.148,332.544 286.815,327.377 239.5,322C 222.485,318.775 205.485,315.442 188.5,312C 163.828,304.867 150.995,288.367 150,262.5C 148.963,232.022 150.629,201.688 155,171.5C 160.308,144.516 176.641,131.182 204,131.5C 220.72,131.527 234.054,138.194 244,151.5C 252.196,164.744 258.862,178.744 264,193.5C 266.018,197.551 268.518,201.217 271.5,204.5C 278.571,193.133 284.404,181.133 289,168.5C 293.333,161.833 297.667,155.167 302,148.5C 322.517,124.922 346.351,121.089 373.5,137C 381.598,143.693 386.765,152.193 389,162.5C 391.086,203.473 391.586,244.473 390.5,285.5C 397.5,285.5 404.5,285.5 411.5,285.5 Z"/></g>
<g><path style="opacity:1" fill="#231f20" d="M 523.5,265.5 C 513.889,267.474 503.889,268.141 493.5,267.5C 490.302,262.277 486.969,257.11 483.5,252C 474.84,251.5 466.173,251.334 457.5,251.5C 449.826,251.334 442.159,251.5 434.5,252C 430.735,257.057 427.902,262.557 426,268.5C 424.871,270.141 423.371,271.141 421.5,271.5C 413.016,270.507 404.349,270.174 395.5,270.5C 405.638,245.419 415.971,220.419 426.5,195.5C 428.176,194.817 428.843,193.483 428.5,191.5C 429.5,191.5 430.5,191.5 431.5,191.5C 431.343,190.127 431.51,188.793 432,187.5C 435.887,182.946 440.387,179.113 445.5,176C 448.036,175.814 450.369,175.314 452.5,174.5C 465.342,172.164 475.842,176.164 484,186.5C 497.149,212.798 510.315,239.131 523.5,265.5 Z"/></g>
<g><path style="opacity:1" fill="#f7f7f7" d="M 459.5,203.5 C 466.046,211.92 471.046,221.254 474.5,231.5C 474.182,232.647 473.516,233.481 472.5,234C 468.168,234.583 463.835,235.083 459.5,235.5C 459.827,225.319 459.494,215.319 458.5,205.5C 458.328,204.508 458.662,203.842 459.5,203.5 Z"/></g>
<g><path style="opacity:1" fill="#89181b" d="M 459.5,203.5 C 458.662,203.842 458.328,204.508 458.5,205.5C 458.5,214.833 458.5,224.167 458.5,233.5C 453.125,233.828 447.792,233.495 442.5,232.5C 443.325,230.199 443.992,227.865 444.5,225.5C 447.143,217.944 450.643,210.611 455,203.5C 456.616,202.199 458.116,202.199 459.5,203.5 Z"/></g>
<g><path style="opacity:1" fill="#fcfcfc" d="M 328.5,229.5 C 329.497,247.993 329.83,266.659 329.5,285.5C 321.183,284.668 312.85,284.001 304.5,283.5C 305.621,277.303 307.454,271.303 310,265.5C 315.909,253.348 322.076,241.348 328.5,229.5 Z"/></g>
<g><path style="opacity:1" fill="#929091" d="M 329.5,285.5 C 329.83,266.659 329.497,247.993 328.5,229.5C 328.783,228.711 329.283,228.044 330,227.5C 330.829,247.004 330.662,266.338 329.5,285.5 Z"/></g>
<g><path style="opacity:1" fill="#772a2d" d="M 458.5,205.5 C 459.494,215.319 459.827,225.319 459.5,235.5C 453.5,235.5 447.5,235.5 441.5,235.5C 441.288,231.655 442.288,228.321 444.5,225.5C 443.992,227.865 443.325,230.199 442.5,232.5C 447.792,233.495 453.125,233.828 458.5,233.5C 458.5,224.167 458.5,214.833 458.5,205.5 Z"/></g>
<g><path style="opacity:1" fill="#f4f6f7" d="M 383.5,296.5 C 389.319,297.328 395.319,297.828 401.5,298C 401.043,298.414 400.709,298.914 400.5,299.5C 382.846,300.5 365.179,300.833 347.5,300.5C 316.002,299.686 284.669,296.853 253.5,292C 237.173,288.002 221.173,283.002 205.5,277C 201.296,275.772 199.13,272.939 199,268.5C 198.333,245.5 198.333,222.5 199,199.5C 201.708,184.372 206.374,183.705 213,197.5C 223.727,220.622 234.727,243.622 246,266.5C 247.141,268.609 248.641,270.442 250.5,272C 264.167,272.667 277.833,272.667 291.5,272C 305.005,246.156 317.839,219.989 330,193.5C 331.624,189.544 334.29,186.544 338,184.5C 339.261,184.759 340.261,185.426 341,186.5C 343.403,192.412 344.569,198.579 344.5,205C 343.586,226.822 343.253,248.656 343.5,270.5C 354.922,271.131 366.088,270.464 377,268.5C 377.667,243.833 377.667,219.167 377,194.5C 376.903,183.775 376.237,173.109 375,162.5C 371.233,154.856 365.399,149.356 357.5,146C 340.492,140.297 325.825,143.797 313.5,156.5C 312.5,156.5 311.5,156.5 310.5,156.5C 310.728,158.355 310.061,159.188 308.5,159C 309.38,157.644 309.714,156.144 309.5,154.5C 317.577,142.876 328.744,136.876 343,136.5C 369.206,138.711 382.206,153.045 382,179.5C 382.068,203.678 382.234,227.845 382.5,252C 382.729,259.625 381.895,267.125 380,274.5C 366.753,277.953 353.42,278.286 340,275.5C 338.685,249.92 338.018,224.254 338,198.5C 337.751,197.376 337.251,196.376 336.5,195.5C 322.489,221.52 308.989,247.854 296,274.5C 295.167,275.333 294.333,276.167 293.5,277C 287.898,278.062 282.232,278.562 276.5,278.5C 260.505,277.581 244.505,277.414 228.5,278C 226.1,278.186 223.766,278.686 221.5,279.5C 221.667,279.833 221.833,280.167 222,280.5C 245.297,285.497 268.797,289.663 292.5,293C 322.796,295.089 353.13,296.256 383.5,296.5 Z"/></g>
<g><path style="opacity:1" fill="#252324" d="M 1102.5,238.5 C 1103.5,238.5 1104.5,238.5 1105.5,238.5C 1105.33,240.492 1106,242.158 1107.5,243.5C 1106.37,244.262 1105.21,244.929 1104,245.5C 1103.32,248.55 1102.49,251.55 1101.5,254.5C 1102.5,255.167 1103.5,255.833 1104.5,256.5C 1102.12,257.956 1100.12,257.623 1098.5,255.5C 1099.5,252.167 1100.5,248.833 1101.5,245.5C 1098.86,243.936 1099.03,242.603 1102,241.5C 1102.48,240.552 1102.65,239.552 1102.5,238.5 Z"/></g>
<g><path style="opacity:1" fill="#282627" d="M 1134.5,242.5 C 1137.93,242.107 1141.1,242.773 1144,244.5C 1143.84,248.837 1143.34,253.17 1142.5,257.5C 1138.26,257.224 1133.93,257.057 1129.5,257C 1126.83,254.321 1127.16,251.988 1130.5,250C 1134.09,248.892 1137.75,248.392 1141.5,248.5C 1141.67,247.178 1141.34,246.011 1140.5,245C 1136.95,244.489 1133.62,244.822 1130.5,246C 1131.73,244.595 1133.06,243.429 1134.5,242.5 Z"/></g>
<g><path style="opacity:1" fill="#2c2a2b" d="M 1124.5,237.5 C 1125.68,237.281 1126.68,237.614 1127.5,238.5C 1125.67,244.804 1124.01,251.137 1122.5,257.5C 1118.99,257.236 1115.32,257.069 1111.5,257C 1107.57,252.54 1107.91,248.206 1112.5,244C 1115.79,241.926 1118.96,242.092 1122,244.5C 1122.99,242.192 1123.82,239.859 1124.5,237.5 Z"/></g>
<g><path style="opacity:0" fill="#f4f4f4" d="M 1115.5,244.5 C 1121.53,245.004 1123.03,248.004 1120,253.5C 1117.78,255.619 1115.28,255.952 1112.5,254.5C 1111.98,253.393 1111.64,252.226 1111.5,251C 1112.21,248.458 1113.54,246.292 1115.5,244.5 Z"/></g>
<g><path style="opacity:1" fill="#efeeef" d="M 1133.5,250.5 C 1142.15,250.6 1142.48,252.6 1134.5,256.5C 1131.03,254.916 1130.69,252.916 1133.5,250.5 Z"/></g>
<g><path style="opacity:1" fill="#8b1a1c" d="M 457.5,251.5 C 455.79,263.631 452.456,275.298 447.5,286.5C 439.112,304.947 428.445,321.947 415.5,337.5C 385.66,372.363 347.993,392.363 302.5,397.5C 303.648,395.851 304.981,394.351 306.5,393C 335.405,380.556 360.405,362.722 381.5,339.5C 385.845,335.153 389.845,330.486 393.5,325.5C 403.181,313.49 410.848,300.157 416.5,285.5C 418.165,280.838 419.832,276.172 421.5,271.5C 423.371,271.141 424.871,270.141 426,268.5C 427.902,262.557 430.735,257.057 434.5,252C 442.159,251.5 449.826,251.334 457.5,251.5 Z"/></g>
<g><path style="opacity:1" fill="#242223" d="M 1083.5,237.5 C 1084.5,237.5 1085.5,237.5 1086.5,237.5C 1085.17,243.494 1083.84,249.494 1082.5,255.5C 1086.85,255.334 1091.18,255.501 1095.5,256C 1090.01,257.614 1084.34,257.947 1078.5,257C 1080.48,250.594 1082.15,244.094 1083.5,237.5 Z"/></g>
<g><path style="opacity:1" fill="#2f2f2f" d="M 1148.5,254.5 C 1149.5,254.5 1150.5,254.5 1151.5,254.5C 1151.5,255.5 1151.5,256.5 1151.5,257.5C 1150.5,257.5 1149.5,257.5 1148.5,257.5C 1148.5,256.5 1148.5,255.5 1148.5,254.5 Z"/></g>
<g><path style="opacity:1" fill="#9e9c9d" d="M 983.5,231.5 C 984.493,240.318 984.827,249.318 984.5,258.5C 992.5,258.5 1000.5,258.5 1008.5,258.5C 1000.35,259.493 992.017,259.826 983.5,259.5C 983.5,250.167 983.5,240.833 983.5,231.5 Z"/></g>
<g><path style="opacity:1" fill="#949293" d="M 665.5,262.5 C 666.434,263.568 666.768,264.901 666.5,266.5C 657.983,266.826 649.65,266.493 641.5,265.5C 649.5,265.5 657.5,265.5 665.5,265.5C 665.5,264.5 665.5,263.5 665.5,262.5 Z"/></g>
<g><path style="opacity:1" fill="#5f5d5e" d="M 523.5,265.5 C 524.404,266.209 524.737,267.209 524.5,268.5C 513.986,268.828 503.653,268.494 493.5,267.5C 503.889,268.141 513.889,267.474 523.5,265.5 Z"/></g>
<g><path style="opacity:1" fill="#242122" d="M 417.5,338.5 C 419.596,334.276 422.596,330.943 426.5,328.5C 436.12,329.789 445.787,330.622 455.5,331C 518.878,332.589 582.211,335.256 645.5,339C 670.293,341.016 694.96,344.016 719.5,348C 752.526,353.452 783.526,364.452 812.5,381C 819.88,387.382 827.547,393.382 835.5,399C 840.172,401.837 845.172,403.837 850.5,405C 943.827,404.732 1037.16,404.399 1130.5,404C 1149.2,403.823 1167.87,402.99 1186.5,401.5C 1183.39,396.888 1179.72,392.722 1175.5,389C 1138.11,355.128 1095.11,330.795 1046.5,316C 1002.14,304.566 957.136,296.566 911.5,292C 883.539,289.125 855.539,286.791 827.5,285C 803.5,284.333 779.5,284.333 755.5,285C 715.521,286.769 675.521,287.769 635.5,288C 578.497,290.5 521.497,293 464.5,295.5C 457.833,295.333 451.167,295.167 444.5,295C 445.991,292.692 446.991,290.192 447.5,287.5C 448.482,286.859 449.482,286.193 450.5,285.5C 455.451,286.142 460.451,286.475 465.5,286.5C 570.135,281.875 674.802,278.208 779.5,275.5C 856.667,274.791 933.001,282.291 1008.5,298C 1055.08,308.624 1098.41,326.624 1138.5,352C 1156.17,365.167 1173.83,378.333 1191.5,391.5C 1192.5,398.134 1192.83,404.8 1192.5,411.5C 1130.16,412.135 1067.83,413.135 1005.5,414.5C 951.828,413.373 898.161,413.207 844.5,414C 840.714,412.607 837.048,410.941 833.5,409C 822.167,401 810.833,393 799.5,385C 770.893,370.132 740.559,360.465 708.5,356C 664.342,350.1 620.009,346.1 575.5,344C 535.508,342.744 495.508,341.744 455.5,341C 442.729,340.857 430.063,340.023 417.5,338.5 Z"/></g>
<g><path style="opacity:1" fill="#f4f4f4" d="M 417.5,338.5 C 416.833,338.167 416.167,337.833 415.5,337.5C 428.445,321.947 439.112,304.947 447.5,286.5C 447.5,286.833 447.5,287.167 447.5,287.5C 446.991,290.192 445.991,292.692 444.5,295C 451.167,295.167 457.833,295.333 464.5,295.5C 521.497,293 578.497,290.5 635.5,288C 675.521,287.769 715.521,286.769 755.5,285C 779.5,284.333 803.5,284.333 827.5,285C 855.539,286.791 883.539,289.125 911.5,292C 957.136,296.566 1002.14,304.566 1046.5,316C 1095.11,330.795 1138.11,355.128 1175.5,389C 1179.72,392.722 1183.39,396.888 1186.5,401.5C 1167.87,402.99 1149.2,403.823 1130.5,404C 1037.16,404.399 943.827,404.732 850.5,405C 845.172,403.837 840.172,401.837 835.5,399C 827.547,393.382 819.88,387.382 812.5,381C 783.526,364.452 752.526,353.452 719.5,348C 694.96,344.016 670.293,341.016 645.5,339C 582.211,335.256 518.878,332.589 455.5,331C 445.787,330.622 436.12,329.789 426.5,328.5C 422.596,330.943 419.596,334.276 417.5,338.5 Z"/></g>
<g><path style="opacity:1" fill="#231f20" d="M 745.5,290.5 C 815.238,288.859 884.571,293.359 953.5,304C 1008.97,312.449 1061.97,328.782 1112.5,353C 1129.2,363.012 1145.2,374.012 1160.5,386C 1164.02,389.349 1167.35,392.849 1170.5,396.5C 1062.83,397.758 955.165,398.591 847.5,399C 844.126,398.479 841.126,397.146 838.5,395C 824.012,381.584 807.679,370.918 789.5,363C 748.421,346.398 705.754,336.398 661.5,333C 583.222,327.98 504.889,325.646 426.5,326C 431.34,317.984 436.674,310.318 442.5,303C 447.644,300.73 452.978,299.063 458.5,298C 470.306,296.964 482.139,296.464 494,296.5C 519.498,297.333 544.998,297.5 570.5,297C 628.98,294.454 687.313,292.287 745.5,290.5 Z"/></g>
<g><path style="opacity:1" fill="#e4dede" d="M 411.5,285.5 C 413.167,285.5 414.833,285.5 416.5,285.5C 410.848,300.157 403.181,313.49 393.5,325.5C 393.5,324.833 393.5,324.167 393.5,323.5C 398.574,317.031 402.907,310.031 406.5,302.5C 386.671,301.833 367.004,301.167 347.5,300.5C 365.179,300.833 382.846,300.5 400.5,299.5C 400.709,298.914 401.043,298.414 401.5,298C 395.319,297.828 389.319,297.328 383.5,296.5C 392.226,296.424 400.892,296.591 409.5,297C 410.895,293.543 412.562,290.209 414.5,287C 413.263,286.768 412.263,286.268 411.5,285.5 Z"/></g>
<g><path style="opacity:1" fill="#6e6e6f" d="M 506.5,312.5 C 508.924,312.192 511.257,312.526 513.5,313.5C 513.376,314.107 513.043,314.44 512.5,314.5C 510.5,313.833 508.5,313.167 506.5,312.5 Z"/></g>
<g><path style="opacity:1" fill="#f2f5f6" d="M 506.5,312.5 C 508.5,313.167 510.5,313.833 512.5,314.5C 502.127,316.986 491.794,316.986 481.5,314.5C 482.729,313.719 484.062,313.219 485.5,313C 492.492,312.5 499.492,312.334 506.5,312.5 Z"/></g>
<g><path style="opacity:1" fill="#eef0f1" d="M 653.5,314.5 C 662.94,314.055 672.274,314.555 681.5,316C 672.323,318.438 662.989,319.104 653.5,318C 648.196,316.52 648.196,315.353 653.5,314.5 Z"/></g>
<g><path style="opacity:1" fill="#f2f0f1" d="M 742.5,314.5 C 750.498,314.165 758.165,315.499 765.5,318.5C 765.291,319.086 764.957,319.586 764.5,320C 756.679,322.058 749.179,321.224 742,317.5C 741.53,316.423 741.697,315.423 742.5,314.5 Z"/></g>
<g><path style="opacity:1" fill="#f0f1f3" d="M 572.5,313.5 C 579.841,313.334 587.174,313.5 594.5,314C 596.256,314.202 597.922,314.702 599.5,315.5C 597.228,316.485 594.895,317.319 592.5,318C 585.5,318.667 578.5,318.667 571.5,318C 569.714,317.804 568.381,316.971 567.5,315.5C 569.291,314.83 570.958,314.163 572.5,313.5 Z"/></g>
<g><path style="opacity:1" fill="#d3e6e5" d="M 810.5,320.5 C 821.566,320.425 832.566,321.258 843.5,323C 845.286,323.196 846.619,324.029 847.5,325.5C 834.531,327.386 821.864,326.219 809.5,322C 810.056,321.617 810.389,321.117 810.5,320.5 Z"/></g>
<g><path style="opacity:1" fill="#807d7e" d="M 902.5,332.5 C 898.958,332.187 895.625,332.521 892.5,333.5C 891.957,333.44 891.624,333.107 891.5,332.5C 895.315,331.192 898.981,331.192 902.5,332.5 Z"/></g>
<g><path style="opacity:1" fill="#f3f2f3" d="M 892.5,333.5 C 895.625,332.521 898.958,332.187 902.5,332.5C 908.293,333.021 913.96,334.188 919.5,336C 924.751,338.589 924.585,340.089 919,340.5C 909.699,339.8 900.866,337.467 892.5,333.5 Z"/></g>
<g><path style="opacity:1" fill="#efeeef" d="M 957.5,349.5 C 968.229,350.365 977.229,354.698 984.5,362.5C 976.444,362.664 969.111,360.164 962.5,355C 960.234,353.574 958.568,351.74 957.5,349.5 Z"/></g>
<g><path style="opacity:1" fill="#f1f0f0" d="M 1011.5,379.5 C 1018.82,380.813 1024.15,384.813 1027.5,391.5C 1018.68,392.401 1013.34,388.401 1011.5,379.5 Z"/></g>
</svg>
