<svg version="1.1" id="Layer_1" xmlns="http://www.w3.org/2000/svg" xmlns:xlink="http://www.w3.org/1999/xlink" x="0px" y="0px"
	 width="100%" viewBox="0 0 512 512" enable-background="new 0 0 512 512" xml:space="preserve">
<path fill="#FFFFFF" opacity="00000" stroke="none" 
	d="
M0.999999,472.000000 
	C1.000000,315.045898 1.000000,158.091827 1.000000,1.068865 
	C171.570816,1.068865 342.141663,1.068865 513.000000,1.068865 
	C513.000000,158.024780 513.000000,315.049744 512.650513,472.373932 
	C511.050659,466.487671 509.682098,460.323212 508.575653,454.112091 
	C506.595032,442.993866 504.772247,431.847565 502.904694,420.309601 
	C502.934570,419.240784 503.077545,418.544128 502.931305,417.914673 
	C501.317200,410.966187 499.405853,404.075470 498.090179,397.072357 
	C497.014313,391.345856 496.737030,385.473907 495.911621,379.694183 
	C495.319855,375.550598 494.477570,371.438141 493.621155,367.338135 
	C492.478088,361.865570 491.033752,356.450531 490.051880,350.951294 
	C489.113342,345.694458 488.693207,340.347198 487.871704,335.066620 
	C487.253632,331.093536 486.408295,327.153198 485.579498,323.216125 
	C484.427826,317.745300 483.027069,312.321350 482.048889,306.821167 
	C481.113831,301.563263 480.828491,296.186218 479.820343,290.945648 
	C478.056244,281.775848 476.014099,272.657806 473.975830,263.543243 
	C472.897552,258.721405 473.928741,253.065216 468.901398,249.711472 
	C466.336578,248.000473 463.677216,246.431229 460.814636,244.528107 
	C459.002472,243.817047 457.268005,243.669586 455.898315,242.885208 
	C448.824554,238.834229 441.898132,234.525543 434.816498,230.488876 
	C427.350037,226.232864 419.766510,222.182266 412.041626,217.728210 
	C401.177979,211.410858 390.578094,205.275269 379.804626,199.461304 
	C374.706665,196.710190 369.276642,194.574448 363.621643,192.102905 
	C357.160004,194.977264 351.073822,197.908600 345.000549,200.477905 
	C345.117188,199.810333 345.178345,199.481537 345.330688,199.202499 
	C355.212250,181.106995 361.374756,161.772156 362.852692,141.254639 
	C364.441315,119.200569 359.588501,98.403763 348.051605,79.323952 
	C335.348389,58.315262 317.741119,43.083218 294.506134,35.028439 
	C285.360413,31.857925 275.748505,29.607565 266.162994,28.277683 
	C259.626495,27.370813 252.767746,28.786587 245.617950,29.091103 
	C231.752914,29.770109 219.223740,34.102127 207.625946,40.351967 
	C195.202850,47.046547 184.060150,55.733891 175.312149,67.144295 
	C166.616501,78.486404 159.704269,90.669411 155.940948,104.574394 
	C152.210403,118.358208 150.359619,132.285706 153.077133,146.408081 
	C155.187912,157.377472 157.549408,168.349197 160.720963,179.046692 
	C162.960480,186.600586 166.742294,193.697250 169.480331,200.985901 
	C163.082474,198.036285 157.039825,195.098816 150.605164,192.094513 
	C148.502090,192.495132 146.627792,192.659622 145.106567,193.479355 
	C135.471573,198.671341 125.896248,203.975204 116.335754,209.304077 
	C93.791389,221.869995 71.316620,234.562134 48.695320,246.987701 
	C43.563679,249.806458 40.801094,253.408920 39.870956,259.351562 
	C37.653584,273.518280 34.676834,287.564453 32.170055,301.688263 
	C30.973745,308.428619 30.149242,315.234955 28.968332,322.362427 
	C28.008011,326.514526 27.134901,330.298401 26.482506,334.119965 
	C24.623671,345.008575 22.854731,355.912506 20.753304,367.082153 
	C18.362833,378.507355 16.191673,389.646912 14.194823,400.817627 
	C11.385291,416.534546 8.788260,432.289703 5.934988,447.998474 
	C4.475681,456.032715 2.656517,464.001587 0.999999,472.000000 
z"/>
<path fill="#FFFFFF" opacity="0000" stroke="none" 
	d="
M513.000000,482.000000 
	C513.000000,492.325470 513.000000,502.650909 513.000000,512.957275 
	C342.333313,512.957275 171.666656,512.957275 1.000000,512.957275 
	C1.000000,502.922150 1.000000,492.929718 1.314231,482.620178 
	C4.869951,486.772491 9.033814,486.706726 13.555466,484.684418 
	C26.716894,478.797882 39.862923,472.876923 53.026340,466.994843 
	C71.028572,458.950592 89.074493,451.003113 107.034737,442.866333 
	C115.446922,439.055267 123.702293,434.898102 132.368362,431.036865 
	C146.847794,437.452148 161.014801,443.667938 175.121063,450.018677 
	C196.687546,459.728027 218.182785,469.596100 239.774414,479.248810 
	C245.387207,481.758057 251.245407,483.718323 257.375824,485.948853 
	C262.753387,483.965302 267.821625,482.131744 272.723206,479.927521 
	C283.588531,475.041351 294.370178,469.969086 305.546753,464.957977 
	C316.622162,460.116302 327.316864,455.244598 338.056183,450.473328 
	C352.669647,443.980896 367.317169,437.565155 382.129608,431.424316 
	C386.607056,433.698151 390.891357,435.694611 395.205109,437.625275 
	C420.484497,448.939178 445.758209,460.265808 471.060638,471.528046 
	C481.618866,476.227509 492.213745,480.848022 502.858093,485.348114 
	C505.460663,486.448364 508.342041,487.028351 510.556702,483.771973 
	C511.532654,483.086914 512.266296,482.543457 513.000000,482.000000 
z"/>
<path fill="#A8EEFC" opacity="1.000000" stroke="none" 
	d="
M132.028732,430.897797 
	C123.702293,434.898102 115.446922,439.055267 107.034737,442.866333 
	C89.074493,451.003113 71.028572,458.950592 53.026340,466.994843 
	C39.862923,472.876923 26.716894,478.797882 13.555466,484.684418 
	C9.033814,486.706726 4.869951,486.772491 1.314231,482.151520 
	C1.000000,478.969391 1.000000,475.938812 0.999999,472.454102 
	C2.656517,464.001587 4.475681,456.032715 5.934988,447.998474 
	C8.788260,432.289703 11.385291,416.534546 14.194823,400.817627 
	C16.191673,389.646912 18.362833,378.507355 21.092030,367.023743 
	C55.961929,348.617981 90.180962,330.513824 124.444901,312.494965 
	C130.131638,309.504395 136.014313,306.886353 141.844284,304.508728 
	C140.928329,316.488068 139.927429,328.051208 139.032516,339.622498 
	C137.894135,354.342072 136.872253,369.070618 135.743698,383.790985 
	C134.539673,399.495880 133.269836,415.195740 132.028732,430.897797 
z"/>
<path fill="#FDBB25" opacity="1.000000" stroke="none" 
	d="
M513.000000,481.550018 
	C512.266296,482.543457 511.532654,483.086914 510.367859,483.485107 
	C478.278839,445.199097 446.640381,407.042145 414.953949,368.925140 
	C401.354218,352.565399 387.654663,336.288666 373.917450,319.707031 
	C373.542603,318.966553 373.250763,318.493256 372.974609,317.574463 
	C372.623932,312.215332 372.262848,307.301300 371.890198,302.388184 
	C370.985443,290.458984 370.075378,278.530151 369.457886,266.785980 
	C404.822418,307.616577 439.878387,348.278046 474.982910,388.897614 
	C484.205841,399.569519 493.579224,410.111389 502.883514,420.712982 
	C504.772247,431.847565 506.595032,442.993866 508.575653,454.112091 
	C509.682098,460.323212 511.050659,466.487671 512.650513,472.836578 
	C513.000000,475.700012 513.000000,478.400024 513.000000,481.550018 
z"/>
<path fill="#FF4A4A" opacity="1.000000" stroke="none" 
	d="
M169.835556,200.998047 
	C166.742294,193.697250 162.960480,186.600586 160.720963,179.046692 
	C157.549408,168.349197 155.187912,157.377472 153.077133,146.408081 
	C150.359619,132.285706 152.210403,118.358208 155.940948,104.574394 
	C159.704269,90.669411 166.616501,78.486404 175.312149,67.144295 
	C184.060150,55.733891 195.202850,47.046547 207.625946,40.351967 
	C219.223740,34.102127 231.752914,29.770109 245.888428,29.341475 
	C273.093719,34.372295 295.204895,46.715401 312.190338,67.738998 
	C325.243408,83.895309 333.081879,102.430077 334.878448,123.082764 
	C337.076111,148.346436 331.246521,172.207764 320.057312,194.810104 
	C310.439362,214.238342 298.660797,232.334396 284.027191,248.292877 
	C271.155914,262.329437 257.322784,275.484070 243.616913,288.885193 
	C237.292801,283.219025 231.266235,277.695801 225.037872,271.886902 
	C209.705353,256.540802 195.948166,240.332092 184.034668,222.597794 
	C179.230179,215.445862 174.564438,208.200745 169.835556,200.998047 
M295.987823,135.271835 
	C295.661682,132.845825 295.276123,130.426102 295.018738,127.992828 
	C292.761566,106.653587 270.487030,90.844780 248.508926,96.278351 
	C230.339523,100.770294 216.065262,119.325981 219.890350,140.074387 
	C223.366638,158.930862 239.460297,171.841324 257.803253,171.805862 
	C270.845398,171.780655 282.006378,166.052567 288.878479,154.604919 
	C292.214264,149.048157 293.634888,142.341736 295.987823,135.271835 
z"/>
<path fill="#1FA4E8" opacity="1.000000" stroke="none" 
	d="
M502.904694,420.309601 
	C493.579224,410.111389 484.205841,399.569519 474.982910,388.897614 
	C439.878387,348.278046 404.822418,307.616577 369.498810,266.722626 
	C369.249329,266.474487 369.155975,266.355560 369.475830,266.139038 
	C388.648010,261.625671 407.508667,257.364929 426.349609,253.018661 
	C437.935547,250.346008 449.491302,247.542603 461.060608,244.797913 
	C463.677216,246.431229 466.336578,248.000473 468.901398,249.711472 
	C473.928741,253.065216 472.897552,258.721405 473.975830,263.543243 
	C476.014099,272.657806 478.056244,281.775848 479.820343,290.945648 
	C480.828491,296.186218 481.113831,301.563263 482.048889,306.821167 
	C483.027069,312.321350 484.427826,317.745300 485.579498,323.216125 
	C486.408295,327.153198 487.253632,331.093536 487.871704,335.066620 
	C488.693207,340.347198 489.113342,345.694458 490.051880,350.951294 
	C491.033752,356.450531 492.478088,361.865570 493.621155,367.338135 
	C494.477570,371.438141 495.319855,375.550598 495.911621,379.694183 
	C496.737030,385.473907 497.014313,391.345856 498.090179,397.072357 
	C499.405853,404.075470 501.317200,410.966187 502.931305,417.914673 
	C503.077545,418.544128 502.934570,419.240784 502.904694,420.309601 
z"/>
<path fill="#4CE166" opacity="1.000000" stroke="none" 
	d="
M29.156328,322.011383 
	C30.149242,315.234955 30.973745,308.428619 32.170055,301.688263 
	C34.676834,287.564453 37.653584,273.518280 39.870956,259.351562 
	C40.801094,253.408920 43.563679,249.806458 48.695320,246.987701 
	C71.316620,234.562134 93.791389,221.869995 116.335754,209.304077 
	C125.896248,203.975204 135.471573,198.671341 145.106567,193.479355 
	C146.627792,192.659622 148.502090,192.495132 150.592590,192.505798 
	C150.649994,194.600800 150.145248,196.205246 150.034302,197.836472 
	C148.980042,213.334595 148.066681,228.842651 146.946671,244.335831 
	C146.543030,249.919205 145.689087,255.470001 144.993683,261.209290 
	C144.946732,261.382904 144.883209,261.736755 144.522217,261.789612 
	C143.256317,262.254669 142.328918,262.623962 141.449738,263.085175 
	C104.015907,282.722107 66.586380,302.367249 29.156328,322.011383 
z"/>
<path fill="#E7353F" opacity="1.000000" stroke="none" 
	d="
M243.914474,289.028198 
	C257.322784,275.484070 271.155914,262.329437 284.027191,248.292877 
	C298.660797,232.334396 310.439362,214.238342 320.057312,194.810104 
	C331.246521,172.207764 337.076111,148.346436 334.878448,123.082764 
	C333.081879,102.430077 325.243408,83.895309 312.190338,67.738998 
	C295.204895,46.715401 273.093719,34.372295 246.323547,29.414223 
	C252.767746,28.786587 259.626495,27.370813 266.162994,28.277683 
	C275.748505,29.607565 285.360413,31.857925 294.506134,35.028439 
	C317.741119,43.083218 335.348389,58.315262 348.051605,79.323952 
	C359.588501,98.403763 364.441315,119.200569 362.852692,141.254639 
	C361.374756,161.772156 355.212250,181.106995 345.330688,199.202499 
	C345.178345,199.481537 345.117188,199.810333 344.693420,200.646805 
	C333.862366,220.115753 321.098450,237.466263 307.000427,254.289673 
	C297.463409,263.994415 288.393250,273.735138 278.600037,282.684631 
	C271.968445,288.744934 266.180389,296.193237 256.686462,298.800232 
	C252.225525,295.438354 248.069992,292.233276 243.914474,289.028198 
z"/>
<path fill="#FDDB56" opacity="1.000000" stroke="none" 
	d="
M28.968332,322.362427 
	C66.586380,302.367249 104.015907,282.722107 141.449738,263.085175 
	C142.328918,262.623962 143.256317,262.254669 144.562256,262.261566 
	C144.931580,264.667938 145.006989,266.663727 144.850586,268.641144 
	C143.928818,280.295959 142.953079,291.946472 142.025513,303.752228 
	C142.055527,303.906006 141.806442,304.096161 141.806427,304.096130 
	C136.014313,306.886353 130.131638,309.504395 124.444901,312.494965 
	C90.180962,330.513824 55.961929,348.617981 21.389137,366.752014 
	C22.854731,355.912506 24.623671,345.008575 26.482506,334.119965 
	C27.134901,330.298401 28.008011,326.514526 28.968332,322.362427 
z"/>
<path fill="#45C868" opacity="1.000000" stroke="none" 
	d="
M145.040649,261.035675 
	C145.689087,255.470001 146.543030,249.919205 146.946671,244.335831 
	C148.066681,228.842651 148.980042,213.334595 150.034302,197.836472 
	C150.145248,196.205246 150.649994,194.600800 150.984619,192.572632 
	C157.039825,195.098816 163.082474,198.036285 169.480331,200.985901 
	C174.564438,208.200745 179.230179,215.445862 184.034668,222.597794 
	C195.948166,240.332092 209.705353,256.540802 224.570923,271.873901 
	C222.814407,272.052216 221.308319,272.060333 219.833923,271.848175 
	C194.900497,268.260254 169.971008,264.644928 145.040649,261.035675 
z"/>
<path fill="#FDBB25" opacity="1.000000" stroke="none" 
	d="
M460.814636,244.528107 
	C449.491302,247.542603 437.935547,250.346008 426.349609,253.018661 
	C407.508667,257.364929 388.648010,261.625671 369.441223,265.663574 
	C368.379944,254.400421 367.695862,243.394531 366.923676,232.394852 
	C366.861053,231.502747 366.195068,230.653000 365.859375,229.591766 
	C365.909241,229.399963 366.041962,229.026505 366.437012,229.019836 
	C381.966095,225.356079 397.100128,221.699005 412.234131,218.041916 
	C419.766510,222.182266 427.350037,226.232864 434.816498,230.488876 
	C441.898132,234.525543 448.824554,238.834229 455.898315,242.885208 
	C457.268005,243.669586 459.002472,243.817047 460.814636,244.528107 
z"/>
<path fill="#4DE066" opacity="1.000000" stroke="none" 
	d="
M366.041962,229.026505 
	C366.041962,229.026505 365.909241,229.399963 365.492554,229.627243 
	C349.933716,236.446732 334.818207,243.101334 319.631592,249.589478 
	C315.586090,251.317795 311.322754,252.536194 307.159424,253.988724 
	C321.098450,237.466263 333.862366,220.115753 344.680481,201.008820 
	C351.073822,197.908600 357.160004,194.977264 363.621582,192.556656 
	C364.678650,205.053757 365.360321,217.040131 366.041962,229.026505 
z"/>
<path fill="#45C868" opacity="1.000000" stroke="none" 
	d="
M366.437012,229.019836 
	C365.360321,217.040131 364.678650,205.053757 363.997040,192.613632 
	C369.276642,194.574448 374.706665,196.710190 379.804626,199.461304 
	C390.578094,205.275269 401.177979,211.410858 412.041626,217.728210 
	C397.100128,221.699005 381.966095,225.356079 366.437012,229.019836 
z"/>
<path fill="#4CE166" opacity="1.000000" stroke="none" 
	d="
M372.958923,318.019958 
	C373.250763,318.493256 373.542603,318.966553 373.916138,320.175110 
	C375.011200,337.575073 375.969818,354.243378 377.060547,370.903046 
	C377.621460,379.470398 378.410675,388.022888 379.109650,396.581055 
	C380.049927,408.093414 381.002686,419.604736 381.950073,431.116516 
	C367.317169,437.565155 352.669647,443.980896 338.056183,450.473328 
	C327.316864,455.244598 316.622162,460.116302 305.393860,464.650574 
	C288.942963,447.886139 273.005768,431.414398 257.039093,414.697693 
	C257.009613,414.452728 256.999603,413.959961 256.998596,413.494843 
	C257.032410,380.276031 257.067230,347.522308 257.091675,314.613831 
	C257.081299,314.459045 257.079376,314.148804 257.455261,314.133087 
	C279.749817,304.653778 301.713593,295.292023 323.541931,285.624420 
	C327.098541,284.049194 329.390839,284.297852 332.412567,286.686462 
	C345.811707,297.278107 359.423828,307.600311 372.958923,318.019958 
z"/>
<path fill="#1FA4E8" opacity="1.000000" stroke="none" 
	d="
M132.368362,431.036865 
	C133.269836,415.195740 134.539673,399.495880 135.743698,383.790985 
	C136.872253,369.070618 137.894135,354.342072 139.032516,339.622498 
	C139.927429,328.051208 140.928329,316.488068 141.844299,304.508728 
	C141.806442,304.096161 142.055527,303.906006 142.297302,303.979431 
	C168.058350,342.809235 193.548126,381.585083 219.109512,420.313660 
	C231.648468,439.311707 244.320267,458.222107 256.941620,477.609314 
	C256.964508,480.674561 256.977722,483.302643 256.990906,485.930725 
	C251.245407,483.718323 245.387207,481.758057 239.774414,479.248810 
	C218.182785,469.596100 196.687546,459.728027 175.121063,450.018677 
	C161.014801,443.667938 146.847794,437.452148 132.368362,431.036865 
z"/>
<path fill="#45C868" opacity="1.000000" stroke="none" 
	d="
M382.129608,431.424316 
	C381.002686,419.604736 380.049927,408.093414 379.109650,396.581055 
	C378.410675,388.022888 377.621460,379.470398 377.060547,370.903046 
	C375.969818,354.243378 375.011200,337.575073 373.999146,320.442261 
	C387.654663,336.288666 401.354218,352.565399 414.953949,368.925140 
	C446.640381,407.042145 478.278839,445.199097 510.125580,483.626709 
	C508.342041,487.028351 505.460663,486.448364 502.858093,485.348114 
	C492.213745,480.848022 481.618866,476.227509 471.060638,471.528046 
	C445.758209,460.265808 420.484497,448.939178 395.205109,437.625275 
	C390.891357,435.694611 386.607056,433.698151 382.129608,431.424316 
z"/>
<path fill="#FDDB56" opacity="1.000000" stroke="none" 
	d="
M257.375824,485.948853 
	C256.977722,483.302643 256.964508,480.674561 256.959351,477.129608 
	C257.001160,455.789368 257.034851,435.366028 257.068573,414.942657 
	C273.005768,431.414398 288.942963,447.886139 305.033051,464.665283 
	C294.370178,469.969086 283.588531,475.041351 272.723206,479.927521 
	C267.821625,482.131744 262.753387,483.965302 257.375824,485.948853 
z"/>
<path fill="#FEDB56" opacity="1.000000" stroke="none" 
	d="
M372.974609,317.574463 
	C359.423828,307.600311 345.811707,297.278107 332.412567,286.686462 
	C329.390839,284.297852 327.098541,284.049194 323.541931,285.624420 
	C301.713593,295.292023 279.749817,304.653778 257.428894,313.654968 
	C257.015045,308.447388 257.003448,303.702179 256.991821,298.957001 
	C266.180389,296.193237 271.968445,288.744934 278.600037,282.684631 
	C288.393250,273.735138 297.463409,263.994415 307.000427,254.289673 
	C311.322754,252.536194 315.586090,251.317795 319.631592,249.589478 
	C334.818207,243.101334 349.933716,236.446732 365.442688,229.819046 
	C366.195068,230.653000 366.861053,231.502747 366.923676,232.394852 
	C367.695862,243.394531 368.379944,254.400421 369.121399,265.880127 
	C369.155975,266.355560 369.249329,266.474487 369.208374,266.537842 
	C370.075378,278.530151 370.985443,290.458984 371.890198,302.388184 
	C372.262848,307.301300 372.623932,312.215332 372.974609,317.574463 
z"/>
<path fill="#FEBB25" opacity="1.000000" stroke="none" 
	d="
M256.686432,298.800232 
	C257.003448,303.702179 257.015045,308.447388 257.053009,313.670685 
	C257.079376,314.148804 257.081299,314.459045 256.643982,314.470337 
	C234.029205,311.875458 211.851776,309.269257 188.684464,306.546722 
	C189.932693,308.690033 190.545883,309.826294 191.235336,310.914246 
	C201.923172,327.779694 212.583435,344.662811 223.326706,361.492920 
	C234.508072,379.009338 245.771851,396.473145 256.999603,413.959961 
	C256.999603,413.959961 257.009613,414.452728 257.039093,414.697693 
	C257.034851,435.366028 257.001160,455.789368 256.949707,476.692444 
	C244.320267,458.222107 231.648468,439.311707 219.109512,420.313660 
	C193.548126,381.585083 168.058350,342.809235 142.267303,303.825653 
	C142.953079,291.946472 143.928818,280.295959 144.850586,268.641144 
	C145.006989,266.663727 144.931580,264.667938 144.923248,262.208679 
	C144.883209,261.736755 144.946732,261.382904 144.993683,261.209290 
	C169.971008,264.644928 194.900497,268.260254 219.833923,271.848175 
	C221.308319,272.060333 222.814407,272.052216 224.772720,272.159607 
	C231.266235,277.695801 237.292801,283.219025 243.616913,288.885193 
	C248.069992,292.233276 252.225525,295.438354 256.686432,298.800232 
z"/>
<path fill="#FFFFFF" opacity="1.000000" stroke="none" 
	d="
M295.955200,135.713806 
	C293.634888,142.341736 292.214264,149.048157 288.878479,154.604919 
	C282.006378,166.052567 270.845398,171.780655 257.803253,171.805862 
	C239.460297,171.841324 223.366638,158.930862 219.890350,140.074387 
	C216.065262,119.325981 230.339523,100.770294 248.508926,96.278351 
	C270.487030,90.844780 292.761566,106.653587 295.018738,127.992828 
	C295.276123,130.426102 295.661682,132.845825 295.955200,135.713806 
z"/>
<path fill="#45C868" opacity="1.000000" stroke="none" 
	d="
M256.998596,413.494843 
	C245.771851,396.473145 234.508072,379.009338 223.326706,361.492920 
	C212.583435,344.662811 201.923172,327.779694 191.235336,310.914246 
	C190.545883,309.826294 189.932693,308.690033 188.684464,306.546722 
	C211.851776,309.269257 234.029205,311.875458 256.654358,314.625122 
	C257.067230,347.522308 257.032410,380.276031 256.998596,413.494843 
z"/>
</svg>