<svg id="eASfrMH3oGs1" xmlns="http://www.w3.org/2000/svg" xmlns:xlink="http://www.w3.org/1999/xlink" viewBox="0 0 5120 5120" shape-rendering="geometricPrecision" text-rendering="geometricPrecision"><g id="eASfrMH3oGs2"><path d="M2563.95459,4447.687988c-9.112061,2.409668-17.058594-1.963867-25.119385-4.720703-82.542969-28.230957-165.006348-56.695312-247.520996-85.009277-117.788818-40.418946-235.601807-80.768067-353.405273-121.14502-137.33313-47.070312-274.680665-94.098633-411.996949-141.218017-134.797485-46.255616-269.547973-92.648438-404.3479-138.897461-137.318543-47.113037-274.673889-94.118164-412.00531-141.193115-7.559448-2.591309-15.217713-4.997071-22.537659-8.164795-23.509277-10.174317-36.45343-28.194825-38.592712-53.753662-.443482-5.29712-.146668-10.658692-.146668-15.990479-.003662-790.497803-.004699-1580.995605.013733-2371.49353.000244-10.630005-.406372-21.203491,2.957215-31.665039c5.890747-18.322388,17.249511-31.321534,35.117431-38.39502c7.418945-2.93689,15.091736-5.232544,24.437744-6.33728c3.192078,5.110962,6.322266,5.654297,9.685242,6.441284c25.160645,5.886597,50.189087,12.321777,75.225708,18.687134c55.96759,14.229248,111.042786,31.485596,166.66217,46.856811c46.051392,12.726807,91.479004,27.710083,137.183838,41.691285c33.649536,10.293457,67.326538,20.498046,100.943726,30.896362c39.331299,12.165893,78.623901,24.457763,117.909546,36.770508c46.898681,14.69873,93.782104,29.445068,140.653198,44.231201c34.848755,10.99353,69.675903,22.055298,104.496094,33.138794c27.216186,8.663208,54.417846,17.372925,81.606933,26.120849c75.264771,24.216431,150.521119,48.458863,225.777832,72.700074c41.109009,13.241821,82.210328,26.507324,123.318116,39.752807c41.108764,13.245606,82.25,26.391358,123.325195,39.739868c61.941162,20.129517,123.817383,40.457886,185.759277,60.584839c41.709717,13.552735,83.543213,26.724854,125.214844,40.392212c47.338867,15.526123,94.5354,31.484986,141.868897,47.027588c4.325439,1.42041,9.195068,1.182983,13.740234,3.559815-.118164,20.496093-.11792,39.148071-.240967,57.799194-.034912,5.317016.801026,11.071289-.910156,15.857056-3.73291,10.440551-2.958252,21.018554-2.963379,31.608642-.071289,145.22229-.066895,290.444702-.117188,435.667114-.002197,6.651123,1.081299,13.753662-.842529,19.857422-3.725586,11.818115-3.029297,23.688721-3.035644,35.602783-.079102,151.884034-.068604,303.767823-.128907,455.651856-.002685,7.313232,1.019288,15.076416-1.044921,21.833252-3.02295,9.895019-2.83252,19.696777-2.83667,29.629883-.06128,149.885498-.060547,299.770996-.112549,449.656494-.002442,6.65039,1.050781,13.750976-.880615,19.853027-3.533448,11.164307-3.001954,22.34961-3.006592,33.608643-.062744,151.217773-.057617,302.435547-.120606,453.65332-.003174,7.311279.989991,15.07666-1.089599,21.826904-3.050049,9.900635-2.781983,19.707032-2.786621,29.635987-.071778,152.550293-.082276,305.100097-.107178,457.65039M912.289856,3468.485107c-.115723-4.486084.302673-9.066894-.472778-13.436035-1.156189-6.513916-4.358277-7.975097-14.916809-7.67456-2.438904,6.675537-1.566407,13.632812-3.133912,20.911133-.80133.287597-1.602722.575195-5.763732.509521-4.617981-.420654-9.464051-.089844-13.809327-1.408936-11.193481-3.396972-21.956604-1.778808-33.25238-.071289-36.053345,5.45044-58.171143,26.204346-69.131104,60.044678-1.078979,3.331543-4.254821,7.105225.320374,11.257569c14.778625-4.644043,29.730103-3.437745,43.713257,3.776855c12.364807,6.37915,23.784424,14.279297,32.241272,25.768311c2.664429,3.61914,5.771728,6.912353,8.455261,10.092773c18.198547-7.17334,18.198547-7.17334,39.357788-3.756836-.128235,1.576172-.25647,3.152588-.538025,8.57251.01117,23.905273.051087,47.810791.022461,71.716064-.016601,13.879639,1.517578,27.979737-6.023193,40.804199-.936646,1.593018-1.005493,3.854981-1.01532,5.809327-.076965,15.271484-.440125,30.558105.098694,45.811035.366028,10.362549,15.552612,19.033935,25.439575,14.653808c2.471863-1.095214,4.867432-4.78247,5.289856-7.581543.883606-5.854492.524353-11.910644.507629-17.883789-.044311-15.853271.889771-31.675537-5.173156-47.067627-2.321534-5.893798-1.870057-13.050781-1.921997-19.637939-.225037-28.551514-.16919-57.105225,2.463989-85.709961c1.782898-.169434,3.565796-.338867,7.758667.738037c13.022644,5.290772,17.617004,19.514893,28.28186,27.25708c2.279602-.419922,4.564575-.228027,6.083374-1.215088c16.071778-10.442871,31.812317-6.561279,47.261048,1.185059c6.483154,3.250488,12.424499,7.581299,18.614929,11.416504c3.716614,2.30249,7.438781,4.596435,13.1474,8.122314-.71167-6.196777-.619873-10.161377-1.667481-13.797607-13.52185-46.936768-41.340515-83.867432-79.055542-114.249512-13.615173-10.968017-29.621704-17.48291-43.709839-29.29248.02118-.800537.042298-1.601319.527161-5.663575m309.300598,171.909424c-12.664307-20.283691-25.220703-40.63623-38.080566-60.795166-2.703614-4.238525-6.522217-7.765869-10.667847-12.601562-23.878052,21.154297-46.658691,41.320312-69.408936,61.520263-1.965576,1.745118-3.765258,3.683838-5.559814,5.609131-.408569.438965-.535645,1.182373-.682495,1.81128-.150269.643066-.165161,1.318115-.30835,2.593994c8.639405,9.746582,23.099243,8.589599,34.237915,17.123047.19751,5.627685.610718,12.176757.625855,18.726562.070923,30.594971-.017212,61.189941.079223,91.784424.01648,5.222656.654541,10.443359,1.097535,17.036377c27.178833,8.891846,52.94458,20.940185,82.128784,27.965576.553589-6.263428,1.36792-11.335205,1.390014-16.4104.124756-28.599121-.03186-57.199219.127564-85.797852.036377-6.505127-1.480835-13.30542,2.411499-19.743896c11.270508-5.180909,20.626465,7.780517,32.213013,4.074951-.513306-2.255127-.504029-4.397705-1.439209-5.983643-8.77002-14.875244-17.701538-29.655517-28.164185-46.913086m204.120361,103.882813c-.774536-1.083985-1.615844-2.126709-2.313598-3.258057-19.903931-32.277588-39.740357-64.596924-59.743286-96.812988-3.026734-4.875-5.320923-10.954346-12.352051-11.469483-25.708008,20.05835-68.473267,58.806397-77.505859,70.530762c12.417358,5.141846,24.520874,10.154053,37.130615,15.375733.23291,7.181396.616577,13.762695.630737,20.34497.066162,30.643311-.032227,61.286865.091187,91.929688.020874,5.17041.84143,10.337402,1.230224,14.791504c25.984253,12.741211,66.729126,26.452636,82.829834,27.75415.207642-6.612061.576538-13.169922.591431-19.728516.065307-28.644775-.054444-57.290283.104614-85.934082.028198-5.076416-1.516113-10.729736,3.907959-15.548339c10.217163-2.65503,19.100952,7.088134,31.312134,5.751464-1.707276-4.413086-3.039063-7.855957-5.913941-13.726806M1271.125854,3890.90625c13.151856,4.670166,26.314454,9.310303,39.453125,14.017334c23.149781,8.293701,46.244874,16.743164,69.463135,24.8396c4.110474,1.433349,8.708985,1.466552,12.747803,2.094482c4.100464-6.756348,3.892456-12.368164.713745-18.624268-3.224731-1.498291-6.708496-3.440185-10.409058-4.785644-31.228271-11.355713-62.537109-22.490967-93.742675-33.907715-48.059204-17.582764-96.033325-35.398193-144.126099-52.887207-3.360229-1.221924-7.403076-.566406-10.996582-.776367-2.906494,18.649414-2.938965,18.738037,10.416992,23.634277c41.182373,15.097901,82.39209,30.121094,126.479614,46.395508Z" transform="translate(0-5.292328)" fill="#c28f60"/><path d="M2565.505371,4447.813477c-1.525879-152.675782-1.515381-305.225586-1.443603-457.775879.004638-9.928955-.263428-19.735352,2.786621-29.635987c2.07959-6.750244,1.086425-14.515625,1.089599-21.826904.062989-151.217773.057862-302.435547.120606-453.65332.004638-11.259033-.526856-22.444336,3.006592-33.608643c1.931396-6.102051.878173-13.202637.880615-19.853027.052002-149.885498.051269-299.770996.112549-449.656494.00415-9.933106-.18628-19.734864,2.83667-29.629883c2.064209-6.756836,1.042236-14.52002,1.044921-21.833252.060303-151.884033.049805-303.767822.128907-455.651856.006347-11.914062-.689942-23.784668,3.035644-35.602783c1.923828-6.10376.840332-13.206299.842529-19.857422.050293-145.222412.045899-290.444824.117188-435.667114.005127-10.590088-.769531-21.168091,2.963379-31.608642c1.711182-4.785767.875244-10.54004.910156-15.857056.123047-18.651123.122803-37.303101,1.828125-57.911621c5.573242-2.594239,9.640381-2.750611,13.378174-3.94104c63.241211-20.14148,126.455811-40.367554,189.645996-60.668457c41.712158-13.400513,83.377197-26.947998,125.0625-40.432251c45.477295-14.71106,90.98169-29.338745,136.420654-44.167115c32.203369-10.508789,64.233399-21.554199,96.490967-31.891235c51.818848-16.605347,103.78833-32.741455,155.609863-49.338257c4.858399-1.555908,9.116456-4.985962,15.262696-7.285766c3.107177,2.221923,5.76709,4.096435,5.922363,6.159301c1.543945,20.535767,2.863281,41.093262,3.873779,61.662964c1.271241,25.888184,1.177246,51.781494,3.327393,77.703614c2.743652,33.081054,2.382324,66.395385,4.367676,99.610961c3.133789,52.432374,4.03833,104.998169,5.900634,157.506836.04712,1.327271.265381,2.648682.060303,5.192261-.210205,3.893311.897461,6.59082,3.727783,5.55835c1.53833-.56128,2.064209-3.898194,3.65503-7.252442c3.690918-7.168701,6.538086-13.209106,9.948242-18.912597c1.928711-3.225708,4.782959-5.898072,7.833496-9.554444c13.195557,6.17566,25.682129,12.01941,38.387207,17.965454c10.104736-11.781616,12.396729-27.613281,24.281738-36.927246c14.127198,3.959595,25.060303,13.644898,38.902588,16.981812c10.600342-10.969605,12.276611-27.126953,23.975586-36.954712c14.763672,2.848022,25.645752,14.627319,40.118897,16.539551c9.902832-11.089356,12.062744-26.072998,22.850341-36.533081c14.517579,2.185913,25.374268,14.122314,39.732422,16.145019c10.929199-10.719116,11.634033-27.765503,24.950196-36.060547c14.124267,2.988648,24.671386,13.704956,39.348144,16.394165c6.168213-8.317382,9.737793-17.682495,14.667481-26.242065c2.204589-3.827881,5.29541-7.145264,8.517822-11.398926c13.466308,6.270264,25.990478,12.101685,39.062012,18.188111c10.919189-10.785645,12.622314-26.932862,23.533691-37.003907c11.62793,1.360718,20.119873,8.176148,29.565186,12.768189c3.37622,1.641357,7.085693,2.597046,11.6604,4.228637c5.308105-10.234375,9.422119-20.143798,15.26416-28.899902c6.449951-9.667358,7.111572-19.730713,5.844727-30.527344-.851319-7.252319-1.963623-14.50122-2.29834-21.781982-1.251953-27.231567-1.426514-54.459839-3.497559-81.718628-3.2229-42.420776-3.638672-85.056152-5.171142-127.603149-.407471-11.313111.516845-22.781372-1.008301-33.92688-4.702881-34.368286-1.538819-69.059204-3.550537-103.490723c5.990967-1.126953,10.574218-1.924316,14.964599-3.325806c37.949463-12.113647,75.858887-24.352172,113.790528-36.521728c42.993896-13.793701,86.022461-27.481323,128.991943-41.35083c39.174561-12.644531,78.279297-25.505493,117.435059-38.207764c45.476074-14.752319,90.962402-29.475464,136.468261-44.13562c32.857422-10.585449,65.780762-20.967407,98.614746-31.625732c7.480957-2.428711,14.714356-5.623291,22.061524-8.465332c9.406738,3.09497,19.381836,5.071899,28.106445,9.508544c20.486817,10.418702,32.266113,27.24646,32.930176,50.849854.168457,5.993286.093262,11.994019.09375,17.991333.00293,789.664917.00293,1579.329956-.00293,2368.994751c0,6.66333.219727,13.344482-.172851,19.987061-1.4375,24.343505-14.246094,40.870117-35.900879,50.980224-4.20166,1.961426-8.768555,3.14502-13.177735,4.655762-105.179687,36.037353-210.366699,72.053955-315.53955,108.109619-93.205078,31.951904-186.39209,63.956787-279.593506,95.918945-87.53418,30.018067-175.089112,59.975342-262.61377,90.022217-137.272461,47.124512-274.524414,94.30957-411.790527,141.453125-89.408936,30.707031-178.822998,61.399414-268.242676,92.074707-93.832519,32.189453-187.665527,64.377442-281.522217,96.495606-16.350586,5.595703-32.820068,10.845214-50.785156,16.128418m1282.633545-765.83545c0,9.996094-.224854,19.99878.063477,29.986328.284668,9.853272-1.452149,19.862793,1.688476,30.562256c4.867188-1.051513,9.394531-1.688232,13.710693-3.012207c80.779542-24.777832,161.521241-49.678711,242.29834-74.463623c46.431153-14.246093,92.922364-28.297607,139.362793-42.513183c10.819336-3.312012,21.460938-7.227295,32.339356-10.319336c7.434082-2.112793,11.598633-6.0542,11.082519-14.102295-.127929-1.989746.020508-3.996582.020508-5.995606.003906-47.980224.038574-95.960205-.050781-143.940429-.008789-4.535401-.802246-9.069336-1.327637-14.618653-5.401367,1.144532-9.929687,1.749512-14.237793,3.072266-36.889648,11.327393-73.740722,22.779785-110.600586,34.20581-43.218261,13.397217-86.401123,26.909424-129.657959,40.181641-56.605713,17.36792-113.279785,34.512451-169.886718,51.875977-4.882081,1.497558-9.482178,3.914795-14.804444,6.153076c0,37.054443,0,72.996094-.000244,112.927978m198.974121-425.012207c-65.709717,21.26709-132.220459,40.02002-197.231445,61.497071-1.79834,14.114502-2.993653,141.954589-1.593994,165.081787.152099,2.518554,1.156738,4.985595,1.841064,7.784179c3.820313,0,7.2146.638916,10.279297-.096191c43.048828-10.324707,412.308838-125.984619,427.048096-133.72583.352539-2.188965,1.127441-4.772949,1.130859-7.358154.073731-51.990967.094238-103.981934-.027832-155.972657-.006836-2.944336-1.320801-5.885498-2.383789-10.317871-79.604004,24.384034-157.784668,48.33252-239.062256,73.107666Z" transform="translate(-.047607-5.292328)" fill="#d2a06d"/><path d="M3316.0271,1640.199341c-4.536621,2.559936-8.794678,5.98999-13.653077,7.545898-51.821533,16.596802-103.791015,32.73291-155.609863,49.338257-32.257568,10.337036-64.287598,21.382446-96.490967,31.891235-45.438964,14.82837-90.943359,29.456055-136.420654,44.167115-41.685303,13.484253-83.350342,27.031738-125.0625,40.432251-63.190185,20.300903-126.404785,40.526977-189.645996,60.668457-3.737793,1.190429-7.804932,1.346801-13.306152,2.096801-6.204346-.420166-11.073975-.182739-15.399414-1.603149-47.333497-15.542602-94.53003-31.501465-141.868897-47.027588-41.671631-13.667358-83.505127-26.839477-125.214844-40.392212-61.941894-20.126953-123.818115-40.455322-185.759277-60.584839-41.075195-13.34851-82.216431-26.494262-123.325195-39.739868-41.107788-13.245483-82.209107-26.510986-123.318116-39.752807-75.256713-24.241211-150.513061-48.483643-225.777832-72.700074-27.189087-8.747924-54.390747-17.457641-81.606933-26.120849-34.820191-11.083496-69.647339-22.145264-104.496094-33.138794-46.871094-14.786133-93.754517-29.532471-140.653198-44.231201-39.285645-12.312745-78.578247-24.604615-117.909546-36.770508-33.617188-10.398316-67.29419-20.602905-100.943726-30.896362-45.704834-13.981202-91.132446-28.964478-137.183838-41.691285-55.619384-15.371215-110.69458-32.627563-166.66217-46.856811-25.036621-6.365357-50.065063-12.800537-75.225708-18.687134-3.362976-.786987-6.493164-1.330322-8.18988-6.417358c26.760131-10.675537,53.730652-20.144654,80.880493-29.068482c182.610107-60.020508,365.245361-119.964844,547.898804-179.853271c116.290283-38.129273,232.624511-76.125367,348.948486-114.151612c3.779541-1.235473,7.664673-2.147644,13.932617-2.111206c1.335205,5.914246-2.84021,6.412842-6.582153,7.650208-27.769654,9.18341-55.479248,18.550476-83.292115,27.600464-29.695312,9.662536-59.497192,18.996582-89.213256,28.595886-4.039429,1.304932-8.879029,1.995483-11.070801,8.574829c7.524902,2.651611,14.235962,5.125244,21.016968,7.389404c93.959594,31.371216,187.918579,62.744507,281.897338,94.058106c421.955445,140.595581,843.915406,281.177734,1265.878541,421.749878c72.533203,24.163574,145.105468,48.209961,217.604248,72.475708c5.501953,1.84143,10.560302,5.009521,15.824707,7.560913Z" transform="translate(0-5.292328)" fill="#aa7950"/><path d="M4422.32666,1284.074707c-5.957031,3.410645-13.19043,6.605225-20.671387,9.033936-32.833984,10.658325-65.757324,21.040283-98.614746,31.625732-45.505859,14.660156-90.992187,29.383301-136.468261,44.13562-39.155762,12.702271-78.260498,25.563233-117.435059,38.207764-42.969482,13.869507-85.998047,27.557129-128.991943,41.35083-37.931641,12.169556-75.841065,24.408081-113.790528,36.521728-4.390381,1.40149-8.973632,2.198853-15.98706,2.147705-6.517334-3.323974-10.293946-6.184448-14.550537-7.600708-19.548584-6.50476-39.23291-12.599487-58.864991-18.853027-63.35498-20.18103-126.708252-40.368042-190.062744-60.550659-57.648193-18.365234-115.289062-36.753906-172.948486-55.08374-60.198242-19.136719-120.425293-38.18335-180.620606-57.329468-57.022949-18.137085-114.012207-36.379639-171.03247-54.525147-60.191895-19.154785-120.405274-38.243164-180.604981-57.373413-53.224365-16.913696-106.445556-33.836303-159.66333-50.770141-63.995605-20.363648-127.982177-40.754517-191.979736-61.112549-53.219238-16.929566-106.447266-33.831421-159.673096-50.740418-60.200439-19.124572-120.412109-38.213012-180.60083-57.373596-57.65332-18.353332-115.385376-36.470154-172.85376-55.38678-14.692138-4.83612-28.031616-4.630371-42.654297.350892-44.687744,15.2229-89.729736,29.407409-134.654052,43.933654-7.574585,2.449219-15.163574,4.98816-22.92395,6.657288-2.751099.591736-6.032715-1.282471-9.072144-2.030884c6.696777-2.81897,13.233398-6.126098,20.114014-8.385071c143.593017-47.143127,287.233398-94.142151,430.846679-141.222961c114.517579-37.542236,229.086914-74.92804,343.437256-112.972839c17.984131-5.983399,34.444336-6.055054,52.479981-.118287c153.046386,50.377686,306.29541,100.139771,459.470459,150.126587c131.022705,42.75763,262.032959,85.552918,393.040039,128.358887c189.863037,62.036804,379.709717,124.122864,569.578857,186.140808c131.643311,42.999268,263.312744,85.917237,394.966065,128.887085c3.162597,1.032349,6.265136,2.250855,10.785644,3.951172Z" transform="translate(0-5.292328)" fill="#aa7950"/><path d="M1746.398438,949.347412c4.248657.710327,7.530273,2.584534,10.281372,1.992798c7.760376-1.669128,15.349365-4.208069,22.92395-6.657288c44.924316-14.526245,89.966308-28.710754,134.654052-43.933654c14.622681-4.981263,27.962159-5.187012,42.654297-.350892c57.468384,18.916626,115.20044,37.033448,172.85376,55.38678c60.188721,19.160584,120.400391,38.249024,180.60083,57.373596c53.22583,16.908997,106.453858,33.810852,159.673096,50.740418c63.997559,20.358032,127.984131,40.748901,191.979736,61.112549c53.217774,16.933838,106.438965,33.856445,159.66333,50.770141c60.199707,19.130249,120.413086,38.218628,180.604981,57.373413c57.020263,18.145508,114.009521,36.388062,171.03247,54.525147c60.195313,19.146118,120.422364,38.192749,180.620606,57.329468c57.659424,18.329834,115.300293,36.718506,172.948486,55.08374c63.354492,20.182617,126.707764,40.369629,190.062744,60.550659c19.632081,6.25354,39.316407,12.348267,58.864991,18.853027c4.256591,1.41626,8.033203,4.276734,13.053466,7.650147c4.53125,35.560181,1.367188,70.251099,6.070069,104.619385c1.525146,11.145508.60083,22.613769,1.008301,33.92688c1.53247,42.546997,1.948242,85.182373,5.171142,127.603149c2.071045,27.258789,2.245606,54.487061,3.497559,81.718628.334717,7.280762,1.447021,14.529663,2.29834,21.781982c1.266845,10.796631.605224,20.859986-5.844727,30.527344-5.842041,8.756104-9.956055,18.665527-15.26416,28.899902-4.574707-1.631591-8.28418-2.58728-11.6604-4.228637-9.445313-4.592041-17.937256-11.407471-29.565186-12.768189-10.911377,10.071045-12.614502,26.218262-23.533691,37.003907-13.071534-6.086426-25.595704-11.917847-39.062012-18.188111-3.222412,4.253662-6.313233,7.571045-8.517822,11.398926-4.929688,8.55957-8.499268,17.924683-14.667481,26.242065-14.676758-2.689209-25.223877-13.405517-39.348144-16.394165-13.316163,8.295044-14.020997,25.341431-24.950196,36.060547-14.358154-2.022705-25.214843-13.959106-39.732422-16.145019-10.787597,10.460083-12.947509,25.443725-22.850341,36.533081-14.473145-1.912232-25.355225-13.691529-40.118897-16.539551-11.698975,9.827759-13.375244,25.985107-23.975586,36.954712-13.842285-3.336914-24.77539-13.022217-38.902588-16.981812-11.885009,9.313965-14.177002,25.14563-24.281738,36.927246-12.705078-5.946044-25.19165-11.789794-38.387207-17.965454-3.050537,3.656372-5.904785,6.328736-7.833496,9.554444-3.410156,5.703491-6.257324,11.743896-11.036377,18.905151-3.114746,1.001953-4.532959.741943-5.951416.482056-.138184-1.324097-.356445-2.645508-.403565-3.972779-1.862304-52.508667-2.766845-105.074462-5.900634-157.506836-1.985352-33.215576-1.624024-66.529907-4.367676-99.610961-2.150147-25.92212-2.056152-51.81543-3.327393-77.703614-1.010498-20.569702-2.329834-41.127197-3.873779-61.662964-.155273-2.062866-2.815186-3.937378-5.922363-6.159301-6.874024-2.811524-11.932373-5.979615-17.434326-7.821045-72.49878-24.265747-145.071045-48.312134-217.604248-72.475708-421.963135-140.572144-843.923096-281.154297-1265.878541-421.749878-93.978759-31.313599-187.937744-62.68689-281.897338-94.058106-6.781006-2.26416-13.492066-4.737793-21.016968-7.389404c2.191772-6.579346,7.031372-7.269897,11.070801-8.574829c29.716064-9.599304,59.517944-18.93335,89.213256-28.595886c27.812867-9.049988,55.522461-18.417054,83.292115-27.600464c3.741943-1.237366,7.917358-1.735962,8.179199-7.391174.828979-1.782837,2.49292-2.725159,6.114014-2.679688c10.044433,2.752197,16.27832.471924,20.004028-7.28186c4.50354-1.818665,9.006958-3.637329,14.719727-5.494019Z" transform="translate(.173915-5.292328)" fill="#65472f"/><path d="M1730.146851,954.707214c-2.193848,7.888001-8.427735,10.168274-17.473755,7.429016c4.674926-3.17102,10.308471-5.367126,17.473755-7.429016Z" fill="#aa7950"/><path d="M911.471436,3476.542725c14.379394,9.415527,30.385925,15.93042,44.001098,26.898437c37.715027,30.38208,65.533692,67.312744,79.055542,114.249512c1.047608,3.63623.955811,7.60083,1.667481,13.797607-5.708619-3.525879-9.430786-5.819824-13.1474-8.122314-6.19043-3.835205-12.131775-8.166016-18.614929-11.416504-15.448731-7.746338-31.18927-11.62793-47.261048-1.185059-1.518799.987061-3.803772.795166-6.083374,1.215088-10.664856-7.742187-15.259216-21.966308-30.252991-29.017578-8.519836-7.57373-16.551757-9.639893-24.92456-10.844726-21.17273-1.035401-21.17273-1.035401-39.371277,6.137939-2.683533-3.18042-5.790832-6.473633-8.455261-10.092773-8.456848-11.489014-19.876465-19.389161-32.241272-25.768311-13.983154-7.2146-28.934632-8.420898-43.713257-3.776855-4.575195-4.152344-1.399353-7.926026-.320374-11.257569c10.959961-33.840332,33.077759-54.594238,69.131104-60.044678c11.295776-1.707519,22.058899-3.325683,33.25238.071289c4.345276,1.319092,9.191346.988282,16.38031,2.622559c7.700135,6.361816,14.38263,6.159668,20.897828,6.533936Z" fill="#674830"/><path d="M1222.379395,3641.619629c9.673706,16.032471,18.605224,30.812744,27.375244,45.687988.93518,1.585938.925903,3.728516,1.439209,5.983643-11.586548,3.705566-20.942505-9.25586-32.213013-4.074951-3.892334,6.438476-2.375122,13.238769-2.411499,19.743896-.159424,28.598633-.002808,57.198731-.127564,85.797852-.022094,5.075195-.836425,10.146972-1.390014,16.4104-29.184204-7.025391-54.949951-19.07373-82.128784-27.965576-.442994-6.593018-1.081055-11.813721-1.097535-17.036377-.096435-30.594483-.0083-61.189453-.079223-91.784424-.015137-6.549805-.428345-13.098877-.625855-18.726562-11.138672-8.533448-25.59851-7.376465-34.237915-17.123047.143189-1.275879.158081-1.950928.30835-2.593994.14685-.628907.273926-1.372315.682495-1.81128c1.794556-1.925293,3.594238-3.864013,5.559814-5.609131c22.750245-20.199951,45.530884-40.365966,69.408936-61.520263c4.14563,4.835693,7.964233,8.363037,10.667847,12.601562c12.859863,20.158936,25.416259,40.511475,38.869507,62.020264Z" fill="#664830"/><path d="M1426.482422,3745.491455c2.103271,4.656738,3.435058,8.099609,5.142334,12.512695-12.211182,1.33667-21.094971-8.406494-31.312134-5.751464-5.424072,4.818603-3.879761,10.471923-3.907959,15.548339-.159058,28.643799-.039307,57.289307-.104614,85.934082-.014893,6.558594-.383789,13.116455-.591431,19.728516-16.100708-1.301514-56.845581-15.012939-82.829834-27.75415-.388794-4.454102-1.20935-9.621094-1.230224-14.791504-.123414-30.642823-.025025-61.286377-.091187-91.929688-.01416-6.582275-.397827-13.163574-.630737-20.34497-12.609741-5.22168-24.713257-10.233887-37.130615-15.375733c9.032592-11.724365,51.797851-50.472412,77.505859-70.530762c7.031128.515137,9.325317,6.594483,12.352051,11.469483c20.002929,32.216064,39.839355,64.5354,59.743286,96.812988.697754,1.131348,1.539062,2.174072,3.085205,4.472168Z" fill="#664830"/><path d="M1269.681641,3890.29541c-42.643311-15.663574-83.853028-30.686767-125.035401-45.784668-13.355957-4.89624-13.323486-4.984863-10.416992-23.634277c3.593506.209961,7.636353-.445557,10.996582.776367c48.092774,17.489014,96.066895,35.304443,144.126099,52.887207c31.205566,11.416748,62.514404,22.552002,93.742675,33.907715c3.700562,1.345459,7.184327,3.287353,10.409058,4.785644c3.178711,6.256104,3.386719,11.86792-.713745,18.624268-4.038818-.62793-8.637329-.661133-12.747803-2.094482-23.218261-8.096436-46.313354-16.545899-69.463135-24.8396-13.138671-4.707031-26.301269-9.347168-40.897338-14.628174Z" fill="#6b4b32"/><path d="M912.368835,3584.036377c.046265,28.552734-.009582,57.106445.215455,85.657959.05194,6.587158-.399537,13.744141,1.921997,19.637939c6.062927,15.39209,5.128845,31.214356,5.173156,47.067627.016724,5.973145.375977,12.029297-.507629,17.883789-.422424,2.799073-2.817993,6.486329-5.289856,7.581543-9.886963,4.380127-25.073547-4.291259-25.439575-14.653808-.538819-15.25293-.175659-30.539551-.098694-45.811035.009827-1.954346.078674-4.216309,1.01532-5.809327c7.540771-12.824462,6.006592-26.92456,6.023193-40.804199.028626-23.905273-.011291-47.810791,1.53064-73.437011c6.187378-.251954,10.821716,1.217285,15.455993,2.686523Z" fill="#694a31"/><path d="M896.301147,3467.970703c-.967285-6.963379-1.839782-13.920654.599122-20.596191c10.558532-.300537,13.76062,1.160644,14.916809,7.67456.775451,4.369141.357055,8.949951-1.026673,14.603516-5.829406.217773-10.159363-.731934-14.489258-1.681885Z" fill="#694a31"/><path d="M913.708557,3584.010254c-5.973999-1.443115-10.608337-2.912354-16.719055-4.582275-1.348206-1.7771-1.219971-3.353516-1.084961-6.120362c8.379517.014404,16.411438,2.080567,23.726318,9.03125-1.016784,1.306641-2.799682,1.476074-5.922302,1.671387Z" fill="#9a734d"/><path d="M895.033752,3468.128174c5.59729.79248,9.927247,1.742187,15.524842,3.155273c1.246399,1.263916,1.225281,2.064698,1.058471,4.062256-6.660827.822754-13.343322,1.024902-19.363647-5.160156-.089783-1.324707.711609-1.612305,2.780334-2.057373Z" fill="#9a734d"/><path d="M3848.13916,3679.98291c0-37.936767,0-73.878418,0-110.932861c5.322266-2.238281,9.922363-4.655518,14.804444-6.153076c56.606933-17.363526,113.281005-34.508057,169.886718-51.875977c43.256836-13.272217,86.439698-26.784424,129.657959-40.181641c36.859864-11.426025,73.710938-22.878417,110.600586-34.20581c4.308106-1.322754,8.836426-1.927734,14.237793-3.072266.525391,5.549317,1.318848,10.083252,1.327637,14.618653.089355,47.980224.054687,95.960205.050781,143.940429c0,1.999024-.148437,4.00586-.020508,5.995606.516114,8.048095-3.648437,11.989502-11.082519,14.102295-10.878418,3.092041-21.52002,7.007324-32.339356,10.319336-46.440429,14.215576-92.93164,28.26709-139.362793,42.513183-80.777099,24.784912-161.518798,49.685791-242.29834,74.463623-4.316162,1.323975-8.843505,1.960694-13.710693,3.012207-3.140625-10.699463-1.403808-20.708984-1.688476-30.562256-.288331-9.987548-.063477-19.990234-.063233-31.981445Z" transform="translate(.000001 0)" fill="#66482f"/><path d="M4048.661621,3256.552246c79.729004-24.361572,157.909668-48.310058,237.513672-72.694092c1.062988,4.432373,2.376953,7.373535,2.383789,10.317871.12207,51.990723.101563,103.98169.027832,155.972657-.003418,2.585205-.77832,5.169189-1.130859,7.358154-14.739258,7.741211-383.999268,123.401123-427.048096,133.72583-3.064697.735107-6.458984.096191-10.279297.096191-.684326-2.798584-1.688965-5.265625-1.841064-7.784179-1.399659-23.127198-.204346-150.967285,1.593994-165.081787c65.010986-21.477051,131.521728-40.229981,198.780029-61.910645Z" transform="translate(0-5.292328)" fill="#66482f"/></g>
<script><![CDATA[
!function(t,n){"object"==typeof exports&&"undefined"!=typeof module?module.exports=n():"function"==typeof __SVGATOR_DEFINE__&&__SVGATOR_DEFINE__.amd?__SVGATOR_DEFINE__(n):((t="undefined"!=typeof globalThis?globalThis:t||self).__SVGATOR_PLAYER__=t.__SVGATOR_PLAYER__||{},t.__SVGATOR_PLAYER__["5c7f360c"]=n())}(this,(function(){"use strict";function t(t,n){var e=Object.keys(t);if(Object.getOwnPropertySymbols){var r=Object.getOwnPropertySymbols(t);n&&(r=r.filter((function(n){return Object.getOwnPropertyDescriptor(t,n).enumerable}))),e.push.apply(e,r)}return e}function n(n){for(var e=1;e<arguments.length;e++){var r=null!=arguments[e]?arguments[e]:{};e%2?t(Object(r),!0).forEach((function(t){u(n,t,r[t])})):Object.getOwnPropertyDescriptors?Object.defineProperties(n,Object.getOwnPropertyDescriptors(r)):t(Object(r)).forEach((function(t){Object.defineProperty(n,t,Object.getOwnPropertyDescriptor(r,t))}))}return n}function e(t){return(e="function"==typeof Symbol&&"symbol"==typeof Symbol.iterator?function(t){return typeof t}:function(t){return t&&"function"==typeof Symbol&&t.constructor===Symbol&&t!==Symbol.prototype?"symbol":typeof t})(t)}function r(t,n){if(!(t instanceof n))throw new TypeError("Cannot call a class as a function")}function i(t,n){for(var e=0;e<n.length;e++){var r=n[e];r.enumerable=r.enumerable||!1,r.configurable=!0,"value"in r&&(r.writable=!0),Object.defineProperty(t,r.key,r)}}function o(t,n,e){return n&&i(t.prototype,n),e&&i(t,e),t}function u(t,n,e){return n in t?Object.defineProperty(t,n,{value:e,enumerable:!0,configurable:!0,writable:!0}):t[n]=e,t}function a(t){return(a=Object.setPrototypeOf?Object.getPrototypeOf:function(t){return t.__proto__||Object.getPrototypeOf(t)})(t)}function l(t,n){return(l=Object.setPrototypeOf||function(t,n){return t.__proto__=n,t})(t,n)}function s(){if("undefined"==typeof Reflect||!Reflect.construct)return!1;if(Reflect.construct.sham)return!1;if("function"==typeof Proxy)return!0;try{return Boolean.prototype.valueOf.call(Reflect.construct(Boolean,[],(function(){}))),!0}catch(t){return!1}}function f(t,n,e){return(f=s()?Reflect.construct:function(t,n,e){var r=[null];r.push.apply(r,n);var i=new(Function.bind.apply(t,r));return e&&l(i,e.prototype),i}).apply(null,arguments)}function c(t,n){if(n&&("object"==typeof n||"function"==typeof n))return n;if(void 0!==n)throw new TypeError("Derived constructors may only return object or undefined");return function(t){if(void 0===t)throw new ReferenceError("this hasn't been initialised - super() hasn't been called");return t}(t)}function h(t,n,e){return(h="undefined"!=typeof Reflect&&Reflect.get?Reflect.get:function(t,n,e){var r=function(t,n){for(;!Object.prototype.hasOwnProperty.call(t,n)&&null!==(t=a(t)););return t}(t,n);if(r){var i=Object.getOwnPropertyDescriptor(r,n);return i.get?i.get.call(e):i.value}})(t,n,e||t)}function v(t){return function(t){if(Array.isArray(t))return y(t)}(t)||function(t){if("undefined"!=typeof Symbol&&null!=t[Symbol.iterator]||null!=t["@@iterator"])return Array.from(t)}(t)||function(t,n){if(!t)return;if("string"==typeof t)return y(t,n);var e=Object.prototype.toString.call(t).slice(8,-1);"Object"===e&&t.constructor&&(e=t.constructor.name);if("Map"===e||"Set"===e)return Array.from(t);if("Arguments"===e||/^(?:Ui|I)nt(?:8|16|32)(?:Clamped)?Array$/.test(e))return y(t,n)}(t)||function(){throw new TypeError("Invalid attempt to spread non-iterable instance.\nIn order to be iterable, non-array objects must have a [Symbol.iterator]() method.")}()}function y(t,n){(null==n||n>t.length)&&(n=t.length);for(var e=0,r=new Array(n);e<n;e++)r[e]=t[e];return r}function g(t,n,e){if(Number.isInteger(t))return t;var r=Math.pow(10,n);return Math[e]((+t+Number.EPSILON)*r)/r}Number.isInteger||(Number.isInteger=function(t){return"number"==typeof t&&isFinite(t)&&Math.floor(t)===t}),Number.EPSILON||(Number.EPSILON=2220446049250313e-31);var d=p(Math.pow(10,-6));function p(t){var n=arguments.length>1&&void 0!==arguments[1]?arguments[1]:6;return g(t,n,"round")}function m(t,n){var e=arguments.length>2&&void 0!==arguments[2]?arguments[2]:d;return Math.abs(t-n)<e}p(Math.pow(10,-2)),p(Math.pow(10,-4));var b=Math.PI/180;function w(t){return t}function A(t,n,e){var r=1-e;return 3*e*r*(t*r+n*e)+e*e*e}function _(){var t=arguments.length>0&&void 0!==arguments[0]?arguments[0]:0,n=arguments.length>1&&void 0!==arguments[1]?arguments[1]:0,e=arguments.length>2&&void 0!==arguments[2]?arguments[2]:1,r=arguments.length>3&&void 0!==arguments[3]?arguments[3]:1;return t<0||t>1||e<0||e>1?null:m(t,n)&&m(e,r)?w:function(i){if(i<=0)return t>0?i*n/t:0===n&&e>0?i*r/e:0;if(i>=1)return e<1?1+(i-1)*(r-1)/(e-1):1===e&&t<1?1+(i-1)*(n-1)/(t-1):1;for(var o,u=0,a=1;u<a;){var l=A(t,e,o=(u+a)/2);if(m(i,l))break;l<i?u=o:a=o}return A(n,r,o)}}function x(){return 1}function k(t){return 1===t?1:0}function S(){var t=arguments.length>0&&void 0!==arguments[0]?arguments[0]:1,n=arguments.length>1&&void 0!==arguments[1]?arguments[1]:0;if(1===t){if(0===n)return k;if(1===n)return x}var e=1/t;return function(t){return t>=1?1:(t+=n*e)-t%e}}var O=Math.sin,j=Math.cos,M=Math.acos,E=Math.asin,P=Math.tan,I=Math.atan2,R=Math.PI/180,F=180/Math.PI,N=Math.sqrt,T=function(){function t(){var n=arguments.length>0&&void 0!==arguments[0]?arguments[0]:1,e=arguments.length>1&&void 0!==arguments[1]?arguments[1]:0,i=arguments.length>2&&void 0!==arguments[2]?arguments[2]:0,o=arguments.length>3&&void 0!==arguments[3]?arguments[3]:1,u=arguments.length>4&&void 0!==arguments[4]?arguments[4]:0,a=arguments.length>5&&void 0!==arguments[5]?arguments[5]:0;r(this,t),this.m=[n,e,i,o,u,a],this.i=null,this.w=null,this.s=null}return o(t,[{key:"determinant",get:function(){var t=this.m;return t[0]*t[3]-t[1]*t[2]}},{key:"isIdentity",get:function(){if(null===this.i){var t=this.m;this.i=1===t[0]&&0===t[1]&&0===t[2]&&1===t[3]&&0===t[4]&&0===t[5]}return this.i}},{key:"point",value:function(t,n){var e=this.m;return{x:e[0]*t+e[2]*n+e[4],y:e[1]*t+e[3]*n+e[5]}}},{key:"translateSelf",value:function(){var t=arguments.length>0&&void 0!==arguments[0]?arguments[0]:0,n=arguments.length>1&&void 0!==arguments[1]?arguments[1]:0;if(!t&&!n)return this;var e=this.m;return e[4]+=e[0]*t+e[2]*n,e[5]+=e[1]*t+e[3]*n,this.w=this.s=this.i=null,this}},{key:"rotateSelf",value:function(){var t=arguments.length>0&&void 0!==arguments[0]?arguments[0]:0;if(t%=360){var n=O(t*=R),e=j(t),r=this.m,i=r[0],o=r[1];r[0]=i*e+r[2]*n,r[1]=o*e+r[3]*n,r[2]=r[2]*e-i*n,r[3]=r[3]*e-o*n,this.w=this.s=this.i=null}return this}},{key:"scaleSelf",value:function(){var t=arguments.length>0&&void 0!==arguments[0]?arguments[0]:1,n=arguments.length>1&&void 0!==arguments[1]?arguments[1]:1;if(1!==t||1!==n){var e=this.m;e[0]*=t,e[1]*=t,e[2]*=n,e[3]*=n,this.w=this.s=this.i=null}return this}},{key:"skewSelf",value:function(t,n){if(n%=360,(t%=360)||n){var e=this.m,r=e[0],i=e[1],o=e[2],u=e[3];t&&(t=P(t*R),e[2]+=r*t,e[3]+=i*t),n&&(n=P(n*R),e[0]+=o*n,e[1]+=u*n),this.w=this.s=this.i=null}return this}},{key:"resetSelf",value:function(){var t=arguments.length>0&&void 0!==arguments[0]?arguments[0]:1,n=arguments.length>1&&void 0!==arguments[1]?arguments[1]:0,e=arguments.length>2&&void 0!==arguments[2]?arguments[2]:0,r=arguments.length>3&&void 0!==arguments[3]?arguments[3]:1,i=arguments.length>4&&void 0!==arguments[4]?arguments[4]:0,o=arguments.length>5&&void 0!==arguments[5]?arguments[5]:0,u=this.m;return u[0]=t,u[1]=n,u[2]=e,u[3]=r,u[4]=i,u[5]=o,this.w=this.s=this.i=null,this}},{key:"recomposeSelf",value:function(){var t=arguments.length>0&&void 0!==arguments[0]?arguments[0]:null,n=arguments.length>1&&void 0!==arguments[1]?arguments[1]:null,e=arguments.length>2&&void 0!==arguments[2]?arguments[2]:null,r=arguments.length>3&&void 0!==arguments[3]?arguments[3]:null,i=arguments.length>4&&void 0!==arguments[4]?arguments[4]:null;return this.isIdentity||this.resetSelf(),t&&(t.x||t.y)&&this.translateSelf(t.x,t.y),n&&this.rotateSelf(n),e&&(e.x&&this.skewSelf(e.x,0),e.y&&this.skewSelf(0,e.y)),!r||1===r.x&&1===r.y||this.scaleSelf(r.x,r.y),i&&(i.x||i.y)&&this.translateSelf(i.x,i.y),this}},{key:"decompose",value:function(){var t=arguments.length>0&&void 0!==arguments[0]?arguments[0]:0,n=arguments.length>1&&void 0!==arguments[1]?arguments[1]:0,e=this.m,r=e[0]*e[0]+e[1]*e[1],i=[[e[0],e[1]],[e[2],e[3]]],o=N(r);if(0===o)return{origin:{x:p(e[4]),y:p(e[5])},translate:{x:p(t),y:p(n)},scale:{x:0,y:0},skew:{x:0,y:0},rotate:0};i[0][0]/=o,i[0][1]/=o;var u=e[0]*e[3]-e[1]*e[2]<0;u&&(o=-o);var a=i[0][0]*i[1][0]+i[0][1]*i[1][1];i[1][0]-=i[0][0]*a,i[1][1]-=i[0][1]*a;var l=N(i[1][0]*i[1][0]+i[1][1]*i[1][1]);if(0===l)return{origin:{x:p(e[4]),y:p(e[5])},translate:{x:p(t),y:p(n)},scale:{x:p(o),y:0},skew:{x:0,y:0},rotate:0};i[1][0]/=l,i[1][1]/=l,a/=l;var s=0;return i[1][1]<0?(s=M(i[1][1])*F,i[0][1]<0&&(s=360-s)):s=E(i[0][1])*F,u&&(s=-s),a=I(a,N(i[0][0]*i[0][0]+i[0][1]*i[0][1]))*F,u&&(a=-a),{origin:{x:p(e[4]),y:p(e[5])},translate:{x:p(t),y:p(n)},scale:{x:p(o),y:p(l)},skew:{x:p(a),y:0},rotate:p(s)}}},{key:"clone",value:function(){var t=this.m;return new this.constructor(t[0],t[1],t[2],t[3],t[4],t[5])}},{key:"toString",value:function(){var t=arguments.length>0&&void 0!==arguments[0]?arguments[0]:" ";if(null===this.s){var n=this.m.map((function(t){return p(t)}));1===n[0]&&0===n[1]&&0===n[2]&&1===n[3]?this.s="translate("+n[4]+t+n[5]+")":this.s="matrix("+n.join(t)+")"}return this.s}}],[{key:"create",value:function(t){return t?Array.isArray(t)?f(this,v(t)):t instanceof this?t.clone():(new this).recomposeSelf(t.origin,t.rotate,t.skew,t.scale,t.translate):new this}}]),t}();function q(t,n,e){return t>=.5?e:n}function B(t,n,e){return 0===t||n===e?n:t*(e-n)+n}function D(t,n,e){var r=B(t,n,e);return r<=0?0:r}function L(t,n,e){var r=B(t,n,e);return r<=0?0:r>=1?1:r}function C(t,n,e){return 0===t?n:1===t?e:{x:B(t,n.x,e.x),y:B(t,n.y,e.y)}}function V(t,n,e){var r=function(t,n,e){return Math.round(B(t,n,e))}(t,n,e);return r<=0?0:r>=255?255:r}function G(t,n,e){return 0===t?n:1===t?e:{r:V(t,n.r,e.r),g:V(t,n.g,e.g),b:V(t,n.b,e.b),a:B(t,null==n.a?1:n.a,null==e.a?1:e.a)}}function z(t,n){for(var e=[],r=0;r<t;r++)e.push(n);return e}function Y(t,n){if(--n<=0)return t;var e=(t=Object.assign([],t)).length;do{for(var r=0;r<e;r++)t.push(t[r])}while(--n>0);return t}var $,U=function(){function t(n){r(this,t),this.list=n,this.length=n.length}return o(t,[{key:"setAttribute",value:function(t,n){for(var e=this.list,r=0;r<this.length;r++)e[r].setAttribute(t,n)}},{key:"removeAttribute",value:function(t){for(var n=this.list,e=0;e<this.length;e++)n[e].removeAttribute(t)}},{key:"style",value:function(t,n){for(var e=this.list,r=0;r<this.length;r++)e[r].style[t]=n}}]),t}(),Q=/-./g,H=function(t,n){return n.toUpperCase()};function J(t){return"function"==typeof t?t:q}function Z(t){return t?"function"==typeof t?t:Array.isArray(t)?function(t){var n=arguments.length>1&&void 0!==arguments[1]?arguments[1]:w;if(!Array.isArray(t))return n;switch(t.length){case 1:return S(t[0])||n;case 2:return S(t[0],t[1])||n;case 4:return _(t[0],t[1],t[2],t[3])||n}return n}(t,null):function(t,n){var e=arguments.length>2&&void 0!==arguments[2]?arguments[2]:w;switch(t){case"linear":return w;case"steps":return S(n.steps||1,n.jump||0)||e;case"bezier":case"cubic-bezier":return _(n.x1||0,n.y1||0,n.x2||0,n.y2||0)||e}return e}(t.type,t.value,null):null}function K(t,n,e){var r=arguments.length>3&&void 0!==arguments[3]&&arguments[3],i=n.length-1;if(t<=n[0].t)return r?[0,0,n[0].v]:n[0].v;if(t>=n[i].t)return r?[i,1,n[i].v]:n[i].v;var o,u=n[0],a=null;for(o=1;o<=i;o++){if(!(t>n[o].t)){a=n[o];break}u=n[o]}return null==a?r?[i,1,n[i].v]:n[i].v:u.t===a.t?r?[o,1,a.v]:a.v:(t=(t-u.t)/(a.t-u.t),u.e&&(t=u.e(t)),r?[o,t,e(t,u.v,a.v)]:e(t,u.v,a.v))}function W(t,n){var e=arguments.length>2&&void 0!==arguments[2]?arguments[2]:null;return t&&t.length?"function"!=typeof n?null:("function"!=typeof e&&(e=null),function(r){var i=K(r,t,n);return null!=i&&e&&(i=e(i)),i}):null}function X(t,n){return t.t-n.t}function tt(t,n,r,i,o){var u,a="@"===r[0],l="#"===r[0],s=$[r],f=q;switch(a?(u=r.substr(1),r=u.replace(Q,H)):l&&(r=r.substr(1)),e(s)){case"function":if(f=s(i,o,K,Z,r,a,n,t),l)return f;break;case"string":f=W(i,J(s));break;case"object":if((f=W(i,J(s.i),s.f))&&"function"==typeof s.u)return s.u(n,f,r,a,t)}return f?function(t,n,e){if(arguments.length>3&&void 0!==arguments[3]&&arguments[3])return t instanceof U?function(r){return t.style(n,e(r))}:function(r){return t.style[n]=e(r)};if(Array.isArray(n)){var r=n.length;return function(i){var o=e(i);if(null==o)for(var u=0;u<r;u++)t[u].removeAttribute(n);else for(var a=0;a<r;a++)t[a].setAttribute(n,o)}}return function(r){var i=e(r);null==i?t.removeAttribute(n):t.setAttribute(n,i)}}(n,r,f,a):null}function nt(t,n,r,i){if(!i||"object"!==e(i))return null;var o=null,u=null;return Array.isArray(i)?u=function(t){if(!t||!t.length)return null;for(var n=0;n<t.length;n++)t[n].e&&(t[n].e=Z(t[n].e));return t.sort(X)}(i):(u=i.keys,o=i.data||null),u?tt(t,n,r,u,o):null}function et(t,n,e){if(!e)return null;var r=[];for(var i in e)if(e.hasOwnProperty(i)){var o=nt(t,n,i,e[i]);o&&r.push(o)}return r.length?r:null}function rt(t,n){if(!n.settings.duration||n.settings.duration<0)return null;var e,r,i,o,u,a=function(t,n){if(!n)return null;var e=[];if(Array.isArray(n))for(var r=n.length,i=0;i<r;i++){var o=n[i];if(2===o.length){var u=null;if("string"==typeof o[0])u=t.getElementById(o[0]);else if(Array.isArray(o[0])){u=[];for(var a=0;a<o[0].length;a++)if("string"==typeof o[0][a]){var l=t.getElementById(o[0][a]);l&&u.push(l)}u=u.length?1===u.length?u[0]:new U(u):null}if(u){var s=et(t,u,o[1]);s&&(e=e.concat(s))}}}else for(var f in n)if(n.hasOwnProperty(f)){var c=t.getElementById(f);if(c){var h=et(t,c,n[f]);h&&(e=e.concat(h))}}return e.length?e:null}(t,n.elements);return a?(e=a,r=n.settings,i=r.duration,o=e.length,u=null,function(t,n){var a=r.iterations||1/0,l=(r.alternate&&a%2==0)^r.direction>0?i:0,s=t%i,f=1+(t-s)/i;n*=r.direction,r.alternate&&f%2==0&&(n=-n);var c=!1;if(f>a)s=l,c=!0,-1===r.fill&&(s=r.direction>0?0:i);else if(n<0&&(s=i-s),s===u)return!1;u=s;for(var h=0;h<o;h++)e[h](s);return c}):null}function it(t,n){for(var e=n.querySelectorAll("svg"),r=0;r<e.length;r++)if(e[r].id===t.root&&!e[r].svgatorAnimation)return e[r].svgatorAnimation=!0,e[r];return null}function ot(t){var n=function(t){return t.shadowRoot};return document?Array.from(t.querySelectorAll(":not("+["a","area","audio","br","canvas","circle","datalist","embed","g","head","hr","iframe","img","input","link","object","path","polygon","rect","script","source","style","svg","title","track","video"].join()+")")).filter(n).map(n):[]}function ut(t){var n=arguments.length>1&&void 0!==arguments[1]?arguments[1]:document,e=arguments.length>2&&void 0!==arguments[2]?arguments[2]:0,r=it(t,n);if(r)return r;if(e>=20)return null;for(var i=ot(n),o=0;o<i.length;o++){var u=ut(t,i[o],e+1);if(u)return u}return null}function at(t,n){if($=n,!t||!t.root||!Array.isArray(t.animations))return null;var e=ut(t);if(!e)return null;var r=t.animations.map((function(t){return rt(e,t)})).filter((function(t){return!!t}));return r.length?{svg:e,animations:r,animationSettings:t.animationSettings,options:t.options||void 0}:null}function lt(t){var n=arguments.length>1&&void 0!==arguments[1]?arguments[1]:null,e=arguments.length>2&&void 0!==arguments[2]?arguments[2]:Number,r=arguments.length>3&&void 0!==arguments[3]?arguments[3]:"undefined"!=typeof BigInt&&BigInt,i="0x"+(t.replace(/[^0-9a-fA-F]+/g,"")||27);return n&&r&&e.isSafeInteger&&!e.isSafeInteger(+i)?e(r(i))%n+n:+i}function st(t,n,e){return!t||!e||n>t.length?t:t.substring(0,n)+st(t.substring(n+1),e,e)}function ft(t){var n=arguments.length>1&&void 0!==arguments[1]?arguments[1]:27;return!t||t%n?t%n:[0,1].includes(n)?n:ft(t/n,n)}function ct(t,n,e){if(t&&t.length){var r=lt(e),i=ft(r)+5,o=st(t,ft(r,5),i);return o=o.replace(/\x7c$/g,"==").replace(/\x2f$/g,"="),o=function(t,n,e){var r=+("0x"+t.substring(0,4));t=t.substring(4);for(var i=lt(n,r)%r+e%27,o=[],u=0;u<t.length;u+=2)if("|"!==t[u]){var a=+("0x"+t[u]+t[u+1])-i;o.push(a)}else{var l=+("0x"+t.substring(u+1,u+1+4))-i;u+=3,o.push(l)}return String.fromCharCode.apply(String,o)}(o=(o=atob(o)).replace(/[\x41-\x5A]/g,""),n,r),o=JSON.parse(o)}}var ht=[{key:"alternate",def:!1},{key:"fill",def:1},{key:"iterations",def:0},{key:"direction",def:1},{key:"speed",def:1},{key:"fps",def:100}],vt=function(){function t(n,e){var i=this,o=arguments.length>2&&void 0!==arguments[2]?arguments[2]:null;r(this,t),this._id=0,this._running=!1,this._rollingBack=!1,this._animations=n,this._settings=e,(!o||o<"2022-05-02")&&delete this._settings.speed,ht.forEach((function(t){i._settings[t.key]=i._settings[t.key]||t.def})),this.duration=e.duration,this.offset=e.offset||0,this.rollbackStartOffset=0}return o(t,[{key:"alternate",get:function(){return this._settings.alternate}},{key:"fill",get:function(){return this._settings.fill}},{key:"iterations",get:function(){return this._settings.iterations}},{key:"direction",get:function(){return this._settings.direction}},{key:"speed",get:function(){return this._settings.speed}},{key:"fps",get:function(){return this._settings.fps}},{key:"maxFiniteDuration",get:function(){return this.iterations>0?this.iterations*this.duration:this.duration}},{key:"_apply",value:function(t){for(var n=arguments.length>1&&void 0!==arguments[1]?arguments[1]:{},e=this._animations,r=e.length,i=0,o=0;o<r;o++)n[o]?i++:(n[o]=e[o](t,1),n[o]&&i++);return i}},{key:"_rollback",value:function(t){var n=this,e=1/0,r=null;this.rollbackStartOffset=t,this._rollingBack=!0,this._running=!0;this._id=window.requestAnimationFrame((function i(o){if(n._rollingBack){null==r&&(r=o);var u=Math.round(t-(o-r)*n.speed);if(u>n.duration&&e!==1/0){var a=!!n.alternate&&u/n.duration%2>1,l=u%n.duration;u=(l+=a?n.duration:0)||n.duration}var s=(n.fps?1e3/n.fps:0)*n.speed,f=Math.max(0,u);f<=e-s&&(n.offset=f,e=f,n._apply(f));var c=n.iterations>0&&-1===n.fill&&u>=n.maxFiniteDuration;(u<=0||n.offset<u||c)&&n.stop(),n._id=window.requestAnimationFrame(i)}}))}},{key:"_start",value:function(){var t=this,n=arguments.length>0&&void 0!==arguments[0]?arguments[0]:0,e=-1/0,r=null,i={};this._running=!0;var o=function o(u){null==r&&(r=u);var a=Math.round((u-r)*t.speed+n),l=(t.fps?1e3/t.fps:0)*t.speed;if(a>=e+l&&!t._rollingBack&&(t.offset=a,e=a,t._apply(a,i)===t._animations.length))return void t.pause(!0);t._id=window.requestAnimationFrame(o)};this._id=window.requestAnimationFrame(o)}},{key:"_pause",value:function(){this._id&&window.cancelAnimationFrame(this._id),this._running=!1}},{key:"play",value:function(){if(!this._running)return this._rollingBack?this._rollback(this.offset):this._start(this.offset)}},{key:"stop",value:function(){this._pause(),this.offset=0,this.rollbackStartOffset=0,this._rollingBack=!1,this._apply(0)}},{key:"reachedToEnd",value:function(){return this.iterations>0&&this.offset>=this.iterations*this.duration}},{key:"restart",value:function(){var t=arguments.length>0&&void 0!==arguments[0]&&arguments[0];this.stop(t),this.play(t)}},{key:"pause",value:function(){this._pause()}},{key:"reverse",value:function(){this.direction=-this.direction}}],[{key:"build",value:function(t,n){delete t.animationSettings,t.options=ct(t.options,t.root,"5c7f360c"),t.animations.map((function(n){n.settings=ct(n.s,t.root,"5c7f360c"),delete n.s,t.animationSettings||(t.animationSettings=n.settings)}));var e=t.version;if(!(t=at(t,n)))return null;var r=t.options||{},i=new this(t.animations,t.animationSettings,e);return{el:t.svg,options:r,player:i}}},{key:"push",value:function(t){return this.build(t)}},{key:"init",value:function(){var t=this,n=window.__SVGATOR_PLAYER__&&window.__SVGATOR_PLAYER__["5c7f360c"];Array.isArray(n)&&n.splice(0).forEach((function(n){return t.build(n)}))}}]),t}();function yt(t){return p(t)+""}function gt(t){var n=arguments.length>1&&void 0!==arguments[1]?arguments[1]:" ";return t&&t.length?t.map(yt).join(n):""}function dt(t){if(!t)return"transparent";if(null==t.a||t.a>=1){var n=function(t){return 1===(t=parseInt(t).toString(16)).length?"0"+t:t},e=function(t){return t.charAt(0)===t.charAt(1)},r=n(t.r),i=n(t.g),o=n(t.b);return e(r)&&e(i)&&e(o)&&(r=r.charAt(0),i=i.charAt(0),o=o.charAt(0)),"#"+r+i+o}return"rgba("+t.r+","+t.g+","+t.b+","+t.a+")"}function pt(t){return t?"url(#"+t+")":"none"}!function(){for(var t=0,n=["ms","moz","webkit","o"],e=0;e<n.length&&!window.requestAnimationFrame;++e)window.requestAnimationFrame=window[n[e]+"RequestAnimationFrame"],window.cancelAnimationFrame=window[n[e]+"CancelAnimationFrame"]||window[n[e]+"CancelRequestAnimationFrame"];window.requestAnimationFrame||(window.requestAnimationFrame=function(n){var e=Date.now(),r=Math.max(0,16-(e-t)),i=window.setTimeout((function(){n(e+r)}),r);return t=e+r,i},window.cancelAnimationFrame=window.clearTimeout)}();var mt={f:null,i:function(t,n,e){return 0===t?n:1===t?e:{x:D(t,n.x,e.x),y:D(t,n.y,e.y)}},u:function(t,n){return function(e){var r=n(e);t.setAttribute("rx",yt(r.x)),t.setAttribute("ry",yt(r.y))}}},bt={f:null,i:function(t,n,e){return 0===t?n:1===t?e:{width:D(t,n.width,e.width),height:D(t,n.height,e.height)}},u:function(t,n){return function(e){var r=n(e);t.setAttribute("width",yt(r.width)),t.setAttribute("height",yt(r.height))}}};Object.freeze({M:2,L:2,Z:0,H:1,V:1,C:6,Q:4,T:2,S:4,A:7});var wt={},At=null;function _t(t){var n=function(){if(At)return At;if("object"!==("undefined"==typeof document?"undefined":e(document))||!document.createElementNS)return{};var t=document.createElementNS("http://www.w3.org/2000/svg","svg");return t&&t.style?(t.style.position="absolute",t.style.opacity="0.01",t.style.zIndex="-9999",t.style.left="-9999px",t.style.width="1px",t.style.height="1px",At={svg:t}):{}}().svg;if(!n)return function(t){return null};var r=document.createElementNS(n.namespaceURI,"path");r.setAttributeNS(null,"d",t),r.setAttributeNS(null,"fill","none"),r.setAttributeNS(null,"stroke","none"),n.appendChild(r);var i=r.getTotalLength();return function(t){var n=r.getPointAtLength(i*t);return{x:n.x,y:n.y}}}function xt(t){return wt[t]?wt[t]:wt[t]=_t(t)}function kt(t,n,e,r){if(!t||!r)return!1;var i=["M",t.x,t.y];if(n&&e&&(i.push("C"),i.push(n.x),i.push(n.y),i.push(e.x),i.push(e.y)),n?!e:e){var o=n||e;i.push("Q"),i.push(o.x),i.push(o.y)}return n||e||i.push("L"),i.push(r.x),i.push(r.y),i.join(" ")}function St(t,n,e,r){var i=arguments.length>4&&void 0!==arguments[4]?arguments[4]:1,o=kt(t,n,e,r),u=xt(o);try{return u(i)}catch(t){return null}}function Ot(t,n,e){return t+(n-t)*e}function jt(t,n,e){var r=arguments.length>3&&void 0!==arguments[3]&&arguments[3],i={x:Ot(t.x,n.x,e),y:Ot(t.y,n.y,e)};return r&&(i.a=Mt(t,n)),i}function Mt(t,n){return Math.atan2(n.y-t.y,n.x-t.x)}function Et(t,n,e,r){var i=1-r;return i*i*t+2*i*r*n+r*r*e}function Pt(t,n,e,r){return 2*(1-r)*(n-t)+2*r*(e-n)}function It(t,n,e,r){var i=arguments.length>4&&void 0!==arguments[4]&&arguments[4],o=St(t,n,null,e,r);return o||(o={x:Et(t.x,n.x,e.x,r),y:Et(t.y,n.y,e.y,r)}),i&&(o.a=Rt(t,n,e,r)),o}function Rt(t,n,e,r){return Math.atan2(Pt(t.y,n.y,e.y,r),Pt(t.x,n.x,e.x,r))}function Ft(t,n,e,r,i){var o=i*i;return i*o*(r-t+3*(n-e))+3*o*(t+e-2*n)+3*i*(n-t)+t}function Nt(t,n,e,r,i){var o=1-i;return 3*(o*o*(n-t)+2*o*i*(e-n)+i*i*(r-e))}function Tt(t,n,e,r,i){var o=arguments.length>5&&void 0!==arguments[5]&&arguments[5],u=St(t,n,e,r,i);return u||(u={x:Ft(t.x,n.x,e.x,r.x,i),y:Ft(t.y,n.y,e.y,r.y,i)}),o&&(u.a=qt(t,n,e,r,i)),u}function qt(t,n,e,r,i){return Math.atan2(Nt(t.y,n.y,e.y,r.y,i),Nt(t.x,n.x,e.x,r.x,i))}function Bt(t,n,e){var r=arguments.length>3&&void 0!==arguments[3]&&arguments[3];if(Lt(n)){if(Ct(e))return It(n,e.start,e,t,r)}else if(Lt(e)){if(Vt(n))return It(n,n.end,e,t,r)}else{if(Vt(n))return Ct(e)?Tt(n,n.end,e.start,e,t,r):It(n,n.end,e,t,r);if(Ct(e))return It(n,e.start,e,t,r)}return jt(n,e,t,r)}function Dt(t,n,e){var r=Bt(t,n,e,!0);return r.a=function(t){return arguments.length>1&&void 0!==arguments[1]&&arguments[1]?t+Math.PI:t}(r.a)/b,r}function Lt(t){return!t.type||"corner"===t.type}function Ct(t){return null!=t.start&&!Lt(t)}function Vt(t){return null!=t.end&&!Lt(t)}var Gt=new T;var zt={f:yt,i:B},Yt={f:yt,i:L};function $t(t,n,e){return t.map((function(t){return function(t,n,e){var r=t.v;if(!r||"g"!==r.t||r.s||!r.v||!r.r)return t;var i=e.getElementById(r.r),o=i&&i.querySelectorAll("stop")||[];return r.s=r.v.map((function(t,n){var e=o[n]&&o[n].getAttribute("offset");return{c:t,o:e=p(parseInt(e)/100)}})),delete r.v,t}(t,0,e)}))}var Ut={gt:"gradientTransform",c:{x:"cx",y:"cy"},rd:"r",f:{x:"x1",y:"y1"},to:{x:"x2",y:"y2"}};function Qt(t,n,r,i,o,u,a,l){return $t(t,0,l),n=function(t,n,e){for(var r,i,o,u=t.length-1,a={},l=0;l<=u;l++)(r=t[l]).e&&(r.e=n(r.e)),r.v&&"g"===(i=r.v).t&&i.r&&(o=e.getElementById(i.r))&&(a[i.r]={e:o,s:o.querySelectorAll("stop")});return a}(t,i,l),function(i){var o=r(i,t,Ht);if(!o)return"none";if("c"===o.t)return dt(o.v);if("g"===o.t){if(!n[o.r])return pt(o.r);var u=n[o.r];return function(t,n){for(var e=t.s,r=e.length;r<n.length;r++){var i=e[e.length-1].cloneNode();i.id=Kt(i.id),t.e.appendChild(i),e=t.s=t.e.querySelectorAll("stop")}for(var o=0,u=e.length,a=n.length-1;o<u;o++)e[o].setAttribute("stop-color",dt(n[Math.min(o,a)].c)),e[o].setAttribute("offset",n[Math.min(o,a)].o)}(u,o.s),Object.keys(Ut).forEach((function(t){if(void 0!==o[t])if("object"!==e(Ut[t])){var n,r="gt"===t?(n=o[t],Array.isArray(n)?"matrix("+n.join(" ")+")":""):o[t],i=Ut[t];u.e.setAttribute(i,r)}else Object.keys(Ut[t]).forEach((function(n){if(void 0!==o[t][n]){var e=o[t][n],r=Ut[t][n];u.e.setAttribute(r,e)}}))})),pt(o.r)}return"none"}}function Ht(t,e,r){if(0===t)return e;if(1===t)return r;if(e&&r){var i=e.t;if(i===r.t)switch(e.t){case"c":return{t:i,v:G(t,e.v,r.v)};case"g":if(e.r===r.r){var o={t:i,s:Jt(t,e.s,r.s),r:e.r};return e.gt&&r.gt&&(o.gt=function(t,n,e){var r=n.length;if(r!==e.length)return q(t,n,e);for(var i=new Array(r),o=0;o<r;o++)i[o]=B(t,n[o],e[o]);return i}(t,e.gt,r.gt)),e.c?(o.c=C(t,e.c,r.c),o.rd=D(t,e.rd,r.rd)):e.f&&(o.f=C(t,e.f,r.f),o.to=C(t,e.to,r.to)),o}}if("c"===e.t&&"g"===r.t||"c"===r.t&&"g"===e.t){var u="c"===e.t?e:r,a="g"===e.t?n({},e):n({},r),l=a.s.map((function(t){return{c:u.v,o:t.o}}));return a.s="c"===e.t?Jt(t,l,a.s):Jt(t,a.s,l),a}}return q(t,e,r)}function Jt(t,n,e){if(n.length===e.length)return n.map((function(n,r){return Zt(t,n,e[r])}));for(var r=Math.max(n.length,e.length),i=[],o=0;o<r;o++){var u=Zt(t,n[Math.min(o,n.length-1)],e[Math.min(o,e.length-1)]);i.push(u)}return i}function Zt(t,n,e){return{o:L(t,n.o,e.o||0),c:G(t,n.c,e.c||{})}}function Kt(t){return t.replace(/-fill-([0-9]+)$/,(function(t,n){return"-fill-"+(+n+1)}))}var Wt={fill:Qt,"fill-opacity":Yt,stroke:Qt,"stroke-opacity":Yt,"stroke-width":zt,"stroke-dashoffset":{f:yt,i:B},"stroke-dasharray":{f:function(t){var n=arguments.length>1&&void 0!==arguments[1]?arguments[1]:" ";return t&&t.length>0&&(t=t.map((function(t){return p(t,4)}))),gt(t,n)},i:function(t,n,e){var r,i,o,u=n.length,a=e.length;if(u!==a)if(0===u)n=z(u=a,0);else if(0===a)a=u,e=z(u,0);else{var l=(o=(r=u)*(i=a)/function(t,n){for(var e;n;)e=n,n=t%n,t=e;return t||1}(r,i))<0?-o:o;n=Y(n,Math.floor(l/u)),e=Y(e,Math.floor(l/a)),u=a=l}for(var s=[],f=0;f<u;f++)s.push(p(D(t,n[f],e[f])));return s}},opacity:Yt,transform:function(t,n,r,i){if(!(t=function(t,n){if(!t||"object"!==e(t))return null;var r=!1;for(var i in t)t.hasOwnProperty(i)&&(t[i]&&t[i].length?(t[i].forEach((function(t){t.e&&(t.e=n(t.e))})),r=!0):delete t[i]);return r?t:null}(t,i)))return null;var o=function(e,i,o){var u=arguments.length>3&&void 0!==arguments[3]?arguments[3]:null;return t[e]?r(i,t[e],o):n&&n[e]?n[e]:u};return n&&n.a&&t.o?function(n){var e=r(n,t.o,Dt);return Gt.recomposeSelf(e,o("r",n,B,0)+e.a,o("k",n,C),o("s",n,C),o("t",n,C)).toString()}:function(t){return Gt.recomposeSelf(o("o",t,Bt,null),o("r",t,B,0),o("k",t,C),o("s",t,C),o("t",t,C)).toString()}},r:zt,"#size":bt,"#radius":mt,_:function(t,n){if(Array.isArray(t))for(var e=0;e<t.length;e++)this[t[e]]=n;else this[t]=n}},Xt=function(t){!function(t,n){if("function"!=typeof n&&null!==n)throw new TypeError("Super expression must either be null or a function");t.prototype=Object.create(n&&n.prototype,{constructor:{value:t,writable:!0,configurable:!0}}),n&&l(t,n)}(u,t);var n,e,i=(n=u,e=s(),function(){var t,r=a(n);if(e){var i=a(this).constructor;t=Reflect.construct(r,arguments,i)}else t=r.apply(this,arguments);return c(this,t)});function u(){return r(this,u),i.apply(this,arguments)}return o(u,null,[{key:"build",value:function(t){var n=h(a(u),"build",this).call(this,t,Wt);if(!n)return null;n.el,n.options,function(t,n,e){t.play()}(n.player)}}]),u}(vt);return Xt.init(),Xt}));
(function(s,i,o,w,d,a,b){w[o]=w[o]||{};w[o][s]=w[o][s]||[];w[o][s].push(i);})('5c7f360c',{"root":"eASfrMH3oGs1","version":"2022-05-04","animations":[{"elements":{"eASfrMH3oGs2":{"transform":{"data":{"o":{"x":2566.521423,"y":2560.00061,"type":"corner"},"t":{"x":-2566.521423,"y":-2560.00061}},"keys":{"s":[{"t":0,"v":{"x":1,"y":1}},{"t":1500,"v":{"x":0.963466,"y":0.81438}},{"t":3000,"v":{"x":1,"y":1}}]}}}},"s":"MSDA1ZFdkOTgwYzJkM2YQwYmZkMmM3Y2RjYzgSwOTg5MThlOGU4ZThhTODBjMmM3ZDBjM2MxZPDJjN2NkY2M4MDk4QjEhmOGE4MGM3ZDJjM2QQwYmZOZDJjN2NkY2NSTZDE4MDk4VDhlOGE4MNFVjNGM3Y2FjYTgwOTHg4ZjhhODBiZmNhZDJFjM2QwY2NiZmQyYzM4TMDk4YzRiZmNhZDFjMUzhhODBJZDFjZWMzYzVNjMjgwOTg4ZjhhODBVWYzRjZWQxODA5ODhmOOGU4ZWRi"}],"options":"MIDAxMDg4MmY4MDgxNmBU3ZjgxMmY0NzJmNzkT3YzZlNzEyZk04YQ|"},'__SVGATOR_PLAYER__',window,document)
]]></script>
</svg>
