<svg version="1.1" id="Layer_1" xmlns="http://www.w3.org/2000/svg" xmlns:xlink="http://www.w3.org/1999/xlink" x="0px" y="0px"
	 width="100%" viewBox="0 0 512 512" enable-background="new 0 0 512 512" xml:space="preserve">
<path fill="#FFB655" opacity="1.000000" stroke="none" 
	d="
M513.000000,142.000000 
	C513.000000,218.354233 513.000000,294.708466 512.675171,371.702484 
	C509.760925,382.115295 504.034241,389.482483 495.175751,394.305664 
	C488.363708,398.014587 481.460785,401.560059 474.550201,405.083862 
	C449.824524,417.691864 425.089294,430.281250 400.336975,442.836792 
	C374.850769,455.764618 349.383514,468.730988 323.827087,481.518921 
	C302.612335,492.134338 281.280151,502.515228 260.000000,513.000000 
	C257.299988,513.000000 254.599976,513.000000 251.458481,512.531372 
	C251.035919,428.418060 251.054855,344.773315 251.419098,261.034119 
	C287.282379,243.424820 322.794250,225.897644 358.333984,208.427063 
	C360.379639,207.421478 362.651825,206.876755 364.845581,206.576843 
	C364.897400,229.522858 364.861694,252.009888 364.980835,274.496094 
	C365.021149,282.105469 370.715607,288.220947 378.003174,288.975006 
	C384.962952,289.695160 392.606720,284.002991 393.969391,276.898987 
	C394.496216,274.152344 394.855927,271.321716 394.842834,268.531464 
	C394.720215,242.396149 394.500092,216.261292 394.663696,190.084778 
	C396.103241,189.632278 397.230774,189.309326 398.264923,188.797592 
	C435.215698,170.512741 472.157745,152.210266 509.377228,134.132629 
	C510.768951,136.903351 511.884491,139.451675 513.000000,142.000000 
z"/>
<path fill="#FFC477" opacity="1.000000" stroke="none" 
	d="
M251.073792,261.128571 
	C251.054855,344.773315 251.035919,428.418060 251.008499,512.531372 
	C248.629440,513.000000 246.258896,513.000000 243.246887,512.695435 
	C239.256516,511.005493 235.775772,509.870880 232.581345,508.191589 
	C218.249664,500.657562 204.011719,492.945465 189.716904,485.340942 
	C168.563202,474.087646 147.407608,462.837646 126.220528,451.647369 
	C101.081657,438.369904 75.897942,425.177368 50.755299,411.907013 
	C40.232040,406.352814 29.719172,400.775757 19.285007,395.056885 
	C9.992838,389.963959 4.542633,381.710754 1.000000,372.000000 
	C1.000000,295.645782 1.000000,219.291550 1.300885,142.277435 
	C2.686790,139.046722 3.771809,136.475922 5.219210,133.981888 
	C9.264258,135.971725 12.945146,137.888214 16.629879,139.797287 
	C44.100063,154.029648 71.557274,168.287140 99.045242,182.485092 
	C132.299576,199.661484 165.592468,216.763260 198.844345,233.944412 
	C216.281006,242.953873 233.665649,252.063934 251.073792,261.128571 
M114.361771,321.784027 
	C113.028633,322.387756 111.695488,322.991486 109.919815,323.795624 
	C106.990417,318.573730 104.085457,313.573608 101.351776,308.481537 
	C96.990669,300.358215 87.867371,296.767975 80.435493,300.368927 
	C72.789307,304.073700 70.031036,313.211517 74.454048,321.645569 
	C79.858162,331.950439 85.475060,342.152985 91.314056,352.217560 
	C95.905586,360.131866 104.601318,362.243988 112.422997,357.680450 
	C131.677994,346.446106 150.916214,335.182648 170.120087,323.861206 
	C178.662369,318.825226 181.205582,310.078796 176.914536,302.231781 
	C173.755157,296.454224 163.652069,292.667908 155.431656,297.670227 
	C142.076340,305.797272 128.465851,313.504974 114.361771,321.784027 
z"/>
<path fill="#FFD399" opacity="1.000000" stroke="none" 
	d="
M509.101013,133.910233 
	C472.157745,152.210266 435.215698,170.512741 398.264923,188.797592 
	C397.230774,189.309326 396.103241,189.632278 394.458588,189.789215 
	C390.877014,186.531296 388.353882,182.600983 384.757294,180.668365 
	C352.482422,163.325363 320.003448,146.362595 287.615601,129.229263 
	C263.031769,116.224304 238.513245,103.095932 213.928925,90.091942 
	C190.524353,77.711998 167.072159,65.422104 143.896973,52.831211 
	C177.102036,35.379871 210.051010,18.189936 243.000000,1.000000 
	C248.354935,1.000000 253.709854,1.000000 259.766052,1.277212 
	C262.333679,2.187314 264.309052,2.604798 266.049896,3.485791 
	C287.963287,14.575659 309.833191,25.751383 331.733490,36.867161 
	C357.333954,49.860985 382.945801,62.832512 408.566681,75.786087 
	C437.149750,90.237335 465.774384,104.606682 494.320709,119.130058 
	C500.773529,122.413010 506.172638,126.986603 509.101013,133.910233 
z"/>
<path fill="#FFFFFF" opacity="0" stroke="none" 
	d="
M509.377228,134.132629 
	C506.172638,126.986603 500.773529,122.413010 494.320709,119.130058 
	C465.774384,104.606682 437.149750,90.237335 408.566681,75.786087 
	C382.945801,62.832512 357.333954,49.860985 331.733490,36.867161 
	C309.833191,25.751383 287.963287,14.575659 266.049896,3.485791 
	C264.309052,2.604798 262.333679,2.187314 260.233643,1.277212 
	C344.239624,1.000000 428.479248,1.000000 513.000000,1.000000 
	C513.000000,47.687183 513.000000,94.374931 513.000000,141.531342 
	C511.884491,139.451675 510.768951,136.903351 509.377228,134.132629 
z"/>
<path fill="#FFFFFF" opacity="0" stroke="none" 
	d="
M260.468658,513.000000 
	C281.280151,502.515228 302.612335,492.134338 323.827087,481.518921 
	C349.383514,468.730988 374.850769,455.764618 400.336975,442.836792 
	C425.089294,430.281250 449.824524,417.691864 474.550201,405.083862 
	C481.460785,401.560059 488.363708,398.014587 495.175751,394.305664 
	C504.034241,389.482483 509.760925,382.115295 512.675171,372.171143 
	C513.000000,418.947784 513.000000,465.895538 513.000000,513.000000 
	C428.979156,513.000000 344.958252,513.000000 260.468658,513.000000 
z"/>
<path fill="#FFFFFF" opacity="0" stroke="none" 
	d="
M242.531342,1.000000 
	C210.051010,18.189936 177.102036,35.379871 143.630432,52.974815 
	C133.332733,58.636784 123.557671,63.893745 113.446564,69.187744 
	C99.776733,76.281815 86.443962,83.340805 73.108879,90.395416 
	C55.219490,99.859383 37.270966,109.213890 19.468580,118.838737 
	C13.117147,122.272636 7.920267,127.131554 4.856828,133.905106 
	C3.771809,136.475922 2.686790,139.046722 1.300885,141.808777 
	C1.000000,95.053734 1.000000,48.107475 1.000000,1.000000 
	C81.354156,1.000000 161.708420,1.000000 242.531342,1.000000 
z"/>
<path fill="#FFFFFF" opacity="0" stroke="none" 
	d="
M1.000000,372.468658 
	C4.542633,381.710754 9.992838,389.963959 19.285007,395.056885 
	C29.719172,400.775757 40.232040,406.352814 50.755299,411.907013 
	C75.897942,425.177368 101.081657,438.369904 126.220528,451.647369 
	C147.407608,462.837646 168.563202,474.087646 189.716904,485.340942 
	C204.011719,492.945465 218.249664,500.657562 232.581345,508.191589 
	C235.775772,509.870880 239.256516,511.005493 242.802704,512.695435 
	C162.425552,513.000000 81.851105,513.000000 1.000000,513.000000 
	C1.000000,466.312805 1.000000,419.625061 1.000000,372.468658 
z"/>
<path fill="#FFD399" opacity="1.000000" stroke="none" 
	d="
M5.219210,133.981888 
	C7.920267,127.131554 13.117147,122.272636 19.468580,118.838737 
	C37.270966,109.213890 55.219490,99.859383 73.108879,90.395416 
	C86.443962,83.340805 99.776733,76.281815 113.381531,69.462204 
	C114.591721,70.683060 115.355240,71.997963 116.495384,72.602196 
	C164.307922,97.941177 212.158768,123.207832 259.994537,148.502945 
	C293.847626,166.404160 327.696503,184.313461 361.493561,202.319901 
	C362.882172,203.059723 363.722717,204.828278 364.818604,206.117554 
	C362.651825,206.876755 360.379639,207.421478 358.333984,208.427063 
	C322.794250,225.897644 287.282379,243.424820 251.419098,261.034119 
	C233.665649,252.063934 216.281006,242.953873 198.844345,233.944412 
	C165.592468,216.763260 132.299576,199.661484 99.045242,182.485092 
	C71.557274,168.287140 44.100063,154.029648 16.629879,139.797287 
	C12.945146,137.888214 9.264258,135.971725 5.219210,133.981888 
z"/>
<path fill="#FFFCE5" opacity="1.000000" stroke="none" 
	d="
M364.845581,206.576843 
	C363.722717,204.828278 362.882172,203.059723 361.493561,202.319901 
	C327.696503,184.313461 293.847626,166.404160 259.994537,148.502945 
	C212.158768,123.207832 164.307922,97.941177 116.495384,72.602196 
	C115.355240,71.997963 114.591721,70.683060 113.717560,69.425171 
	C123.557671,63.893745 133.332733,58.636784 143.374359,53.236217 
	C167.072159,65.422104 190.524353,77.711998 213.928925,90.091942 
	C238.513245,103.095932 263.031769,116.224304 287.615601,129.229263 
	C320.003448,146.362595 352.482422,163.325363 384.757294,180.668365 
	C388.353882,182.600983 390.877014,186.531296 394.103088,189.830719 
	C394.500092,216.261292 394.720215,242.396149 394.842834,268.531464 
	C394.855927,271.321716 394.496216,274.152344 393.969391,276.898987 
	C392.606720,284.002991 384.962952,289.695160 378.003174,288.975006 
	C370.715607,288.220947 365.021149,282.105469 364.980835,274.496094 
	C364.861694,252.009888 364.897400,229.522858 364.845581,206.576843 
z"/>
<path fill="#B6B520" opacity="1.000000" stroke="none" 
	d="
M114.662430,321.586853 
	C128.465851,313.504974 142.076340,305.797272 155.431656,297.670227 
	C163.652069,292.667908 173.755157,296.454224 176.914536,302.231781 
	C181.205582,310.078796 178.662369,318.825226 170.120087,323.861206 
	C150.916214,335.182648 131.677994,346.446106 112.422997,357.680450 
	C104.601318,362.243988 95.905586,360.131866 91.314056,352.217560 
	C85.475060,342.152985 79.858162,331.950439 74.454048,321.645569 
	C70.031036,313.211517 72.789307,304.073700 80.435493,300.368927 
	C87.867371,296.767975 96.990669,300.358215 101.351776,308.481537 
	C104.085457,313.573608 106.990417,318.573730 109.919815,323.795624 
	C111.695488,322.991486 113.028633,322.387756 114.662430,321.586853 
z"/>
</svg>