<svg id="em9DXa2Uisq1" xmlns="http://www.w3.org/2000/svg" xmlns:xlink="http://www.w3.org/1999/xlink" viewBox="0 0 53 21" shape-rendering="geometricPrecision" text-rendering="geometricPrecision"><path d="" fill="none" stroke="#3f5787" stroke-width="0.6"/><ellipse rx="0.5" ry="0.5" transform="translate(3.159992 4.780666)" opacity="0.37" fill="#021b4c" stroke-width="0"/><ellipse rx="0.5" ry="0.5" transform="translate(27.159992 4.780666)" opacity="0.37" fill="#fafbff" stroke-width="0"/><ellipse rx="0.5" ry="0.5" transform="translate(27.159992 6.780666)" opacity="0.37" fill="#fafbff" stroke-width="0"/><ellipse rx="0.5" ry="0.5" transform="translate(27.159992 8.780666)" opacity="0.37" fill="#fafbff" stroke-width="0"/><ellipse rx="0.5" ry="0.5" transform="translate(27.159992 10.780666)" opacity="0.37" fill="#fafbff" stroke-width="0"/><ellipse rx="0.5" ry="0.5" transform="translate(27.159992 12.780666)" opacity="0.37" fill="#fafbff" stroke-width="0"/><ellipse rx="0.5" ry="0.5" transform="translate(27.159992 14.780666)" opacity="0.37" fill="#fafbff" stroke-width="0"/><ellipse rx="0.5" ry="0.5" transform="translate(27.159992 16.780666)" opacity="0.37" fill="#fafbff" stroke-width="0"/><ellipse rx="0.5" ry="0.5" transform="translate(27.159992 18.780666)" opacity="0.37" fill="#fafbff" stroke-width="0"/><ellipse rx="0.5" ry="0.5" transform="translate(27.159992 16.780666)" opacity="0.37" fill="#fafbff" stroke-width="0"/><ellipse rx="0.5" ry="0.5" transform="translate(27.159992 2.780666)" opacity="0.37" fill="#fafbff" stroke-width="0"/><ellipse rx="0.5" ry="0.5" transform="translate(3.159992 6.780666)" opacity="0.37" fill="#021b4c" stroke-width="0"/><ellipse rx="0.5" ry="0.5" transform="translate(3.159992 8.780666)" opacity="0.37" fill="#021b4c" stroke-width="0"/><ellipse rx="0.5" ry="0.5" transform="translate(3.159992 10.780666)" opacity="0.37" fill="#021b4c" stroke-width="0"/><ellipse rx="0.5" ry="0.5" transform="translate(3.159992 12.780666)" opacity="0.37" fill="#021b4c" stroke-width="0"/><ellipse rx="0.5" ry="0.5" transform="translate(3.159992 14.780666)" opacity="0.37" fill="#021b4c" stroke-width="0"/><ellipse rx="0.5" ry="0.5" transform="translate(3.159992 16.780666)" opacity="0.37" fill="#021b4c" stroke-width="0"/><ellipse rx="0.5" ry="0.5" transform="translate(3.159992 18.780666)" opacity="0.37" fill="#021b4c" stroke-width="0"/><ellipse rx="0.5" ry="0.5" transform="translate(3.159992 16.780666)" opacity="0.37" fill="#021b4c" stroke-width="0"/><ellipse rx="0.5" ry="0.5" transform="translate(5.159992 16.780666)" opacity="0.37" fill="#022f87" stroke-width="0"/><ellipse rx="0.5" ry="0.5" transform="translate(7.159992 16.780666)" opacity="0.37" fill="#023fb6" stroke-width="0"/><ellipse rx="0.5" ry="0.5" transform="translate(9.159992 16.780666)" opacity="0.37" fill="#004cdf" stroke-width="0"/><ellipse rx="0.5" ry="0.5" transform="translate(15.159992 16.780666)" opacity="0.37" fill="#6499ff" stroke-width="0"/><ellipse rx="0.5" ry="0.5" transform="translate(21.159992 16.780666)" opacity="0.37" fill="#c5d9ff" stroke-width="0"/><ellipse rx="0.5" ry="0.5" transform="translate(23.159992 16.780666)" opacity="0.37" fill="#e2ecff" stroke-width="0"/><ellipse rx="0.5" ry="0.5" transform="translate(25.159992 16.780666)" opacity="0.37" fill="#f1f6ff" stroke-width="0"/><ellipse rx="0.5" ry="0.5" transform="translate(17.159992 16.780666)" opacity="0.37" fill="#84aeff" stroke-width="0"/><ellipse rx="0.5" ry="0.5" transform="translate(19.159992 16.780666)" opacity="0.37" fill="#a5c4ff" stroke-width="0"/><ellipse rx="0.5" ry="0.5" transform="translate(11.159992 16.780666)" opacity="0.37" fill="#1b68fd" stroke-width="0"/><ellipse rx="0.5" ry="0.5" transform="translate(13.159992 16.780666)" opacity="0.37" fill="#4383ff" stroke-width="0"/><ellipse rx="0.5" ry="0.5" transform="translate(5.159992 18.780666)" opacity="0.37" fill="#022f87" stroke-width="0"/><ellipse rx="0.5" ry="0.5" transform="translate(7.159992 18.780666)" opacity="0.37" fill="#023fb6" stroke-width="0"/><ellipse rx="0.5" ry="0.5" transform="translate(9.159992 18.780666)" opacity="0.37" fill="#004cdf" stroke-width="0"/><ellipse rx="0.5" ry="0.5" transform="translate(15.159992 18.780666)" opacity="0.37" fill="#6499ff" stroke-width="0"/><ellipse rx="0.5" ry="0.5" transform="translate(21.159992 18.780666)" opacity="0.37" fill="#c5d9ff" stroke-width="0"/><ellipse rx="0.5" ry="0.5" transform="translate(23.159992 18.780666)" opacity="0.37" fill="#e2ecff" stroke-width="0"/><ellipse rx="0.5" ry="0.5" transform="translate(25.159992 18.780666)" opacity="0.37" fill="#f1f6ff" stroke-width="0"/><ellipse rx="0.5" ry="0.5" transform="translate(17.159992 18.780666)" opacity="0.37" fill="#84aeff" stroke-width="0"/><ellipse rx="0.5" ry="0.5" transform="translate(19.159992 18.780666)" opacity="0.37" fill="#a5c4ff" stroke-width="0"/><ellipse rx="0.5" ry="0.5" transform="translate(11.159992 18.780666)" opacity="0.37" fill="#1b68fd" stroke-width="0"/><ellipse rx="0.5" ry="0.5" transform="translate(13.159992 18.780666)" opacity="0.37" fill="#4383ff" stroke-width="0"/><ellipse rx="0.5" ry="0.5" transform="translate(5.159992 16.780666)" opacity="0.37" fill="#022f87" stroke-width="0"/><ellipse rx="0.5" ry="0.5" transform="translate(7.159992 16.780666)" opacity="0.37" fill="#023fb6" stroke-width="0"/><ellipse rx="0.5" ry="0.5" transform="translate(9.159992 16.780666)" opacity="0.37" fill="#004cdf" stroke-width="0"/><ellipse rx="0.5" ry="0.5" transform="translate(15.159992 16.780666)" opacity="0.37" fill="#6499ff" stroke-width="0"/><ellipse rx="0.5" ry="0.5" transform="translate(21.159992 16.780666)" opacity="0.37" fill="#c5d9ff" stroke-width="0"/><ellipse rx="0.5" ry="0.5" transform="translate(23.159992 16.780666)" opacity="0.37" fill="#e2ecff" stroke-width="0"/><ellipse rx="0.5" ry="0.5" transform="translate(25.159992 16.780666)" opacity="0.37" fill="#f1f6ff" stroke-width="0"/><ellipse rx="0.5" ry="0.5" transform="translate(17.159992 16.780666)" opacity="0.37" fill="#84aeff" stroke-width="0"/><ellipse rx="0.5" ry="0.5" transform="translate(19.159992 16.780666)" opacity="0.37" fill="#a5c4ff" stroke-width="0"/><ellipse rx="0.5" ry="0.5" transform="translate(11.159992 16.780666)" opacity="0.37" fill="#1b68fd" stroke-width="0"/><ellipse rx="0.5" ry="0.5" transform="translate(13.159992 16.780666)" opacity="0.37" fill="#4383ff" stroke-width="0"/><ellipse rx="0.5" ry="0.5" transform="translate(5.159992 14.780666)" opacity="0.37" fill="#022f87" stroke-width="0"/><ellipse rx="0.5" ry="0.5" transform="translate(7.159992 14.780666)" opacity="0.37" fill="#023fb6" stroke-width="0"/><ellipse rx="0.5" ry="0.5" transform="translate(9.159992 14.780666)" opacity="0.37" fill="#004cdf" stroke-width="0"/><ellipse rx="0.5" ry="0.5" transform="translate(15.159992 14.780666)" opacity="0.37" fill="#6499ff" stroke-width="0"/><ellipse rx="0.5" ry="0.5" transform="translate(21.159992 14.780666)" opacity="0.37" fill="#c5d9ff" stroke-width="0"/><ellipse rx="0.5" ry="0.5" transform="translate(23.159992 14.780666)" opacity="0.37" fill="#e2ecff" stroke-width="0"/><ellipse rx="0.5" ry="0.5" transform="translate(25.159992 14.780666)" opacity="0.37" fill="#f1f6ff" stroke-width="0"/><ellipse rx="0.5" ry="0.5" transform="translate(17.159992 14.780666)" opacity="0.37" fill="#84aeff" stroke-width="0"/><ellipse rx="0.5" ry="0.5" transform="translate(19.159992 14.780666)" opacity="0.37" fill="#a5c4ff" stroke-width="0"/><ellipse rx="0.5" ry="0.5" transform="translate(11.159992 14.780666)" opacity="0.37" fill="#1b68fd" stroke-width="0"/><ellipse rx="0.5" ry="0.5" transform="translate(13.159992 14.780666)" opacity="0.37" fill="#4383ff" stroke-width="0"/><ellipse rx="0.5" ry="0.5" transform="translate(5.159992 12.780666)" opacity="0.37" fill="#022f87" stroke-width="0"/><ellipse rx="0.5" ry="0.5" transform="translate(7.159992 12.780666)" opacity="0.37" fill="#023fb6" stroke-width="0"/><ellipse rx="0.5" ry="0.5" transform="translate(9.159992 12.780666)" opacity="0.37" fill="#004cdf" stroke-width="0"/><ellipse rx="0.5" ry="0.5" transform="translate(15.159992 12.780666)" opacity="0.37" fill="#6499ff" stroke-width="0"/><ellipse rx="0.5" ry="0.5" transform="translate(21.159992 12.780666)" opacity="0.37" fill="#c5d9ff" stroke-width="0"/><ellipse rx="0.5" ry="0.5" transform="translate(23.159992 12.780666)" opacity="0.37" fill="#e2ecff" stroke-width="0"/><ellipse rx="0.5" ry="0.5" transform="translate(25.159992 12.780666)" opacity="0.37" fill="#f1f6ff" stroke-width="0"/><ellipse rx="0.5" ry="0.5" transform="translate(17.159992 12.780666)" opacity="0.37" fill="#84aeff" stroke-width="0"/><ellipse rx="0.5" ry="0.5" transform="translate(19.159992 12.780666)" opacity="0.37" fill="#a5c4ff" stroke-width="0"/><ellipse rx="0.5" ry="0.5" transform="translate(11.159992 12.780666)" opacity="0.37" fill="#1b68fd" stroke-width="0"/><ellipse rx="0.5" ry="0.5" transform="translate(13.159992 12.780666)" opacity="0.37" fill="#4383ff" stroke-width="0"/><ellipse rx="0.5" ry="0.5" transform="translate(5.159992 10.780666)" opacity="0.37" fill="#022f87" stroke-width="0"/><ellipse rx="0.5" ry="0.5" transform="translate(7.159992 10.780666)" opacity="0.37" fill="#023fb6" stroke-width="0"/><ellipse rx="0.5" ry="0.5" transform="translate(9.159992 10.780666)" opacity="0.37" fill="#004cdf" stroke-width="0"/><ellipse rx="0.5" ry="0.5" transform="translate(15.159992 10.780666)" opacity="0.37" fill="#6499ff" stroke-width="0"/><ellipse rx="0.5" ry="0.5" transform="translate(21.159992 10.780666)" opacity="0.37" fill="#c5d9ff" stroke-width="0"/><ellipse rx="0.5" ry="0.5" transform="translate(23.159992 10.780666)" opacity="0.37" fill="#e2ecff" stroke-width="0"/><ellipse rx="0.5" ry="0.5" transform="translate(25.159992 10.780666)" opacity="0.37" fill="#f1f6ff" stroke-width="0"/><ellipse rx="0.5" ry="0.5" transform="translate(17.159992 10.780666)" opacity="0.37" fill="#84aeff" stroke-width="0"/><ellipse rx="0.5" ry="0.5" transform="translate(19.159992 10.780666)" opacity="0.37" fill="#a5c4ff" stroke-width="0"/><ellipse rx="0.5" ry="0.5" transform="translate(11.159992 10.780666)" opacity="0.37" fill="#1b68fd" stroke-width="0"/><ellipse rx="0.5" ry="0.5" transform="translate(13.159992 10.780666)" opacity="0.37" fill="#4383ff" stroke-width="0"/><ellipse rx="0.5" ry="0.5" transform="translate(5.159992 8.780666)" opacity="0.37" fill="#022f87" stroke-width="0"/><ellipse rx="0.5" ry="0.5" transform="translate(7.159992 8.780666)" opacity="0.37" fill="#023fb6" stroke-width="0"/><ellipse rx="0.5" ry="0.5" transform="translate(9.159992 8.780666)" opacity="0.37" fill="#004cdf" stroke-width="0"/><ellipse rx="0.5" ry="0.5" transform="translate(15.159992 8.780666)" opacity="0.37" fill="#6499ff" stroke-width="0"/><ellipse rx="0.5" ry="0.5" transform="translate(21.159992 8.780666)" opacity="0.37" fill="#c5d9ff" stroke-width="0"/><ellipse rx="0.5" ry="0.5" transform="translate(23.159992 8.780666)" opacity="0.37" fill="#e2ecff" stroke-width="0"/><ellipse rx="0.5" ry="0.5" transform="translate(25.159992 8.780666)" opacity="0.37" fill="#f1f6ff" stroke-width="0"/><ellipse rx="0.5" ry="0.5" transform="translate(17.159992 8.780666)" opacity="0.37" fill="#84aeff" stroke-width="0"/><ellipse rx="0.5" ry="0.5" transform="translate(19.159992 8.780666)" opacity="0.37" fill="#a5c4ff" stroke-width="0"/><ellipse rx="0.5" ry="0.5" transform="translate(11.159992 8.780666)" opacity="0.37" fill="#1b68fd" stroke-width="0"/><ellipse rx="0.5" ry="0.5" transform="translate(13.159992 8.780666)" opacity="0.37" fill="#4383ff" stroke-width="0"/><ellipse rx="0.5" ry="0.5" transform="translate(5.159992 6.780666)" opacity="0.37" fill="#022f87" stroke-width="0"/><ellipse rx="0.5" ry="0.5" transform="translate(7.159992 6.780666)" opacity="0.37" fill="#023fb6" stroke-width="0"/><ellipse rx="0.5" ry="0.5" transform="translate(9.159992 6.780666)" opacity="0.37" fill="#004cdf" stroke-width="0"/><ellipse rx="0.5" ry="0.5" transform="translate(15.159992 6.780666)" opacity="0.37" fill="#6499ff" stroke-width="0"/><ellipse rx="0.5" ry="0.5" transform="translate(21.159992 6.780666)" opacity="0.37" fill="#c5d9ff" stroke-width="0"/><ellipse rx="0.5" ry="0.5" transform="translate(23.159992 6.780666)" opacity="0.37" fill="#e2ecff" stroke-width="0"/><ellipse rx="0.5" ry="0.5" transform="translate(25.159992 6.780666)" opacity="0.37" fill="#f1f6ff" stroke-width="0"/><ellipse rx="0.5" ry="0.5" transform="translate(17.159992 6.780666)" opacity="0.37" fill="#84aeff" stroke-width="0"/><ellipse rx="0.5" ry="0.5" transform="translate(19.159992 6.780666)" opacity="0.37" fill="#a5c4ff" stroke-width="0"/><ellipse rx="0.5" ry="0.5" transform="translate(11.159992 6.780666)" opacity="0.37" fill="#1b68fd" stroke-width="0"/><ellipse rx="0.5" ry="0.5" transform="translate(13.159992 6.780666)" opacity="0.37" fill="#4383ff" stroke-width="0"/><ellipse rx="0.5" ry="0.5" transform="translate(5.159992 4.780666)" opacity="0.37" fill="#022f87" stroke-width="0"/><ellipse rx="0.5" ry="0.5" transform="translate(7.159992 4.780666)" opacity="0.37" fill="#023fb6" stroke-width="0"/><ellipse rx="0.5" ry="0.5" transform="translate(9.159992 4.780666)" opacity="0.37" fill="#004cdf" stroke-width="0"/><ellipse rx="0.5" ry="0.5" transform="translate(15.159992 4.780666)" opacity="0.37" fill="#6499ff" stroke-width="0"/><ellipse rx="0.5" ry="0.5" transform="translate(21.159992 4.780666)" opacity="0.37" fill="#c5d9ff" stroke-width="0"/><ellipse rx="0.5" ry="0.5" transform="translate(23.159992 4.780666)" opacity="0.37" fill="#e2ecff" stroke-width="0"/><ellipse rx="0.5" ry="0.5" transform="translate(25.159992 4.780666)" opacity="0.37" fill="#f1f6ff" stroke-width="0"/><ellipse rx="0.5" ry="0.5" transform="translate(17.159992 4.780666)" opacity="0.37" fill="#84aeff" stroke-width="0"/><ellipse rx="0.5" ry="0.5" transform="translate(19.159992 4.780666)" opacity="0.37" fill="#a5c4ff" stroke-width="0"/><ellipse rx="0.5" ry="0.5" transform="translate(11.159992 4.780666)" opacity="0.37" fill="#1b68fd" stroke-width="0"/><ellipse rx="0.5" ry="0.5" transform="translate(13.159992 4.780666)" opacity="0.37" fill="#4383ff" stroke-width="0"/><ellipse rx="0.5" ry="0.5" transform="translate(3.159992 2.780666)" opacity="0.37" fill="#021b4c" stroke-width="0"/><ellipse rx="0.5" ry="0.5" transform="translate(5.159992 2.780666)" opacity="0.37" fill="#022f87" stroke-width="0"/><ellipse rx="0.5" ry="0.5" transform="translate(7.159992 2.780666)" opacity="0.37" fill="#023fb6" stroke-width="0"/><ellipse rx="0.5" ry="0.5" transform="translate(9.159992 2.780666)" opacity="0.37" fill="#004cdf" stroke-width="0"/><ellipse rx="0.5" ry="0.5" transform="translate(15.159992 2.780666)" opacity="0.37" fill="#6499ff" stroke-width="0"/><ellipse rx="0.5" ry="0.5" transform="translate(21.159992 2.780666)" opacity="0.37" fill="#c5d9ff" stroke-width="0"/><ellipse rx="0.5" ry="0.5" transform="translate(23.159992 2.780666)" opacity="0.37" fill="#e2ecff" stroke-width="0"/><ellipse rx="0.5" ry="0.5" transform="translate(25.159992 2.780666)" opacity="0.37" fill="#f1f6ff" stroke-width="0"/><ellipse rx="0.5" ry="0.5" transform="translate(17.159992 2.780666)" opacity="0.37" fill="#84aeff" stroke-width="0"/><ellipse rx="0.5" ry="0.5" transform="translate(19.159992 2.780666)" opacity="0.37" fill="#a5c4ff" stroke-width="0"/><ellipse rx="0.5" ry="0.5" transform="translate(11.159992 2.780666)" opacity="0.37" fill="#1b68fd" stroke-width="0"/><ellipse rx="0.5" ry="0.5" transform="translate(13.159992 2.780666)" opacity="0.37" fill="#4383ff" stroke-width="0"/></svg>
