<svg version="1.1" id="Layer_1" xmlns="http://www.w3.org/2000/svg" xmlns:xlink="http://www.w3.org/1999/xlink" x="0px" y="0px"
	 width="100%" viewBox="0 0 512 512" enable-background="new 0 0 512 512" xml:space="preserve">
<path fill="#000000" opacity="0" stroke="none" 
	d="
M229.000000,513.000000 
	C153.033707,513.000000 77.067421,513.000000 1.101135,513.000000 
	C1.067423,512.867126 1.004161,512.734253 1.004157,512.601379 
	C0.999980,342.177002 1.000000,171.752625 1.000000,1.000000 
	C81.687805,1.000000 162.376053,1.000000 243.846085,1.302443 
	C244.005600,2.061351 243.416504,2.573757 242.755814,2.965391 
	C237.700546,5.961948 232.223663,8.419328 227.657043,12.029871 
	C219.774933,18.261786 216.112915,27.200127 213.545197,36.893021 
	C206.882767,36.657089 200.286224,36.492882 197.992798,43.737755 
	C196.475067,48.532230 196.715393,53.883232 196.086670,59.448318 
	C195.996506,68.189789 195.927536,76.468552 195.999283,84.746086 
	C196.057343,91.441452 201.479889,99.374046 209.485352,98.081406 
	C212.548431,97.586807 215.762833,98.029366 218.952820,98.401268 
	C219.388733,99.598320 219.780106,100.438965 220.099487,101.719009 
	C220.073273,112.438896 220.119064,122.719391 220.089386,133.240448 
	C220.008209,133.649002 220.002487,133.817001 219.572861,133.989380 
	C217.691162,134.189285 216.204590,134.262863 214.779922,134.598877 
	C197.166885,138.752563 180.351044,144.843994 164.441772,153.680435 
	C151.577332,160.825684 139.573105,169.101730 128.709488,178.879379 
	C106.447220,198.916229 89.837395,223.064209 78.613754,250.830338 
	C69.922493,272.331604 65.751472,294.858307 65.122238,317.943359 
	C64.867569,327.286377 66.128654,336.691956 67.006416,346.040314 
	C68.988441,367.149353 75.206581,387.116882 84.564789,406.022705 
	C95.222824,427.554504 109.278107,446.565948 127.146072,462.887238 
	C140.868942,475.422211 155.904526,485.835144 172.447540,494.014679 
	C187.899094,501.654541 204.178314,507.109375 221.235977,510.105652 
	C223.910919,510.575531 226.416245,512.010986 229.000000,513.000000 
z"/>
<path fill="#000000" opacity="0" stroke="none" 
	d="
M270.000000,1.000001 
	C350.964081,1.000000 431.928131,1.000000 512.892212,1.000002 
	C512.928101,1.130676 512.995544,1.261348 512.995544,1.392021 
	C513.000000,171.816406 513.000000,342.240784 513.000000,513.000000 
	C437.312225,513.000000 361.623962,513.000000 285.327393,512.596924 
	C290.211914,510.930328 295.715759,509.712585 301.195557,508.394928 
	C320.714355,503.701416 339.181122,496.398834 356.337585,485.918762 
	C378.325500,472.487366 397.028595,455.480682 412.143860,434.562042 
	C420.805542,422.574738 428.246216,409.908386 433.945984,396.242920 
	C441.354126,378.481537 446.168091,359.992096 447.833801,340.871185 
	C448.758881,330.252472 448.523407,319.454315 447.851562,308.797516 
	C447.214813,298.697327 446.064270,288.510101 443.847717,278.651642 
	C437.472778,250.298248 425.078827,224.693161 406.978333,201.678375 
	C416.005493,192.485703 424.771454,183.481827 433.819336,174.770767 
	C439.260437,169.532272 442.078674,163.594940 440.913818,155.608124 
	C438.410522,137.891785 417.406342,131.840225 405.204071,143.398453 
	C395.461945,152.626373 386.269257,162.434311 376.532227,171.846786 
	C375.637085,171.129349 375.092499,170.485367 374.440460,169.979904 
	C358.450928,157.584122 340.999054,147.730499 321.876160,141.176575 
	C312.815460,138.071213 303.297821,136.299164 293.989441,133.462677 
	C293.942719,122.554100 293.893707,112.105873 293.928619,101.344849 
	C294.373596,100.035172 294.734619,99.038284 295.555695,98.022476 
	C299.501038,98.002548 302.986633,98.030640 306.471588,97.993538 
	C311.343567,97.941673 316.543396,94.333946 316.884430,89.536201 
	C317.606232,79.381363 317.562012,69.172073 317.896729,58.528820 
	C317.631378,53.707977 318.047058,49.118946 316.814911,45.025940 
	C314.304596,36.686562 307.085175,36.581627 299.995087,36.453468 
	C299.657410,35.001671 299.324188,33.939625 299.000214,32.874763 
	C295.097961,20.047863 288.094330,9.875546 274.881653,4.538986 
	C273.147003,3.133233 271.573486,2.066617 270.000000,1.000001 
z"/>
<path fill="#4A80AA" opacity="1.000000" stroke="none" 
	d="
M293.987183,133.923035 
	C303.297821,136.299164 312.815460,138.071213 321.876160,141.176575 
	C340.999054,147.730499 358.450928,157.584122 374.440460,169.979904 
	C375.092499,170.485367 375.637085,171.129349 376.673065,172.160263 
	C382.083313,177.053467 387.052277,181.495193 392.161804,186.241257 
	C397.146912,191.693893 401.991394,196.842209 406.835907,201.990524 
	C425.078827,224.693161 437.472778,250.298248 443.847717,278.651642 
	C446.064270,288.510101 447.214813,298.697327 447.851562,308.797516 
	C448.523407,319.454315 448.758881,330.252472 447.833801,340.871185 
	C446.168091,359.992096 441.354126,378.481537 433.945984,396.242920 
	C428.246216,409.908386 420.805542,422.574738 412.143860,434.562042 
	C397.028595,455.480682 378.325500,472.487366 356.337585,485.918762 
	C339.181122,496.398834 320.714355,503.701416 301.195557,508.394928 
	C295.715759,509.712585 290.211914,510.930328 284.859558,512.596924 
	C280.310760,513.000000 275.621490,513.000000 270.359863,512.629211 
	C269.115601,511.855438 268.472046,511.160889 267.767761,511.092529 
	C253.295456,509.688171 239.423996,505.830658 225.854187,500.804138 
	C201.543701,491.799042 179.967072,478.296051 161.132278,460.541595 
	C148.389267,448.529510 137.382660,434.985718 128.619156,419.802856 
	C124.585510,412.814514 121.524498,405.264801 118.320366,398.134705 
	C119.199364,399.099487 119.851143,399.857513 120.351059,400.705109 
	C129.908249,416.909119 141.850800,431.056000 156.402771,443.024506 
	C192.581284,472.780151 234.133255,484.209137 280.188293,477.750671 
	C321.570892,471.947388 355.573273,451.786316 381.117889,418.923065 
	C410.769928,380.775543 421.286438,337.187653 411.512115,289.734314 
	C402.876099,247.807327 380.284393,214.291458 344.590637,190.592438 
	C306.066162,165.013947 263.671021,157.491150 218.717804,168.760590 
	C177.161987,179.178299 145.085373,203.242218 122.236916,239.543701 
	C121.409058,240.858994 120.112091,241.879028 119.070770,242.673370 
	C120.278595,239.562943 121.270844,236.722610 122.648209,234.083267 
	C134.713699,210.962891 150.992432,191.283936 170.928787,174.486496 
	C192.533569,156.283356 217.131165,143.991302 244.314163,136.832077 
	C253.399048,134.439362 262.745941,133.041458 272.399109,131.133408 
	C279.879181,132.026352 286.933197,132.974686 293.987183,133.923035 
z"/>
<path fill="#407093" opacity="1.000000" stroke="none" 
	d="
M118.022453,397.969635 
	C121.524498,405.264801 124.585510,412.814514 128.619156,419.802856 
	C137.382660,434.985718 148.389267,448.529510 161.132278,460.541595 
	C179.967072,478.296051 201.543701,491.799042 225.854187,500.804138 
	C239.423996,505.830658 253.295456,509.688171 267.767761,511.092529 
	C268.472046,511.160889 269.115601,511.855438 269.893738,512.629211 
	C256.645782,513.000000 243.291550,513.000000 229.468658,513.000000 
	C226.416245,512.010986 223.910919,510.575531 221.235977,510.105652 
	C204.178314,507.109375 187.899094,501.654541 172.447540,494.014679 
	C155.904526,485.835144 140.868942,475.422211 127.146072,462.887238 
	C109.278107,446.565948 95.222824,427.554504 84.564789,406.022705 
	C75.206581,387.116882 68.988441,367.149353 67.006416,346.040314 
	C66.128654,336.691956 64.867569,327.286377 65.122238,317.943359 
	C65.751472,294.858307 69.922493,272.331604 78.613754,250.830338 
	C89.837395,223.064209 106.447220,198.916229 128.709488,178.879379 
	C139.573105,169.101730 151.577332,160.825684 164.441772,153.680435 
	C180.351044,144.843994 197.166885,138.752563 214.779922,134.598877 
	C216.204590,134.262863 217.691162,134.189285 219.814240,133.964661 
	C220.832764,133.897995 221.086273,133.719147 221.268646,133.398849 
	C221.297226,133.398712 221.352463,133.384018 221.762527,133.362640 
	C232.786697,132.221222 243.400787,131.101181 254.469452,130.060394 
	C260.607025,130.489380 266.290039,130.839096 271.973053,131.188812 
	C262.745941,133.041458 253.399048,134.439362 244.314163,136.832077 
	C217.131165,143.991302 192.533569,156.283356 170.928787,174.486496 
	C150.992432,191.283936 134.713699,210.962891 122.648209,234.083267 
	C121.270844,236.722610 120.278595,239.562943 119.058128,242.660004 
	C119.008469,243.009933 119.035133,243.008865 118.880135,243.113678 
	C118.835686,243.522949 118.946243,243.827377 119.028198,244.401733 
	C118.714912,245.112747 118.430229,245.553864 117.881424,246.171112 
	C117.413391,246.932953 117.209473,247.518692 117.008347,248.331604 
	C117.011139,248.558762 116.990517,249.012665 116.781479,249.136292 
	C116.314453,249.468872 116.122261,249.726837 115.845978,250.363495 
	C114.543831,253.630524 113.496033,256.613983 112.223190,259.498138 
	C99.451050,288.438629 95.488083,318.608154 101.960762,349.497101 
	C105.131531,364.628632 111.184212,379.156311 115.987968,394.256042 
	C116.373459,395.038544 116.703545,395.522247 117.012672,396.005341 
	C116.991722,396.004700 117.008591,395.966370 117.039101,396.264893 
	C117.391060,397.042480 117.712517,397.521545 118.018547,397.999817 
	C118.003120,397.998993 118.022453,397.969635 118.022453,397.969635 
z"/>
<path fill="#B6DCFF" opacity="1.000000" stroke="none" 
	d="
M269.531342,1.000001 
	C271.573486,2.066617 273.147003,3.133233 274.683716,4.816804 
	C264.987640,11.215143 257.427094,18.773561 253.710190,30.025368 
	C251.955978,32.503090 250.484848,34.781658 248.548309,37.064205 
	C243.735733,37.002064 239.388596,36.935940 235.032715,36.504028 
	C234.309692,31.647528 231.357712,29.280972 227.138580,29.500126 
	C222.953674,29.717503 220.119858,32.229256 219.532440,36.924603 
	C217.403290,36.928715 215.697250,36.868618 213.991196,36.808517 
	C216.112915,27.200127 219.774933,18.261786 227.657043,12.029871 
	C232.223663,8.419328 237.700546,5.961948 242.755814,2.965391 
	C243.416504,2.573757 244.005600,2.061351 244.313934,1.302443 
	C252.354233,1.000000 260.708466,1.000000 269.531342,1.000001 
z"/>
<path fill="#FFD065" opacity="1.000000" stroke="none" 
	d="
M219.955551,36.860394 
	C220.119858,32.229256 222.953674,29.717503 227.138580,29.500126 
	C231.357712,29.280972 234.309692,31.647528 235.023376,36.982361 
	C235.030258,47.897930 235.037766,57.969376 235.034576,68.505280 
	C235.043396,78.690918 235.062897,88.412094 235.062408,98.500229 
	C232.626984,106.425949 227.932419,107.739716 221.046738,102.545380 
	C220.732147,101.970848 220.451813,101.625229 220.171478,101.279610 
	C219.780106,100.438965 219.388733,99.598320 219.240402,98.093864 
	C219.639999,87.634010 219.796555,77.837959 219.968521,67.569214 
	C219.974472,57.017807 219.965012,46.939098 219.955551,36.860394 
z"/>
<path fill="#ECB145" opacity="1.000000" stroke="none" 
	d="
M219.953094,68.041916 
	C219.796555,77.837959 219.639999,87.634010 219.195862,97.737457 
	C215.762833,98.029366 212.548431,97.586807 209.485352,98.081406 
	C201.479889,99.374046 196.057343,91.441452 195.999283,84.746086 
	C195.927536,76.468552 195.996506,68.189789 196.406555,59.538773 
	C200.572006,65.903603 206.004959,69.313408 213.967804,68.050522 
	C215.914398,67.741806 217.955460,68.028809 219.953094,68.041916 
z"/>
<path fill="#FFC250" opacity="1.000000" stroke="none" 
	d="
M219.968521,67.569214 
	C217.955460,68.028809 215.914398,67.741806 213.967804,68.050522 
	C206.004959,69.313408 200.572006,65.903603 196.488541,59.075535 
	C196.715393,53.883232 196.475067,48.532230 197.992798,43.737755 
	C200.286224,36.492882 206.882767,36.657089 213.545197,36.893021 
	C215.697250,36.868618 217.403290,36.928715 219.532440,36.924603 
	C219.965012,46.939098 219.974472,57.017807 219.968521,67.569214 
z"/>
<path fill="#C9E5FD" opacity="1.000000" stroke="none" 
	d="
M220.099487,101.719009 
	C220.451813,101.625229 220.732147,101.970848 221.023773,103.031799 
	C221.140839,113.626091 221.246643,123.505058 221.352463,133.384018 
	C221.352463,133.384018 221.297226,133.398712 221.009430,133.269913 
	C220.536041,133.094040 220.350433,133.046951 220.164841,132.999878 
	C220.119064,122.719391 220.073273,112.438896 220.099487,101.719009 
z"/>
<path fill="#B5DCFE" opacity="1.000000" stroke="none" 
	d="
M220.089386,133.240448 
	C220.350433,133.046951 220.536041,133.094040 220.980850,133.270050 
	C221.086273,133.719147 220.832764,133.897995 220.238129,133.960266 
	C220.002487,133.817001 220.008209,133.649002 220.089386,133.240448 
z"/>
<path fill="#FFC251" opacity="1.000000" stroke="none" 
	d="
M392.021240,185.936905 
	C387.052277,181.495193 382.083313,177.053467 376.973511,172.298264 
	C386.269257,162.434311 395.461945,152.626373 405.204071,143.398453 
	C417.406342,131.840225 438.410522,137.891785 440.514160,155.533997 
	C432.652863,154.037964 425.225494,153.923782 419.363922,159.263763 
	C409.957031,167.833542 401.106720,177.014313 392.021240,185.936905 
z"/>
<path fill="#DBEDFE" opacity="1.000000" stroke="none" 
	d="
M272.399109,131.133408 
	C266.290039,130.839096 260.607025,130.489380 254.465942,129.593079 
	C254.091446,121.155678 254.174973,113.264862 254.630981,105.468437 
	C260.988983,105.756767 262.914886,104.299362 265.466248,97.997734 
	C270.265869,98.043037 274.601227,98.087097 278.951416,98.498444 
	C281.523468,106.982437 286.955261,108.001694 293.844696,101.657639 
	C293.893707,112.105873 293.942719,122.554100 293.989441,133.462677 
	C286.933197,132.974686 279.879181,132.026352 272.399109,131.133408 
z"/>
<path fill="#FFD064" opacity="1.000000" stroke="none" 
	d="
M392.161804,186.241241 
	C401.106720,177.014313 409.957031,167.833542 419.363922,159.263763 
	C425.225494,153.923782 432.652863,154.037964 440.439941,155.922379 
	C442.078674,163.594940 439.260437,169.532272 433.819336,174.770767 
	C424.771454,183.481827 416.005493,192.485703 406.978333,201.678375 
	C401.991394,196.842209 397.146912,191.693893 392.161804,186.241241 
z"/>
<path fill="#FFD065" opacity="1.000000" stroke="none" 
	d="
M293.928619,101.344849 
	C286.955261,108.001694 281.523468,106.982437 278.966919,98.021042 
	C278.963654,87.464531 278.959656,77.752708 278.970367,67.568275 
	C278.977203,57.020802 278.969330,46.945934 278.969696,36.505089 
	C279.675507,31.633907 282.654053,29.275301 286.855530,29.496431 
	C291.021545,29.715696 293.876801,32.231743 294.031342,37.344353 
	C294.030792,47.896252 294.038849,57.969097 294.039246,68.507904 
	C294.026367,76.443321 293.939941,83.914139 294.065735,91.381393 
	C294.103210,93.606552 294.735748,95.821678 295.095673,98.041405 
	C294.734619,99.038284 294.373596,100.035172 293.928619,101.344849 
z"/>
<path fill="#DBEDFE" opacity="1.000000" stroke="none" 
	d="
M294.039948,36.865307 
	C293.876801,32.231743 291.021545,29.715696 286.855530,29.496431 
	C282.654053,29.275301 279.675507,31.633907 278.511444,36.567268 
	C273.692047,37.018742 269.339142,37.042053 264.893982,36.717262 
	C262.455353,30.290709 260.345154,29.013292 253.993286,29.826214 
	C257.427094,18.773561 264.987640,11.215143 274.844910,5.155942 
	C288.094330,9.875546 295.097961,20.047863 299.000214,32.874763 
	C299.324188,33.939625 299.657410,35.001671 299.573700,36.525867 
	C297.454010,36.946247 295.746979,36.905777 294.039948,36.865307 
z"/>
<path fill="#ECB145" opacity="1.000000" stroke="none" 
	d="
M295.555695,98.022476 
	C294.735748,95.821678 294.103210,93.606552 294.065735,91.381393 
	C293.939941,83.914139 294.026367,76.443321 294.500122,68.495834 
	C297.953766,68.012360 300.944214,67.890488 303.922852,68.026581 
	C309.494446,68.281158 313.477936,66.047997 315.908569,60.977207 
	C316.287170,60.187340 317.178009,59.643002 317.831970,58.985115 
	C317.562012,69.172073 317.606232,79.381363 316.884430,89.536201 
	C316.543396,94.333946 311.343567,97.941673 306.471588,97.993538 
	C302.986633,98.030640 299.501038,98.002548 295.555695,98.022476 
z"/>
<path fill="#FFC250" opacity="1.000000" stroke="none" 
	d="
M317.896729,58.528824 
	C317.178009,59.643002 316.287170,60.187340 315.908569,60.977207 
	C313.477936,66.047997 309.494446,68.281158 303.922852,68.026581 
	C300.944214,67.890488 297.953766,68.012360 294.507782,68.029877 
	C294.038849,57.969097 294.030792,47.896252 294.031342,37.344353 
	C295.746979,36.905777 297.454010,36.946247 299.582428,36.914322 
	C307.085175,36.581627 314.304596,36.686562 316.814911,45.025940 
	C318.047058,49.118946 317.631378,53.707977 317.896729,58.528824 
z"/>
<path fill="#375F7E" opacity="1.000000" stroke="none" 
	d="
M116.990517,249.012665 
	C116.990517,249.012665 117.011139,248.558762 117.235214,248.123108 
	C117.688042,247.123291 117.916794,246.559143 118.145546,245.994995 
	C118.430229,245.553864 118.714912,245.112747 119.036255,244.119873 
	C119.060318,243.381683 119.047729,243.195267 119.035133,243.008865 
	C119.035133,243.008865 119.008469,243.009933 119.021111,243.023315 
	C120.112091,241.879028 121.409058,240.858994 122.236916,239.543701 
	C145.085373,203.242218 177.161987,179.178299 218.717804,168.760590 
	C263.671021,157.491150 306.066162,165.013947 344.590637,190.592438 
	C380.284393,214.291458 402.876099,247.807327 411.512115,289.734314 
	C421.286438,337.187653 410.769928,380.775543 381.117889,418.923065 
	C355.573273,451.786316 321.570892,471.947388 280.188293,477.750671 
	C234.133255,484.209137 192.581284,472.780151 156.402771,443.024506 
	C141.850800,431.056000 129.908249,416.909119 120.351059,400.705109 
	C119.851143,399.857513 119.199364,399.099487 118.320366,398.134705 
	C118.022453,397.969635 118.003120,397.998993 117.991364,397.701050 
	C117.655937,396.924164 117.332260,396.445282 117.008591,395.966370 
	C117.008591,395.966370 116.991722,396.004700 116.979141,395.700470 
	C116.621902,394.916565 116.277237,394.436920 115.932571,393.957275 
	C111.184212,379.156311 105.131531,364.628632 101.960762,349.497101 
	C95.488083,318.608154 99.451050,288.438629 112.223190,259.498138 
	C113.496033,256.613983 114.543831,253.630524 116.054398,250.237946 
	C116.670914,249.575272 116.863510,249.318573 116.990517,249.012665 
M115.047127,330.306213 
	C115.962082,348.934021 120.727432,366.569824 128.790100,383.340027 
	C129.254745,384.306458 130.216446,385.033936 130.979965,386.639740 
	C133.375214,390.793457 135.770462,394.947205 138.251022,399.765747 
	C148.308273,415.643097 161.449127,428.513214 176.821671,439.180084 
	C177.671249,439.769592 178.936584,439.759888 180.161057,440.690277 
	C184.403275,443.121704 188.645477,445.553162 193.178604,448.635834 
	C210.560471,458.053040 229.363037,462.308228 249.831451,463.967773 
	C254.929459,463.965576 260.027466,463.963348 265.945251,463.848877 
	C276.678528,461.894958 287.603363,460.638428 298.082764,457.760101 
	C306.053070,455.570984 313.457367,451.321136 321.844818,447.970734 
	C325.893188,445.327820 329.941559,442.684906 334.719177,440.236542 
	C340.283875,436.189728 346.177216,432.519714 351.342102,428.014526 
	C360.936005,419.646210 369.621246,410.383270 376.393311,398.681488 
	C378.615723,394.405548 380.838165,390.129639 383.701294,385.632843 
	C393.325623,368.149323 397.993317,349.325104 398.949341,328.482300 
	C398.957733,323.627106 398.966125,318.771881 399.005341,313.045319 
	C397.974121,294.843384 393.426270,277.534393 385.686981,261.058746 
	C385.103210,259.816040 383.897278,258.865601 382.958252,257.055847 
	C380.295349,253.030930 377.632416,249.006012 375.348602,244.264008 
	C375.083740,243.389130 375.014496,242.381836 374.525116,241.658905 
	C364.484528,226.825226 351.986847,214.420746 337.253326,204.266129 
	C336.374420,203.660370 335.165527,203.533356 333.777771,202.558929 
	C329.554138,200.044495 325.330536,197.530060 320.633759,194.491547 
	C303.038147,185.814362 284.589478,180.408447 264.106628,179.629456 
	C259.120789,179.735275 254.134979,179.841095 248.230759,179.847092 
	C228.692947,180.903046 210.181274,185.701355 192.213501,195.115952 
	C188.102890,197.807449 183.992264,200.498932 179.187256,203.134247 
	C162.655533,212.935196 149.875626,226.590637 139.109955,242.284393 
	C138.689713,242.897034 139.068115,244.057556 138.377106,245.089691 
	C135.926804,249.322144 133.476486,253.554611 130.331207,258.013947 
	C129.906174,258.505920 129.349518,258.933960 129.075241,259.499084 
	C120.730415,276.691925 115.800606,294.771576 115.005302,314.866150 
	C115.037498,319.735809 115.069702,324.605438 115.047127,330.306213 
z"/>
<path fill="#B5DCFE" opacity="1.000000" stroke="none" 
	d="
M254.258514,105.374046 
	C254.174973,113.264862 254.091446,121.155678 254.011398,129.513824 
	C243.400787,131.101181 232.786697,132.221222 221.762527,133.362640 
	C221.246643,123.505058 221.140839,113.626091 221.058014,103.260712 
	C227.932419,107.739716 232.626984,106.425949 235.517715,98.457863 
	C240.327438,98.031929 244.661850,98.015327 249.092804,98.334717 
	C250.879059,100.905159 252.568787,103.139603 254.258514,105.374046 
z"/>
<path fill="#4A80AA" opacity="1.000000" stroke="none" 
	d="
M115.987976,394.256042 
	C116.277237,394.436920 116.621902,394.916565 117.000092,395.701111 
	C116.703545,395.522247 116.373459,395.038544 115.987976,394.256042 
z"/>
<path fill="#4A80AA" opacity="1.000000" stroke="none" 
	d="
M117.039101,396.264893 
	C117.332260,396.445282 117.655937,396.924164 118.006790,397.701843 
	C117.712517,397.521545 117.391060,397.042480 117.039101,396.264893 
z"/>
<path fill="#4A80AA" opacity="1.000000" stroke="none" 
	d="
M117.881424,246.171112 
	C117.916794,246.559143 117.688042,247.123291 117.232422,247.895935 
	C117.209473,247.518692 117.413391,246.932953 117.881424,246.171112 
z"/>
<path fill="#4A80AA" opacity="1.000000" stroke="none" 
	d="
M118.880135,243.113678 
	C119.047729,243.195267 119.060318,243.381683 119.064857,243.849976 
	C118.946243,243.827377 118.835686,243.522949 118.880135,243.113678 
z"/>
<path fill="#4A80AA" opacity="1.000000" stroke="none" 
	d="
M116.781479,249.136292 
	C116.863510,249.318573 116.670914,249.575272 116.204300,249.908295 
	C116.122261,249.726837 116.314453,249.468872 116.781479,249.136292 
z"/>
<path fill="#FFD065" opacity="1.000000" stroke="none" 
	d="
M254.630981,105.468437 
	C252.568787,103.139603 250.879059,100.905159 249.101654,97.866272 
	C249.004288,87.379951 248.994614,77.698082 248.990082,67.546555 
	C249.001389,57.071350 249.007553,47.065788 249.013733,37.060226 
	C250.484848,34.781658 251.955978,32.503090 253.710190,30.025368 
	C260.345154,29.013292 262.455353,30.290709 264.899628,37.181061 
	C265.003326,48.000713 265.009125,58.008461 265.004883,68.483765 
	C264.997253,78.633041 264.999634,88.314766 265.002014,97.996490 
	C262.914886,104.299362 260.988983,105.756767 254.630981,105.468437 
z"/>
<path fill="#FFC250" opacity="1.000000" stroke="none" 
	d="
M248.548309,37.064205 
	C249.007553,47.065788 249.001389,57.071350 248.527191,67.542038 
	C243.721222,68.018394 239.383240,68.029610 235.045258,68.040825 
	C235.037766,57.969376 235.030258,47.897930 235.032104,37.348152 
	C239.388596,36.935940 243.735733,37.002064 248.548309,37.064205 
z"/>
<path fill="#EBB145" opacity="1.000000" stroke="none" 
	d="
M235.034576,68.505280 
	C239.383240,68.029610 243.721222,68.018394 248.522064,68.011688 
	C248.994614,77.698082 249.004288,87.379951 249.005127,97.530273 
	C244.661850,98.015327 240.327438,98.031929 235.537720,98.090897 
	C235.062897,88.412094 235.043396,78.690918 235.034576,68.505280 
z"/>
<path fill="#EBB145" opacity="1.000000" stroke="none" 
	d="
M265.466248,97.997734 
	C264.999634,88.314766 264.997253,78.633041 265.467773,68.479248 
	C270.279022,68.018410 274.617371,68.029640 278.955688,68.040878 
	C278.959656,77.752708 278.963654,87.464531 278.952148,97.653763 
	C274.601227,98.087097 270.265869,98.043037 265.466248,97.997734 
z"/>
<path fill="#FFC250" opacity="1.000000" stroke="none" 
	d="
M278.970398,67.568275 
	C274.617371,68.029640 270.279022,68.018410 265.477814,68.011688 
	C265.009125,58.008461 265.003326,48.000713 264.991882,37.529167 
	C269.339142,37.042053 273.692047,37.018742 278.503235,36.933243 
	C278.969330,46.945934 278.977203,57.020802 278.970398,67.568275 
z"/>
<path fill="#DBEDFF" opacity="1.000000" stroke="none" 
	d="
M375.837494,399.094849 
	C369.621246,410.383270 360.936005,419.646210 351.342102,428.014526 
	C346.177216,432.519714 340.283875,436.189728 334.277222,439.797668 
	C333.342010,438.508179 332.890015,437.630310 332.348663,436.811462 
	C329.485016,432.479492 325.310242,431.202972 321.450623,433.452820 
	C317.646881,435.670166 316.675568,440.101379 319.051086,444.642639 
	C319.656799,445.800568 320.421722,446.875244 321.113495,447.988159 
	C313.457367,451.321136 306.053070,455.570984 298.082764,457.760101 
	C287.603363,460.638428 276.678528,461.894958 265.436523,463.487122 
	C264.892151,462.306793 264.814789,461.487549 264.827637,460.669739 
	C264.900635,456.014130 263.726349,452.087769 258.526031,450.965118 
	C254.001083,449.988281 251.241150,452.134155 248.634003,457.950928 
	C220.615204,444.896545 198.661743,425.477051 182.860886,399.281494 
	C163.556824,367.278107 156.653305,332.639526 163.370789,295.936707 
	C171.447906,251.805145 194.865158,217.541306 233.047440,193.711563 
	C238.051636,190.588409 243.706894,188.508484 249.222168,186.254364 
	C250.817291,190.848740 253.673874,193.448959 258.289642,192.597656 
	C263.118164,191.707123 264.875641,188.075729 264.824127,183.418030 
	C264.811340,182.260590 264.841492,181.102692 264.851929,179.944992 
	C284.589478,180.408447 303.038147,185.814362 320.740784,195.096466 
	C320.438721,196.414139 320.017822,197.120407 319.622375,197.840637 
	C316.687408,203.186356 317.312134,207.448822 321.387360,209.922638 
	C325.662323,212.517685 329.868042,210.900375 333.077728,205.398148 
	C333.486389,204.697571 333.769135,203.923553 334.110199,203.183563 
	C335.165527,203.533356 336.374420,203.660370 337.253326,204.266129 
	C351.986847,214.420746 364.484528,226.825226 374.525116,241.658905 
	C375.014496,242.381836 375.083740,243.389130 374.813416,244.689285 
	C367.938568,248.836487 366.111694,252.902893 368.798950,257.310577 
	C371.561005,261.840973 375.827271,262.175568 382.173431,258.354156 
	C382.455566,258.184265 382.712097,257.971893 382.980560,257.779297 
	C383.897278,258.865601 385.103210,259.816040 385.686981,261.058746 
	C393.426270,277.534393 397.974121,294.843384 398.555817,313.513611 
	C396.614716,313.991394 395.116425,313.912933 393.632843,314.026794 
	C389.098236,314.374878 386.067383,317.422455 386.000488,321.605652 
	C385.933441,325.799194 388.862274,328.904633 393.425293,329.335205 
	C395.235229,329.505981 397.067566,329.439331 398.889709,329.480774 
	C397.993317,349.325104 393.325623,368.149323 383.166351,385.474182 
	C381.488281,384.669647 380.381500,383.945984 379.195465,383.392059 
	C375.058014,381.459808 371.003235,382.515350 368.851471,386.022278 
	C366.614258,389.668335 367.692749,394.185608 371.524353,396.761505 
	C372.874695,397.669250 374.394867,398.324371 375.837494,399.094849 
M279.637451,309.900391 
	C290.679169,290.813232 301.736298,271.734955 312.750916,252.632187 
	C315.258514,248.283279 316.373688,243.748276 313.723053,238.281677 
	C311.513916,232.963821 307.264801,230.436005 301.772186,230.107254 
	C295.935303,229.757889 291.494049,232.531769 288.622345,237.484955 
	C277.166199,257.245087 265.817627,277.067627 253.743698,297.032440 
	C252.303192,297.399902 250.820328,297.650238 249.428970,298.153595 
	C239.465714,301.758118 233.498322,308.913635 232.377380,319.341827 
	C231.317566,329.201172 235.398987,337.324860 243.820633,342.534332 
	C252.318985,347.791260 261.229034,348.232635 270.460419,342.169189 
	C281.172028,334.569458 283.861420,324.648315 279.637451,309.900391 
z"/>
<path fill="#B4DBFE" opacity="1.000000" stroke="none" 
	d="
M249.060608,185.945389 
	C243.706894,188.508484 238.051636,190.588409 233.047440,193.711563 
	C194.865158,217.541306 171.447906,251.805145 163.370789,295.936707 
	C156.653305,332.639526 163.556824,367.278107 182.860886,399.281494 
	C198.661743,425.477051 220.615204,444.896545 248.709930,458.372986 
	C249.055267,460.552155 248.967834,462.259186 248.880402,463.966187 
	C229.363037,462.308228 210.560471,458.053040 193.245102,448.014954 
	C193.980698,446.247711 194.748566,445.146851 195.301056,443.946808 
	C197.240219,439.734711 196.120972,435.565155 192.568344,433.476471 
	C188.775299,431.246490 184.552933,432.413361 181.847855,436.518524 
	C181.124573,437.616119 180.615707,438.855042 180.008392,440.029083 
	C178.936584,439.759888 177.671249,439.769592 176.821671,439.180084 
	C161.449127,428.513214 148.308273,415.643097 138.537384,399.334747 
	C146.049866,394.718048 148.006134,390.761017 145.171280,386.064331 
	C142.356979,381.401672 137.631470,381.337982 130.946808,385.872620 
	C130.216446,385.033936 129.254745,384.306458 128.790100,383.340027 
	C120.727432,366.569824 115.962082,348.934021 115.512466,329.865662 
	C117.467674,329.401062 118.965363,329.466095 120.445976,329.336334 
	C125.022499,328.935272 128.003204,325.892487 127.994698,321.727875 
	C127.986145,317.535400 124.988358,314.414856 120.482941,314.038177 
	C118.672241,313.886780 116.843330,313.953308 115.022705,313.920654 
	C115.800606,294.771576 120.730415,276.691925 129.075241,259.499084 
	C129.349518,258.933960 129.906174,258.505920 130.980164,258.110352 
	C133.069550,258.991730 134.436386,259.987885 135.964767,260.520477 
	C139.916840,261.897614 143.224472,260.702057 145.245651,257.104492 
	C147.138214,253.735901 146.617798,250.341812 143.692398,247.707657 
	C142.387329,246.532516 140.627701,245.862213 139.074371,244.962784 
	C139.068115,244.057556 138.689713,242.897034 139.109955,242.284393 
	C149.875626,226.590637 162.655533,212.935196 179.618774,203.496002 
	C180.536850,204.715027 180.980545,205.600159 181.517075,206.424927 
	C184.449295,210.932556 188.449844,212.263062 192.362549,210.059982 
	C196.417465,207.776794 197.344345,203.362244 194.784119,198.476700 
	C194.175125,197.314621 193.534210,196.169235 192.907990,195.016174 
	C210.181274,185.701355 228.692947,180.903046 248.700470,180.326965 
	C249.133652,182.519684 249.097122,184.232544 249.060608,185.945389 
z"/>
<path fill="#2D4F68" opacity="1.000000" stroke="none" 
	d="
M249.222168,186.254364 
	C249.097122,184.232544 249.133652,182.519684 249.159668,180.376877 
	C254.134979,179.841095 259.120789,179.735275 264.479279,179.787231 
	C264.841492,181.102692 264.811340,182.260590 264.824127,183.418030 
	C264.875641,188.075729 263.118164,191.707123 258.289642,192.597656 
	C253.673874,193.448959 250.817291,190.848740 249.222168,186.254364 
z"/>
<path fill="#2D4F68" opacity="1.000000" stroke="none" 
	d="
M249.355927,463.966980 
	C248.967834,462.259186 249.055267,460.552155 249.066772,458.423096 
	C251.241150,452.134155 254.001083,449.988281 258.526031,450.965118 
	C263.726349,452.087769 264.900635,456.014130 264.827637,460.669739 
	C264.814789,461.487549 264.892151,462.306793 265.026642,463.543274 
	C260.027466,463.963348 254.929459,463.965576 249.355927,463.966980 
z"/>
<path fill="#2F5069" opacity="1.000000" stroke="none" 
	d="
M321.479156,447.979431 
	C320.421722,446.875244 319.656799,445.800568 319.051086,444.642639 
	C316.675568,440.101379 317.646881,435.670166 321.450623,433.452820 
	C325.310242,431.202972 329.485016,432.479492 332.348663,436.811462 
	C332.890015,437.630310 333.342010,438.508179 333.912598,439.700409 
	C329.941559,442.684906 325.893188,445.327820 321.479156,447.979431 
z"/>
<path fill="#2F5069" opacity="1.000000" stroke="none" 
	d="
M376.115417,398.888184 
	C374.394867,398.324371 372.874695,397.669250 371.524353,396.761505 
	C367.692749,394.185608 366.614258,389.668335 368.851471,386.022278 
	C371.003235,382.515350 375.058014,381.459808 379.195465,383.392059 
	C380.381500,383.945984 381.488281,384.669647 382.846008,385.584595 
	C380.838165,390.129639 378.615723,394.405548 376.115417,398.888184 
z"/>
<path fill="#2F5069" opacity="1.000000" stroke="none" 
	d="
M180.084717,440.359680 
	C180.615707,438.855042 181.124573,437.616119 181.847855,436.518524 
	C184.552933,432.413361 188.775299,431.246490 192.568344,433.476471 
	C196.120972,435.565155 197.240219,439.734711 195.301056,443.946808 
	C194.748566,445.146851 193.980698,446.247711 193.099640,447.689331 
	C188.645477,445.553162 184.403275,443.121704 180.084717,440.359680 
z"/>
<path fill="#2F5069" opacity="1.000000" stroke="none" 
	d="
M130.963379,386.256165 
	C137.631470,381.337982 142.356979,381.401672 145.171280,386.064331 
	C148.006134,390.761017 146.049866,394.718048 138.494736,399.002319 
	C135.770462,394.947205 133.375214,390.793457 130.963379,386.256165 
z"/>
<path fill="#2E5068" opacity="1.000000" stroke="none" 
	d="
M333.943970,202.871246 
	C333.769135,203.923553 333.486389,204.697571 333.077728,205.398148 
	C329.868042,210.900375 325.662323,212.517685 321.387360,209.922638 
	C317.312134,207.448822 316.687408,203.186356 319.622375,197.840637 
	C320.017822,197.120407 320.438721,196.414139 320.977356,195.358521 
	C325.330536,197.530060 329.554138,200.044495 333.943970,202.871246 
z"/>
<path fill="#2D4F68" opacity="1.000000" stroke="none" 
	d="
M192.560745,195.066071 
	C193.534210,196.169235 194.175125,197.314621 194.784119,198.476700 
	C197.344345,203.362244 196.417465,207.776794 192.362549,210.059982 
	C188.449844,212.263062 184.449295,210.932556 181.517075,206.424927 
	C180.980545,205.600159 180.536850,204.715027 179.965973,203.524078 
	C183.992264,200.498932 188.102890,197.807449 192.560745,195.066071 
z"/>
<path fill="#2D4F68" opacity="1.000000" stroke="none" 
	d="
M138.725739,245.026245 
	C140.627701,245.862213 142.387329,246.532516 143.692398,247.707657 
	C146.617798,250.341812 147.138214,253.735901 145.245651,257.104492 
	C143.224472,260.702057 139.916840,261.897614 135.964767,260.520477 
	C134.436386,259.987885 133.069550,258.991730 131.327637,257.996948 
	C133.476486,253.554611 135.926804,249.322144 138.725739,245.026245 
z"/>
<path fill="#2E5068" opacity="1.000000" stroke="none" 
	d="
M382.969421,257.417572 
	C382.712097,257.971893 382.455566,258.184265 382.173431,258.354156 
	C375.827271,262.175568 371.561005,261.840973 368.798950,257.310577 
	C366.111694,252.902893 367.938568,248.836487 374.623840,245.047821 
	C377.632416,249.006012 380.295349,253.030930 382.969421,257.417572 
z"/>
<path fill="#2D4F68" opacity="1.000000" stroke="none" 
	d="
M398.919525,328.981537 
	C397.067566,329.439331 395.235229,329.505981 393.425293,329.335205 
	C388.862274,328.904633 385.933441,325.799194 386.000488,321.605652 
	C386.067383,317.422455 389.098236,314.374878 393.632843,314.026794 
	C395.116425,313.912933 396.614716,313.991394 398.540405,313.949280 
	C398.966125,318.771881 398.957733,323.627106 398.919525,328.981537 
z"/>
<path fill="#2D4F68" opacity="1.000000" stroke="none" 
	d="
M115.014008,314.393402 
	C116.843330,313.953308 118.672241,313.886780 120.482941,314.038177 
	C124.988358,314.414856 127.986145,317.535400 127.994698,321.727875 
	C128.003204,325.892487 125.022499,328.935272 120.445976,329.336334 
	C118.965363,329.466095 117.467674,329.401062 115.539848,329.450134 
	C115.069702,324.605438 115.037498,319.735809 115.014008,314.393402 
z"/>
<path fill="#FD2C3B" opacity="1.000000" stroke="none" 
	d="
M254.429230,296.867065 
	C265.817627,277.067627 277.166199,257.245087 288.622345,237.484955 
	C291.494049,232.531769 295.935303,229.757889 301.772186,230.107254 
	C307.264801,230.436005 311.513916,232.963821 313.391541,238.609863 
	C307.482880,238.639542 303.548981,241.328629 300.768219,245.892731 
	C298.697571,249.291214 296.856079,252.828400 294.843445,256.263306 
	C286.294312,270.853851 277.719421,285.429291 268.785614,299.920319 
	C263.754608,298.842590 259.091919,297.854828 254.429230,296.867065 
z"/>
<path fill="#2D4F68" opacity="1.000000" stroke="none" 
	d="
M254.086456,296.949768 
	C259.091919,297.854828 263.754608,298.842590 268.843628,300.121002 
	C269.269928,300.411621 269.368164,300.819153 269.031006,300.968872 
	C265.459167,304.761017 261.300629,307.933563 259.163910,312.134491 
	C252.883987,324.481323 261.073334,339.843292 269.862579,342.329224 
	C261.229034,348.232635 252.318985,347.791260 243.820633,342.534332 
	C235.398987,337.324860 231.317566,329.201172 232.377380,319.341827 
	C233.498322,308.913635 239.465714,301.758118 249.428970,298.153595 
	C250.820328,297.650238 252.303192,297.399902 254.086456,296.949768 
z"/>
<path fill="#FE646F" opacity="1.000000" stroke="none" 
	d="
M269.368164,300.819153 
	C269.368164,300.819153 269.269928,300.411621 269.211914,300.210938 
	C277.719421,285.429291 286.294312,270.853851 294.843445,256.263306 
	C296.856079,252.828400 298.697571,249.291214 300.768219,245.892731 
	C303.548981,241.328629 307.482880,238.639542 313.468109,238.945450 
	C316.373688,243.748276 315.258514,248.283279 312.750916,252.632187 
	C301.736298,271.734955 290.679169,290.813232 279.112457,309.865814 
	C275.514374,306.827209 272.441254,303.823181 269.368164,300.819153 
z"/>
<path fill="#385F7E" opacity="1.000000" stroke="none" 
	d="
M269.031006,300.968872 
	C272.441254,303.823181 275.514374,306.827209 278.837708,310.086823 
	C283.861420,324.648315 281.172028,334.569458 270.161499,342.249207 
	C261.073334,339.843292 252.883987,324.481323 259.163910,312.134491 
	C261.300629,307.933563 265.459167,304.761017 269.031006,300.968872 
z"/>
</svg>