<svg version="1.1" id="Layer_1" xmlns="http://www.w3.org/2000/svg" xmlns:xlink="http://www.w3.org/1999/xlink" x="0px" y="0px"
	 width="100%" viewBox="0 0 512 512" enable-background="new 0 0 512 512" xml:space="preserve">
<path fill="#FFFFFF" opacity="0" stroke="none" 
	d="
M1.000000,121.000000 
	C1.000000,81.017944 1.000000,41.035896 1.000000,1.026922 
	C171.572144,1.026922 342.144287,1.026922 513.000000,1.026922 
	C513.000000,114.021278 513.000000,227.042786 512.654785,340.398376 
	C510.214783,340.114166 508.120087,339.495850 506.014954,338.437073 
	C505.949249,335.580414 505.893951,333.164276 505.894257,330.298401 
	C505.966553,318.687592 506.043732,307.526154 505.980530,296.365540 
	C505.931427,287.690979 502.212555,280.923218 495.045227,275.999847 
	C483.731750,268.228394 472.467194,260.385742 461.161835,252.602463 
	C457.246216,249.906693 455.209625,246.380402 453.816711,241.652756 
	C448.096100,222.236420 441.802460,203.037796 430.121918,186.056549 
	C424.052734,177.233154 417.037872,172.414688 405.640259,172.780502 
	C382.674805,173.517624 359.669098,172.999985 336.679993,172.999985 
	C334.909149,172.999985 333.138306,172.999985 331.000000,172.999985 
	C331.000000,175.563965 331.001556,177.534149 330.999786,179.504349 
	C330.961151,222.315689 330.922150,265.127045 330.535828,307.953003 
	C329.492584,307.953461 328.796722,307.939301 328.062012,307.462677 
	C328.023102,245.110199 328.023102,183.220169 328.023102,121.000000 
	C218.507965,121.000000 109.753983,121.000000 1.000000,121.000000 
z"/>
<path fill="#FFFFFF" opacity="0" stroke="none" 
	d="
M513.000000,361.000000 
	C513.000000,411.640656 513.000000,462.281342 513.000000,512.960999 
	C342.446930,512.960999 171.893845,512.960999 1.000000,512.960999 
	C1.000000,450.312836 1.000000,387.625092 1.468657,324.468689 
	C15.935556,324.027679 29.933800,324.055328 43.960205,324.514618 
	C43.988369,326.181976 43.988369,327.417755 43.988369,328.816589 
	C41.638470,328.946442 39.726109,329.052124 37.396149,329.089539 
	C28.000000,328.964355 27.999960,328.964355 27.999798,338.088135 
	C27.999733,341.726593 28.230244,345.383423 27.941200,348.998779 
	C27.585730,353.445068 29.956490,354.844025 33.767948,354.981689 
	C35.083584,355.029205 36.405769,354.895508 38.175331,354.912781 
	C40.238483,354.981018 41.851269,354.981018 43.618027,354.981018 
	C43.895924,356.473022 44.116913,357.659485 44.389961,359.125458 
	C48.434139,359.125458 52.190269,359.125458 55.969833,359.521027 
	C58.204659,370.992310 64.142265,379.723236 73.459785,385.846863 
	C89.383545,396.312164 108.201279,395.107178 123.079582,384.370087 
	C131.708420,378.142944 136.463745,369.275696 139.528442,359.088806 
	C150.981766,359.064850 161.972733,359.087769 172.978745,359.512390 
	C174.037735,371.169647 181.291473,375.593689 187.591751,375.933197 
	C192.354828,376.189911 197.149124,375.867279 202.401154,375.837006 
	C226.449539,375.957947 250.028824,375.874115 273.601837,376.219086 
	C282.364716,376.347351 291.122681,368.273956 290.504822,359.148285 
	C304.296661,359.073059 317.631042,359.089844 330.979004,359.562866 
	C330.992554,363.598816 330.992554,367.178497 330.992554,371.116364 
	C356.119995,371.116364 380.522217,371.116364 405.069122,371.429810 
	C422.345856,400.498138 463.050262,399.977966 480.372437,370.839111 
	C485.315948,370.966919 489.831543,370.639709 494.269684,371.084839 
	C500.128082,371.672363 504.214386,369.948669 506.416687,364.055359 
	C508.852783,363.013123 510.926392,362.006561 513.000000,361.000000 
z"/>
<path fill="#F7BE56" opacity="1.000000" stroke="none" 
	d="
M43.932041,324.083008 
	C29.933800,324.055328 15.935556,324.027679 1.468657,324.000000 
	C1.000000,256.645782 1.000000,189.291550 1.000000,121.468658 
	C109.753983,121.000000 218.507965,121.000000 328.023102,121.000000 
	C328.023102,183.220169 328.023102,245.110199 327.845520,307.815369 
	C327.667969,313.357452 327.667969,318.084381 327.667969,323.191437 
	C324.539825,323.191437 322.566864,323.191437 320.593903,323.191437 
	C259.205750,323.191437 197.817612,323.188934 136.429474,323.201782 
	C134.272873,323.202240 132.116302,323.355774 129.659393,323.250610 
	C113.065239,306.884155 93.208458,303.835175 74.977127,315.003479 
	C71.053215,317.407196 67.688660,320.724060 63.612442,323.474670 
	C56.749634,323.580322 50.340839,323.831665 43.932041,324.083008 
M253.500000,303.000000 
	C272.161102,302.999817 290.822723,302.926910 309.482788,303.065002 
	C312.924591,303.090454 314.478241,302.102234 314.022430,298.555054 
	C313.875000,297.407715 313.873901,296.209045 314.022797,295.062042 
	C314.517670,291.250214 313.229309,289.672363 309.098816,289.929688 
	C295.531342,290.774841 281.947266,291.366241 268.365845,291.971741 
	C245.000092,293.013428 221.630829,293.976105 198.264420,295.003601 
	C184.017532,295.630096 169.774719,296.349457 155.527496,296.967560 
	C131.661545,298.003052 107.795807,299.049805 83.925430,299.974518 
	C71.643059,300.450317 59.346867,300.570892 47.064781,301.052521 
	C40.753990,301.299988 34.460453,301.987518 28.159119,302.476196 
	C28.163322,302.650818 28.167526,302.825409 28.171728,303.000000 
	C102.947823,303.000000 177.723907,303.000000 253.500000,303.000000 
M107.557220,151.000870 
	C128.259537,150.006210 148.960876,148.990540 169.664490,148.023895 
	C184.741943,147.319931 199.821838,146.667084 214.901703,146.016312 
	C230.813217,145.329636 246.723526,144.605301 262.639008,144.024048 
	C275.089752,143.569321 287.547668,143.310699 300.001740,142.943314 
	C300.283508,142.935028 300.557617,142.667801 301.819153,142.002457 
	C298.863037,142.002457 297.050049,142.002472 295.237091,142.002457 
	C204.426025,142.001648 113.614960,141.991745 22.803896,142.014633 
	C14.133104,142.016815 15.340356,140.874542 14.893096,149.645142 
	C14.656357,154.287491 16.377337,155.353897 20.609535,155.059631 
	C32.511028,154.232086 44.427967,153.595200 56.346508,153.051849 
	C73.087799,152.288605 89.836021,151.677444 107.557220,151.000870 
z"/>
<path fill="#F3BC58" opacity="1.000000" stroke="none" 
	d="
M513.000000,360.531616 
	C510.926392,362.006561 508.852783,363.013123 506.124939,363.745239 
	C505.655609,355.273010 505.840485,347.075256 506.025391,338.877533 
	C508.120087,339.495850 510.214783,340.114166 512.654785,340.866241 
	C513.000000,347.354401 513.000000,353.708801 513.000000,360.531616 
z"/>
<path fill="#E56353" opacity="1.000000" stroke="none" 
	d="
M330.883209,307.938385 
	C330.922150,265.127045 330.961151,222.315689 330.999786,179.504349 
	C331.001556,177.534149 331.000000,175.563965 331.000000,172.999985 
	C333.138306,172.999985 334.909149,172.999985 336.679993,172.999985 
	C359.669098,172.999985 382.674805,173.517624 405.640259,172.780502 
	C417.037872,172.414688 424.052734,177.233154 430.121918,186.056549 
	C441.802460,203.037796 448.096100,222.236420 453.816711,241.652756 
	C455.209625,246.380402 457.246216,249.906693 461.161835,252.602463 
	C472.467194,260.385742 483.731750,268.228394 495.045227,275.999847 
	C502.212555,280.923218 505.931427,287.690979 505.980530,296.365540 
	C506.043732,307.526154 505.966553,318.687592 505.441162,330.375610 
	C496.580688,330.990906 488.228851,331.079285 479.609131,330.961151 
	C462.590942,300.572968 420.744965,301.583435 404.464294,331.001373 
	C379.979126,331.035522 355.955505,331.075317 331.657715,330.793335 
	C331.216736,322.960541 331.049957,315.449463 330.883209,307.938385 
M411.515411,202.940842 
	C398.176941,193.966385 383.483521,190.699921 367.531860,192.126205 
	C367.531860,213.872787 367.531860,235.230606 367.531860,256.610809 
	C391.820679,256.610809 415.719513,256.610809 440.142578,256.610809 
	C439.341217,234.043900 430.129974,216.408493 411.515411,202.940842 
M382.757660,276.738708 
	C384.197601,276.061371 385.637512,275.384003 388.427551,274.071533 
	C386.061157,272.262726 384.673523,270.320892 383.162933,270.220001 
	C379.316437,269.963013 375.414978,270.528717 371.159271,270.788116 
	C369.114166,274.670197 369.403900,275.722931 373.986572,276.604889 
	C376.555206,277.099274 379.273163,276.817719 382.757660,276.738708 
z"/>
<path fill="#465E71" opacity="1.000000" stroke="none" 
	d="
M330.535828,307.953003 
	C331.049957,315.449463 331.216736,322.960541 331.669708,331.252136 
	C331.959015,335.500946 332.081879,338.974213 331.937836,342.436401 
	C331.706512,347.997009 331.298676,353.550262 330.965424,359.106628 
	C317.631042,359.089844 304.296661,359.073059 290.291840,358.765076 
	C289.358551,354.705963 288.982086,350.941803 288.856995,347.169312 
	C288.613739,339.831879 283.534912,333.948578 276.165039,333.147583 
	C271.085876,332.595551 265.952911,332.538452 260.392395,332.181427 
	C240.980011,332.106415 222.019211,332.110138 202.805450,332.052032 
	C202.379410,332.003052 202.206299,332.015869 201.565567,332.027161 
	C197.790833,332.025055 194.479126,331.911407 191.177383,332.044495 
	C179.649643,332.509308 174.092575,338.393341 173.953629,349.877808 
	C173.916336,352.958984 173.309204,356.033234 172.963684,359.110687 
	C161.972733,359.087769 150.981766,359.064850 139.514374,358.612305 
	C140.088837,345.535858 137.686981,333.791199 129.959717,323.437988 
	C132.116302,323.355774 134.272873,323.202240 136.429474,323.201782 
	C197.817612,323.188934 259.205750,323.191437 320.593903,323.191437 
	C322.566864,323.191437 324.539825,323.191437 327.667969,323.191437 
	C327.667969,318.084381 327.667969,313.357452 327.884430,308.277832 
	C328.796722,307.939301 329.492584,307.953461 330.535828,307.953003 
z"/>
<path fill="#64798A" opacity="1.000000" stroke="none" 
	d="
M479.877014,331.167633 
	C488.228851,331.079285 496.580688,330.990906 505.385620,330.825317 
	C505.893951,333.164276 505.949249,335.580414 506.014954,338.437073 
	C505.840485,347.075256 505.655609,355.273010 505.762451,363.780853 
	C504.214386,369.948669 500.128082,371.672363 494.269684,371.084839 
	C489.831543,370.639709 485.315948,370.966919 480.372803,370.463074 
	C485.420319,357.034912 485.625214,344.098694 479.877014,331.167633 
z"/>
<path fill="#304959" opacity="1.000000" stroke="none" 
	d="
M129.659393,323.250610 
	C137.686981,333.791199 140.088837,345.535858 139.052002,358.659180 
	C136.463745,369.275696 131.708420,378.142944 123.079582,384.370087 
	C108.201279,395.107178 89.383545,396.312164 73.459785,385.846863 
	C64.142265,379.723236 58.204659,370.992310 55.984459,359.082642 
	C54.176369,348.298920 55.782509,338.891937 60.514030,329.995361 
	C61.656086,327.847961 62.880112,325.744141 64.066452,323.620300 
	C67.688660,320.724060 71.053215,317.407196 74.977127,315.003479 
	C93.208458,303.835175 113.065239,306.884155 129.659393,323.250610 
M83.306114,365.673798 
	C85.878593,367.163269 88.451080,368.652771 91.646233,370.655823 
	C95.425591,370.459137 99.204948,370.262482 103.732338,370.166595 
	C106.267639,368.476227 108.802933,366.785889 111.990120,364.968231 
	C113.685158,361.704681 115.380188,358.441132 117.676483,354.608063 
	C117.483978,351.662476 117.291473,348.716919 117.086716,345.022430 
	C115.148727,342.013275 113.210747,339.004150 111.142685,335.282135 
	C108.421638,333.826538 105.700592,332.370941 102.479362,330.376953 
	C98.661842,330.525543 94.844330,330.674133 90.295258,330.885773 
	C87.905975,332.584808 85.516693,334.283844 82.466949,336.208130 
	C80.646622,339.475098 78.826302,342.742035 76.765160,346.723114 
	C76.858109,349.460602 76.951057,352.198090 77.098480,355.674835 
	C79.120377,358.789825 81.142265,361.904846 83.306114,365.673798 
z"/>
<path fill="#304959" opacity="1.000000" stroke="none" 
	d="
M479.609131,330.961151 
	C485.625214,344.098694 485.420319,357.034912 479.910370,370.351807 
	C463.050262,399.977966 422.345856,400.498138 405.069183,371.050781 
	C398.827667,357.240997 398.388794,344.123901 404.925842,331.007019 
	C420.744965,301.583435 462.590942,300.572968 479.609131,330.961151 
M456.893066,364.932068 
	C458.616394,361.665649 460.339691,358.399231 462.635681,354.550690 
	C462.452789,351.635712 462.269928,348.720703 462.070343,345.053070 
	C461.277130,341.277893 460.454193,337.521973 456.066895,335.294037 
	C453.368347,333.815704 450.669830,332.337341 447.365417,330.325470 
	C443.585663,330.494141 439.805939,330.662811 435.284454,330.874115 
	C432.873138,332.580444 430.461823,334.286774 427.403229,336.226807 
	C425.595367,339.472168 423.787506,342.717499 421.654419,346.651093 
	C421.778534,349.420532 421.902649,352.189941 422.040619,355.708984 
	C424.061096,358.809662 426.081573,361.910309 428.244385,365.673859 
	C430.837402,367.161804 433.430450,368.649780 436.647461,370.649109 
	C440.424500,370.470551 444.201569,370.292023 448.730072,370.184082 
	C451.228119,368.455566 453.726196,366.727020 456.893066,364.932068 
z"/>
<path fill="#657989" opacity="1.000000" stroke="none" 
	d="
M404.464294,331.001373 
	C398.388794,344.123901 398.827667,357.240997 404.924500,370.737335 
	C380.522217,371.116364 356.119995,371.116364 330.992554,371.116364 
	C330.992554,367.178497 330.992554,363.598816 330.979004,359.562866 
	C331.298676,353.550262 331.706512,347.997009 331.937836,342.436401 
	C332.081879,338.974213 331.959015,335.500946 331.943909,331.573853 
	C355.955505,331.075317 379.979126,331.035522 404.464294,331.001373 
M383.205292,340.195160 
	C383.133606,338.590637 383.061920,336.986145 382.984314,335.249084 
	C368.071747,335.249084 353.571472,335.249084 338.726227,335.249084 
	C338.726227,337.444977 338.726227,339.254639 338.325043,341.508728 
	C338.332672,342.102020 338.340302,342.695343 338.255676,344.059296 
	C338.283325,345.610565 338.310974,347.161865 338.177094,349.568176 
	C338.231018,350.141571 338.284973,350.714966 338.253113,352.060577 
	C338.281586,353.613251 338.310089,355.165924 338.176361,357.325745 
	C338.386719,357.868958 338.597107,358.412201 338.691345,359.861176 
	C338.774628,361.459015 338.857910,363.056885 338.949615,364.816772 
	C353.811737,364.816772 368.256104,364.816772 382.979279,364.816772 
	C382.979279,362.632751 382.979279,360.828064 383.031921,358.341827 
	C383.014374,357.886749 382.996826,357.431671 383.023621,356.130035 
	C383.002106,354.435059 382.980560,352.740112 383.014038,350.354034 
	C383.000153,349.892456 382.986267,349.430878 383.019562,348.124725 
	C382.997528,346.433411 382.975494,344.742096 383.023926,342.401733 
	C383.041748,341.968048 383.059570,341.534363 383.205292,340.195160 
z"/>
<path fill="#94A0AC" opacity="1.000000" stroke="none" 
	d="
M260.843994,332.260162 
	C265.952911,332.538452 271.085876,332.595551 276.165039,333.147583 
	C283.534912,333.948578 288.613739,339.831879 288.856995,347.169312 
	C288.982086,350.941803 289.358551,354.705963 289.834381,358.857117 
	C291.122681,368.273956 282.364716,376.347351 273.601837,376.219086 
	C250.028824,375.874115 226.449539,375.957947 202.428848,375.609589 
	C201.984940,375.347656 202.097321,374.903351 202.554840,374.963013 
	C222.099335,375.022675 241.186340,375.022675 260.843994,375.022675 
	C260.843994,360.439423 260.843994,346.349792 260.843994,332.260162 
z"/>
<path fill="#64798A" opacity="1.000000" stroke="none" 
	d="
M202.097321,374.903351 
	C202.097321,374.903351 201.984940,375.347656 201.957245,375.575073 
	C197.149124,375.867279 192.354828,376.189911 187.591751,375.933197 
	C181.291473,375.593689 174.037735,371.169647 172.978729,359.512390 
	C173.309204,356.033234 173.916336,352.958984 173.953629,349.877808 
	C174.092575,338.393341 179.649643,332.509308 191.177383,332.044495 
	C194.479126,331.911407 197.790833,332.025055 201.538788,332.282257 
	C202.004913,332.708130 202.030228,332.877319 202.053543,333.512268 
	C202.066788,347.619751 202.082047,361.261566 202.097321,374.903351 
z"/>
<path fill="#3C566A" opacity="1.000000" stroke="none" 
	d="
M63.612442,323.474670 
	C62.880112,325.744141 61.656086,327.847961 60.514030,329.995361 
	C55.782509,338.891937 54.176369,348.298920 55.961021,358.687073 
	C52.190269,359.125458 48.434139,359.125458 44.389961,359.125458 
	C44.116913,357.659485 43.895924,356.473022 43.618027,354.981018 
	C41.851269,354.981018 40.238483,354.981018 38.256615,354.460327 
	C37.862938,345.679047 37.838341,337.418427 37.813744,329.157837 
	C39.726109,329.052124 41.638470,328.946442 43.988369,328.816589 
	C43.988369,327.417755 43.988369,326.181976 43.960205,324.514587 
	C50.340839,323.831665 56.749634,323.580322 63.612442,323.474670 
z"/>
<path fill="#E56353" opacity="1.000000" stroke="none" 
	d="
M37.396152,329.089539 
	C37.838341,337.418427 37.862938,345.679047 37.806248,354.392090 
	C36.405769,354.895508 35.083584,355.029205 33.767948,354.981689 
	C29.956490,354.844025 27.585730,353.445068 27.941200,348.998779 
	C28.230244,345.383423 27.999733,341.726593 27.999798,338.088135 
	C27.999960,328.964355 28.000000,328.964355 37.396152,329.089539 
z"/>
<path fill="#FCD362" opacity="1.000000" stroke="none" 
	d="
M253.000000,303.000000 
	C177.723907,303.000000 102.947823,303.000000 28.171728,303.000000 
	C28.167526,302.825409 28.163322,302.650818 28.159119,302.476196 
	C34.460453,301.987518 40.753990,301.299988 47.064781,301.052521 
	C59.346867,300.570892 71.643059,300.450317 83.925430,299.974518 
	C107.795807,299.049805 131.661545,298.003052 155.527496,296.967560 
	C169.774719,296.349457 184.017532,295.630096 198.264420,295.003601 
	C221.630829,293.976105 245.000092,293.013428 268.365845,291.971741 
	C281.947266,291.366241 295.531342,290.774841 309.098816,289.929688 
	C313.229309,289.672363 314.517670,291.250214 314.022797,295.062042 
	C313.873901,296.209045 313.875000,297.407715 314.022430,298.555054 
	C314.478241,302.102234 312.924591,303.090454 309.482788,303.065002 
	C290.822723,302.926910 272.161102,302.999817 253.000000,303.000000 
z"/>
<path fill="#FCD462" opacity="1.000000" stroke="none" 
	d="
M107.069252,151.001053 
	C89.836021,151.677444 73.087799,152.288605 56.346508,153.051849 
	C44.427967,153.595200 32.511028,154.232086 20.609535,155.059631 
	C16.377337,155.353897 14.656357,154.287491 14.893096,149.645142 
	C15.340356,140.874542 14.133104,142.016815 22.803896,142.014633 
	C113.614960,141.991745 204.426025,142.001648 295.237091,142.002457 
	C297.050049,142.002472 298.863037,142.002457 301.819153,142.002457 
	C300.557617,142.667801 300.283508,142.935028 300.001740,142.943314 
	C287.547668,143.310699 275.089752,143.569321 262.639008,144.024048 
	C246.723526,144.605301 230.813217,145.329636 214.901703,146.016312 
	C199.821838,146.667084 184.741943,147.319931 169.664490,148.023895 
	C148.960876,148.990540 128.259537,150.006210 107.069252,151.001053 
z"/>
<path fill="#29A1D9" opacity="1.000000" stroke="none" 
	d="
M411.811340,203.144928 
	C430.129974,216.408493 439.341217,234.043900 440.142578,256.610809 
	C415.719513,256.610809 391.820679,256.610809 367.531860,256.610809 
	C367.531860,235.230606 367.531860,213.872787 367.531860,192.126205 
	C383.483521,190.699921 398.176941,193.966385 411.811340,203.144928 
z"/>
<path fill="#364959" opacity="1.000000" stroke="none" 
	d="
M382.340759,276.812225 
	C379.273163,276.817719 376.555206,277.099274 373.986572,276.604889 
	C369.403900,275.722931 369.114166,274.670197 371.159271,270.788116 
	C375.414978,270.528717 379.316437,269.963013 383.162933,270.220001 
	C384.673523,270.320892 386.061157,272.262726 388.427551,274.071533 
	C385.637512,275.384003 384.197601,276.061371 382.340759,276.812225 
z"/>
<path fill="#D5D6DB" opacity="1.000000" stroke="none" 
	d="
M202.554840,374.963013 
	C202.082047,361.261566 202.066788,347.619751 202.240067,333.378845 
	C202.661362,332.579407 202.871292,332.357422 203.058395,332.113861 
	C222.019211,332.110138 240.980011,332.106415 260.392395,332.181427 
	C260.843994,346.349792 260.843994,360.439423 260.843994,375.022675 
	C241.186340,375.022675 222.099335,375.022675 202.554840,374.963013 
z"/>
<path fill="#94A0AC" opacity="1.000000" stroke="none" 
	d="
M202.805450,332.052032 
	C202.871292,332.357422 202.661362,332.579407 202.242081,332.913147 
	C202.030228,332.877319 202.004913,332.708130 202.006393,332.283813 
	C202.206299,332.015869 202.379410,332.003052 202.805450,332.052032 
z"/>
<path fill="#E9EEF1" opacity="1.000000" stroke="none" 
	d="
M77.044006,354.935577 
	C76.951057,352.198090 76.858109,349.460602 77.278603,346.351959 
	C84.842926,345.031372 86.827148,341.313171 83.127411,335.982910 
	C85.516693,334.283844 87.905975,332.584808 90.837906,331.172668 
	C95.806465,336.901093 99.969933,336.705750 102.979553,330.915344 
	C105.700592,332.370941 108.421638,333.826538 110.896721,335.807892 
	C108.352348,342.530609 110.529633,345.717316 117.098969,345.771332 
	C117.291473,348.716919 117.483978,351.662476 116.985245,354.825287 
	C109.898048,356.013000 108.163040,359.532562 111.338234,365.095520 
	C108.802933,366.785889 106.267639,368.476227 103.316353,369.747986 
	C98.830101,364.102112 95.120377,364.356018 91.023560,370.142242 
	C88.451080,368.652771 85.878593,367.163269 83.550079,365.173248 
	C86.360527,358.500549 84.250610,355.456940 77.044006,354.935577 
z"/>
<path fill="#687C8D" opacity="1.000000" stroke="none" 
	d="
M82.797180,336.095520 
	C86.827148,341.313171 84.842926,345.031372 77.399010,345.994904 
	C78.826302,342.742035 80.646622,339.475098 82.797180,336.095520 
z"/>
<path fill="#687C8D" opacity="1.000000" stroke="none" 
	d="
M102.729462,330.646149 
	C99.969933,336.705750 95.806465,336.901093 91.203682,331.141174 
	C94.844330,330.674133 98.661842,330.525543 102.729462,330.646149 
z"/>
<path fill="#687C8D" opacity="1.000000" stroke="none" 
	d="
M117.092834,345.396881 
	C110.529633,345.717316 108.352348,342.530609 110.961761,336.164307 
	C113.210747,339.004150 115.148727,342.013275 117.092834,345.396881 
z"/>
<path fill="#687C8D" opacity="1.000000" stroke="none" 
	d="
M77.071243,355.305206 
	C84.250610,355.456940 86.360527,358.500549 83.479111,364.846252 
	C81.142265,361.904846 79.120377,358.789825 77.071243,355.305206 
z"/>
<path fill="#687C8D" opacity="1.000000" stroke="none" 
	d="
M91.334900,370.399048 
	C95.120377,364.356018 98.830101,364.102112 102.942337,369.697571 
	C99.204948,370.262482 95.425591,370.459137 91.334900,370.399048 
z"/>
<path fill="#64798A" opacity="1.000000" stroke="none" 
	d="
M111.664177,365.031860 
	C108.163040,359.532562 109.898048,356.013000 116.684608,355.110046 
	C115.380188,358.441132 113.685158,361.704681 111.664177,365.031860 
z"/>
<path fill="#E8EEF1" opacity="1.000000" stroke="none" 
	d="
M447.971313,330.858978 
	C450.669830,332.337341 453.368347,333.815704 455.815430,335.809631 
	C453.157959,342.400818 455.424011,345.694275 462.087036,345.805725 
	C462.269928,348.720703 462.452789,351.635712 461.957336,354.786896 
	C454.651367,355.994141 452.783905,359.679504 456.224243,364.998505 
	C453.726196,366.727020 451.228119,368.455566 448.280518,369.786621 
	C443.703217,364.120270 439.998962,364.355133 436.023468,370.137726 
	C433.430450,368.649780 430.837402,367.161804 428.485352,365.162537 
	C431.265778,358.426056 429.190582,355.424011 422.026764,354.959381 
	C421.902649,352.189941 421.778534,349.420532 422.211334,346.308899 
	C429.801483,345.017120 431.691986,341.447601 428.050507,335.993103 
	C430.461823,334.286774 432.873138,332.580444 435.818787,331.178009 
	C440.705658,336.874847 444.716400,336.659790 447.971313,330.858978 
z"/>
<path fill="#687C8D" opacity="1.000000" stroke="none" 
	d="
M462.078674,345.429382 
	C455.424011,345.694275 453.157959,342.400818 455.878052,336.162048 
	C460.454193,337.521973 461.277130,341.277893 462.078674,345.429382 
z"/>
<path fill="#687C8D" opacity="1.000000" stroke="none" 
	d="
M456.558655,364.965271 
	C452.783905,359.679504 454.651367,355.994141 461.671021,355.077972 
	C460.339691,358.399231 458.616394,361.665649 456.558655,364.965271 
z"/>
<path fill="#687C8D" opacity="1.000000" stroke="none" 
	d="
M427.726868,336.109955 
	C431.691986,341.447601 429.801483,345.017120 422.373962,345.964783 
	C423.787506,342.717499 425.595367,339.472168 427.726868,336.109955 
z"/>
<path fill="#687C8D" opacity="1.000000" stroke="none" 
	d="
M422.033691,355.334167 
	C429.190582,355.424011 431.265778,358.426056 428.414185,364.831116 
	C426.081573,361.910309 424.061096,358.809662 422.033691,355.334167 
z"/>
<path fill="#687C8D" opacity="1.000000" stroke="none" 
	d="
M447.668365,330.592224 
	C444.716400,336.659790 440.705658,336.874847 436.189636,331.156677 
	C439.805939,330.662811 443.585663,330.494141 447.668365,330.592224 
z"/>
<path fill="#687C8D" opacity="1.000000" stroke="none" 
	d="
M436.335449,370.393433 
	C439.998962,364.355133 443.703217,364.120270 447.904785,369.751312 
	C444.201569,370.292023 440.424500,370.470551 436.335449,370.393433 
z"/>
<path fill="#F7BE56" opacity="1.000000" stroke="none" 
	d="
M382.953430,343.050781 
	C382.975494,344.742096 382.997528,346.433411 382.529907,348.557861 
	C367.473022,348.898346 352.905853,348.805725 338.338654,348.713135 
	C338.310974,347.161865 338.283325,345.610565 338.733490,343.592468 
	C353.792023,343.100708 368.372711,343.075745 382.953430,343.050781 
z"/>
<path fill="#F7BE56" opacity="1.000000" stroke="none" 
	d="
M338.338593,356.718597 
	C338.310089,355.165924 338.281586,353.613251 338.728516,351.592102 
	C353.788971,351.097473 368.374023,351.071289 382.959045,351.045105 
	C382.980560,352.740112 383.002106,354.435059 382.534729,356.562073 
	C367.476746,356.902283 352.907654,356.810455 338.338593,356.718597 
z"/>
<path fill="#F7BE56" opacity="1.000000" stroke="none" 
	d="
M382.979279,359.023407 
	C382.979279,360.828064 382.979279,362.632751 382.979279,364.816772 
	C368.256104,364.816772 353.811737,364.816772 338.949615,364.816772 
	C338.857910,363.056885 338.774628,361.459015 339.235168,359.425110 
	C354.179108,359.000519 368.579193,359.011963 382.979279,359.023407 
z"/>
<path fill="#F7BE56" opacity="1.000000" stroke="none" 
	d="
M338.726227,341.064301 
	C338.726227,339.254639 338.726227,337.444977 338.726227,335.249084 
	C353.571472,335.249084 368.071747,335.249084 382.984314,335.249084 
	C383.061920,336.986145 383.133606,338.590637 382.665955,340.624542 
	C367.659790,341.057404 353.193024,341.060852 338.726227,341.064301 
z"/>
<path fill="#A49773" opacity="1.000000" stroke="none" 
	d="
M338.525635,341.286499 
	C353.193024,341.060852 367.659790,341.057404 382.601990,341.077301 
	C383.059570,341.534363 383.041748,341.968048 382.988678,342.726257 
	C368.372711,343.075745 353.792023,343.100708 338.779602,343.207153 
	C338.340302,342.695343 338.332672,342.102020 338.525635,341.286499 
z"/>
<path fill="#A49773" opacity="1.000000" stroke="none" 
	d="
M382.986542,350.699585 
	C368.374023,351.071289 353.788971,351.097473 338.771423,351.205994 
	C338.284973,350.714966 338.231018,350.141571 338.257874,349.140656 
	C352.905853,348.805725 367.473022,348.898346 382.506317,348.980133 
	C382.986267,349.430878 383.000153,349.892456 382.986542,350.699585 
z"/>
<path fill="#A49773" opacity="1.000000" stroke="none" 
	d="
M383.005615,358.682617 
	C368.579193,359.011963 354.179108,359.000519 339.293274,358.972229 
	C338.597107,358.412201 338.386719,357.868958 338.257477,357.022156 
	C352.907654,356.810455 367.476746,356.902283 382.512543,356.985352 
	C382.996826,357.431671 383.014374,357.886749 383.005615,358.682617 
z"/>
</svg>